<svg width="606" height="318" viewBox="0 0 606 318" fill="none" xmlns="http://www.w3.org/2000/svg">
<rect width="606" height="318" fill="white"/>
<rect x="9" y="115" width="50" height="50" rx="10" fill="#EEEEEE"/>
<rect x="156" y="14" width="340" height="263" rx="70" fill="black" fill-opacity="0.1"/>
<path d="M267.949 143.306L264.067 142.872L262.723 154.982L266.605 155.416L267.949 143.306Z" fill="black"/>
<path d="M269.938 139.612L268.914 143.386L280.649 146.584L281.673 142.81L269.938 139.612Z" fill="black"/>
<path d="M268.279 135.888L263.111 141.396L225.416 111.451L236.352 99.7948L268.279 135.888Z" fill="black"/>
<path d="M260.607 138.678C261.107 134.881 264.585 132.211 268.375 132.713C272.165 133.216 274.833 136.701 274.333 140.497C273.833 144.294 270.355 146.964 266.565 146.462C262.829 145.967 260.173 142.569 260.59 138.818" fill="black"/>
<path d="M263.345 154.931L264.368 151.158L275.879 156.388L275.081 158.13L263.345 154.931Z" fill="black"/>
<path d="M281.774 143.016L277.874 142.8L279.206 155.392L281.109 155.182L281.774 143.016Z" fill="black"/>
<path d="M236.694 117.003L225.15 108.703L197.542 147.263L209.086 155.562L236.694 117.003Z" fill="black"/>
<path d="M193.936 154.824H174.26C172.545 154.824 171.154 156.218 171.154 157.937V164.682C171.154 166.402 172.545 167.795 174.26 167.795H193.936C195.652 167.795 197.043 166.402 197.043 164.682V157.937C197.043 156.218 195.652 154.824 193.936 154.824Z" fill="black"/>
<path d="M187.466 156.804C187.59 150.716 192.616 145.882 198.692 146.006C204.767 146.13 209.592 151.166 209.468 157.254C209.344 163.342 204.318 168.177 198.242 168.053C192.254 167.93 187.464 163.031 187.464 157.029" fill="black"/>
<path d="M224.041 109.522C224.153 104.024 228.693 99.657 234.18 99.7694C239.668 99.8817 244.026 104.43 243.914 109.929C243.801 115.428 239.262 119.795 233.774 119.682C228.366 119.572 224.039 115.147 224.039 109.726" fill="black"/>
<path d="M216.586 168.411H163.345C161.777 168.411 160.505 169.684 160.505 171.256V175.879C160.505 177.451 161.777 178.725 163.345 178.725H216.586C218.154 178.725 219.425 177.451 219.425 175.879V171.256C219.425 169.684 218.154 168.411 216.586 168.411Z" fill="black"/>
<path d="M424.917 74.5583C425.745 74.5254 426.389 73.8276 426.356 72.9999L425.819 59.5105C425.786 58.6828 425.089 58.0385 424.261 58.0714C423.433 58.1044 422.789 58.8021 422.822 59.6299L423.299 71.6204L411.309 72.0979C410.481 72.1308 409.837 72.8286 409.87 73.6564C409.902 74.4841 410.6 75.1285 411.428 75.0955L424.917 74.5583ZM261.085 86.8664C295.818 38.1799 370.45 24.8609 423.84 74.1616L425.875 71.9575C371.13 21.4049 294.402 34.9989 258.643 85.1241L261.085 86.8664Z" fill="black"/>
<path d="M250.722 201.502C249.894 201.462 249.192 202.101 249.152 202.928L248.509 216.413C248.469 217.241 249.108 217.943 249.935 217.983C250.763 218.022 251.466 217.384 251.505 216.556L252.077 204.57L264.063 205.142C264.891 205.181 265.594 204.542 265.633 203.715C265.673 202.887 265.034 202.185 264.206 202.145L250.722 201.502ZM424.541 219.347C374.701 260.798 300.758 255.899 251.76 201.991L249.54 204.009C299.541 259.02 375.299 264.202 426.459 221.653L424.541 219.347Z" fill="black"/>
<path d="M379.563 179.133H401.162V149.781H379.563V179.133ZM395.38 162.698C396.444 162.698 397.198 163.452 397.198 164.515C397.198 165.579 396.444 166.333 395.38 166.333C394.317 166.333 393.563 165.579 393.563 164.515C393.563 163.471 394.317 162.698 395.38 162.698Z" fill="black"/>
<path d="M405.879 188.395V183.832V179.269V145.044H399.653H396.618H395.09H375V178.979V183.542V188.105H379.563V183.542H401.162V188.105H405.879V188.395V188.395ZM379.563 180.641H378.036V179.114V148.254H402.824V179.133V180.661H401.297C401.316 180.641 379.563 180.641 379.563 180.641Z" fill="black"/>
<path d="M412.106 179.133H433.704V149.781H412.106V179.133ZM429.295 162.698C430.359 162.698 431.113 163.452 431.113 164.515C431.113 165.579 430.359 166.333 429.295 166.333C428.232 166.333 427.478 165.579 427.478 164.515C427.478 163.452 428.387 162.698 429.295 162.698Z" fill="black"/>
<path d="M438.267 188.395V183.832V179.269V145.044H419.859H415.296H412.26H407.697V178.979V183.542V188.105H412.26V183.542H433.859V188.105H438.267V188.395V188.395ZM412.106 180.641H410.578V179.114V148.254H435.367V179.133V180.661H433.839C433.859 180.641 412.106 180.641 412.106 180.641Z" fill="black"/>
<path d="M469.282 162.098H444.493V179.133H469.282V162.098Z" fill="black"/>
<path d="M467.619 143.536H459.865C458.957 143.536 458.338 144.29 458.338 145.063H455.302C455.302 144.154 454.548 143.536 453.775 143.536H446.021C445.112 143.536 444.493 144.29 444.493 145.063H439.93V178.979V183.542V188.105H444.493V183.542H469.282V188.105H473.845V183.542V178.979V145.063H469.282C469.282 144.309 468.528 143.536 467.619 143.536ZM463.655 150.69C463.655 151.754 462.901 152.508 461.838 152.508C460.774 152.508 460.02 151.754 460.02 150.69C460.02 149.627 460.774 148.872 461.838 148.872C462.746 148.872 463.655 149.627 463.655 150.69ZM467.619 156.007C468.083 156.007 468.373 156.317 468.373 156.762C468.373 157.226 468.064 157.516 467.619 157.516H446.021C445.557 157.516 445.267 157.206 445.267 156.762C445.267 156.297 445.576 156.007 446.021 156.007H467.619ZM455.902 150.69C455.902 151.754 455.147 152.508 454.084 152.508C453.02 152.508 452.266 151.754 452.266 150.69C452.266 149.627 453.02 148.872 454.084 148.872C455.147 148.872 455.902 149.627 455.902 150.69ZM446.33 148.872C447.394 148.872 448.148 149.627 448.148 150.69C448.148 151.754 447.394 152.508 446.33 152.508C445.267 152.508 444.513 151.754 444.513 150.69C444.493 149.627 445.267 148.872 446.33 148.872ZM470.81 180.641H469.282H444.493H442.966V179.114V160.551H470.79V179.114V180.641H470.81ZM469.437 148.872C470.5 148.872 471.254 149.627 471.254 150.69C471.254 151.754 470.5 152.508 469.437 152.508C468.373 152.508 467.619 151.754 467.619 150.69C467.619 149.627 468.528 148.872 469.437 148.872Z" fill="black"/>
<path d="M463.056 112.676V92.6049H449.211V112.676H444.648L438.422 123.465H474L467.774 112.676C467.774 112.676 463.056 112.676 463.056 112.676ZM463.346 119.965C462.282 119.965 461.528 119.211 461.528 118.148C461.528 117.084 462.282 116.33 463.346 116.33C464.409 116.33 465.163 117.084 465.163 118.148C465.183 119.211 464.274 119.965 463.346 119.965Z" fill="black"/>
<path d="M415.141 138.972H421.368C422.276 138.972 422.895 138.218 422.895 137.445C422.895 136.691 422.141 135.917 421.368 135.917H413.614C412.705 135.917 412.086 136.671 412.086 137.445V143.536H415.122V138.972H415.141Z" fill="black"/>
<path d="M399.789 143.536V137.445C399.789 136.536 399.035 135.917 398.261 135.917H390.507C389.599 135.917 388.98 136.671 388.98 137.445C388.98 138.199 389.734 138.972 390.507 138.972H396.734V143.536H399.789Z" fill="black"/>
<path d="M407.388 143.536V134.254C408.296 134.254 408.915 133.5 408.915 132.727C408.915 131.973 408.161 131.199 407.388 131.199V128.164C407.388 127.255 406.634 126.636 405.86 126.636C405.106 126.636 404.333 127.39 404.333 128.164V131.219C403.424 131.219 402.805 131.973 402.805 132.746C402.805 133.5 403.559 134.274 404.333 134.274V143.555H407.388V143.536Z" fill="black"/>
<path d="M432.176 111.148H399.325C401.452 109.33 402.824 106.739 402.824 103.704C402.824 98.3863 398.416 93.9777 393.098 93.9777C387.781 93.9777 383.372 98.367 383.372 103.704C383.372 106.739 384.745 109.33 386.872 111.148H378.19V114.184H432.176V111.148ZM386.563 103.704C386.563 100.204 389.444 97.1682 393.098 97.1682C396.753 97.1682 399.634 100.049 399.634 103.704C399.634 107.358 396.753 110.239 393.098 110.239C389.444 110.239 386.563 107.339 386.563 103.704Z" fill="black"/>
<path d="M393.098 108.576C395.79 108.576 397.971 106.395 397.971 103.704C397.971 101.013 395.79 98.8311 393.098 98.8311C390.407 98.8311 388.226 101.013 388.226 103.704C388.226 106.395 390.407 108.576 393.098 108.576Z" fill="black"/>
<path d="M408.161 109.621H429.759C430.223 109.621 430.513 109.311 430.513 108.866C430.513 108.402 430.204 108.112 429.759 108.112H408.161C407.697 108.112 407.407 108.422 407.407 108.866C407.388 109.33 407.852 109.621 408.161 109.621Z" fill="black"/>
<path d="M409.824 106.585H428.387C428.851 106.585 429.141 106.275 429.141 105.831C429.141 105.367 428.831 105.077 428.387 105.077H409.824C409.36 105.077 409.07 105.386 409.07 105.831C409.07 106.275 409.36 106.585 409.824 106.585Z" fill="black"/>
<path d="M409.824 103.394H428.387C428.851 103.394 429.141 103.085 429.141 102.64C429.141 102.196 428.831 101.886 428.387 101.886H409.824C409.36 101.886 409.07 102.196 409.07 102.64C409.07 103.085 409.36 103.394 409.824 103.394Z" fill="black"/>
<path d="M413.788 100.359H423.359C424.887 100.359 425.796 98.2316 425.796 96.8588C425.796 95.7953 425.331 94.2678 424.577 94.2678H412.57C411.816 94.2678 411.352 95.7953 411.352 96.8588C411.506 98.2316 412.415 100.359 413.788 100.359Z" fill="black"/>
<path d="M331.656 65.0312H326.891L325.82 68H324.273L328.617 56.625H329.93L334.281 68H332.742L331.656 65.0312ZM327.344 63.7969H331.211L329.273 58.4766L327.344 63.7969ZM338.977 66.9766C339.492 66.9766 339.943 66.8203 340.328 66.5078C340.714 66.1953 340.927 65.8047 340.969 65.3359H342.336C342.31 65.8203 342.143 66.2812 341.836 66.7188C341.529 67.1562 341.117 67.5052 340.602 67.7656C340.091 68.026 339.549 68.1562 338.977 68.1562C337.826 68.1562 336.909 67.7734 336.227 67.0078C335.549 66.237 335.211 65.1849 335.211 63.8516V63.6094C335.211 62.7865 335.362 62.0547 335.664 61.4141C335.966 60.7734 336.398 60.276 336.961 59.9219C337.529 59.5677 338.198 59.3906 338.969 59.3906C339.917 59.3906 340.703 59.6745 341.328 60.2422C341.958 60.8099 342.294 61.5469 342.336 62.4531H340.969C340.927 61.9062 340.719 61.4583 340.344 61.1094C339.974 60.7552 339.516 60.5781 338.969 60.5781C338.234 60.5781 337.664 60.8438 337.258 61.375C336.857 61.901 336.656 62.6641 336.656 63.6641V63.9375C336.656 64.9115 336.857 65.6615 337.258 66.1875C337.659 66.7135 338.232 66.9766 338.977 66.9766ZM345.922 57.5V59.5469H347.5V60.6641H345.922V65.9062C345.922 66.2448 345.992 66.5 346.133 66.6719C346.273 66.8385 346.513 66.9219 346.852 66.9219C347.018 66.9219 347.247 66.8906 347.539 66.8281V68C347.159 68.1042 346.789 68.1562 346.43 68.1562C345.784 68.1562 345.297 67.9609 344.969 67.5703C344.641 67.1797 344.477 66.625 344.477 65.9062V60.6641H342.938V59.5469H344.477V57.5H345.922ZM350.766 68H349.32V59.5469H350.766V68ZM349.203 57.3047C349.203 57.0703 349.273 56.8724 349.414 56.7109C349.56 56.5495 349.773 56.4688 350.055 56.4688C350.336 56.4688 350.549 56.5495 350.695 56.7109C350.841 56.8724 350.914 57.0703 350.914 57.3047C350.914 57.5391 350.841 57.7344 350.695 57.8906C350.549 58.0469 350.336 58.125 350.055 58.125C349.773 58.125 349.56 58.0469 349.414 57.8906C349.273 57.7344 349.203 57.5391 349.203 57.3047ZM352.703 63.6953C352.703 62.8672 352.865 62.1224 353.188 61.4609C353.516 60.7995 353.969 60.2891 354.547 59.9297C355.13 59.5703 355.794 59.3906 356.539 59.3906C357.69 59.3906 358.62 59.7891 359.328 60.5859C360.042 61.3828 360.398 62.4427 360.398 63.7656V63.8672C360.398 64.6901 360.24 65.4297 359.922 66.0859C359.609 66.737 359.159 67.2448 358.57 67.6094C357.987 67.974 357.315 68.1562 356.555 68.1562C355.409 68.1562 354.479 67.7578 353.766 66.9609C353.057 66.1641 352.703 65.1094 352.703 63.7969V63.6953ZM354.156 63.8672C354.156 64.8047 354.372 65.5573 354.805 66.125C355.242 66.6927 355.826 66.9766 356.555 66.9766C357.289 66.9766 357.872 66.6901 358.305 66.1172C358.737 65.5391 358.953 64.7318 358.953 63.6953C358.953 62.7682 358.732 62.0182 358.289 61.4453C357.852 60.8672 357.268 60.5781 356.539 60.5781C355.826 60.5781 355.25 60.862 354.812 61.4297C354.375 61.9974 354.156 62.8099 354.156 63.8672ZM363.578 59.5469L363.625 60.6094C364.271 59.7969 365.115 59.3906 366.156 59.3906C367.943 59.3906 368.844 60.3984 368.859 62.4141V68H367.414V62.4062C367.409 61.7969 367.268 61.3464 366.992 61.0547C366.721 60.763 366.297 60.6172 365.719 60.6172C365.25 60.6172 364.839 60.7422 364.484 60.9922C364.13 61.2422 363.854 61.5703 363.656 61.9766V68H362.211V59.5469H363.578Z" fill="black"/>
<path d="M17.5312 136H16.0312V124.625H17.5312V136ZM21.4219 127.547L21.4688 128.609C22.1146 127.797 22.9583 127.391 24 127.391C25.7865 127.391 26.6875 128.398 26.7031 130.414V136H25.2578V130.406C25.2526 129.797 25.112 129.346 24.8359 129.055C24.5651 128.763 24.1406 128.617 23.5625 128.617C23.0938 128.617 22.6823 128.742 22.3281 128.992C21.974 129.242 21.6979 129.57 21.5 129.977V136H20.0547V127.547H21.4219ZM30.4531 136H29.0078V127.547H30.4531V136ZM28.8906 125.305C28.8906 125.07 28.9609 124.872 29.1016 124.711C29.2474 124.549 29.4609 124.469 29.7422 124.469C30.0234 124.469 30.237 124.549 30.3828 124.711C30.5286 124.872 30.6016 125.07 30.6016 125.305C30.6016 125.539 30.5286 125.734 30.3828 125.891C30.237 126.047 30.0234 126.125 29.7422 126.125C29.4609 126.125 29.2474 126.047 29.1016 125.891C28.9609 125.734 28.8906 125.539 28.8906 125.305ZM34.7344 125.5V127.547H36.3125V128.664H34.7344V133.906C34.7344 134.245 34.8047 134.5 34.9453 134.672C35.0859 134.839 35.3255 134.922 35.6641 134.922C35.8307 134.922 36.0599 134.891 36.3516 134.828V136C35.9714 136.104 35.6016 136.156 35.2422 136.156C34.5964 136.156 34.1094 135.961 33.7812 135.57C33.4531 135.18 33.2891 134.625 33.2891 133.906V128.664H31.75V127.547H33.2891V125.5H34.7344ZM39.5781 136H38.1328V127.547H39.5781V136ZM38.0156 125.305C38.0156 125.07 38.0859 124.872 38.2266 124.711C38.3724 124.549 38.5859 124.469 38.8672 124.469C39.1484 124.469 39.362 124.549 39.5078 124.711C39.6536 124.872 39.7266 125.07 39.7266 125.305C39.7266 125.539 39.6536 125.734 39.5078 125.891C39.362 126.047 39.1484 126.125 38.8672 126.125C38.5859 126.125 38.3724 126.047 38.2266 125.891C38.0859 125.734 38.0156 125.539 38.0156 125.305ZM47.1172 136C47.0339 135.833 46.9661 135.536 46.9141 135.109C46.2422 135.807 45.4401 136.156 44.5078 136.156C43.6745 136.156 42.9896 135.922 42.4531 135.453C41.9219 134.979 41.6562 134.38 41.6562 133.656C41.6562 132.776 41.9896 132.094 42.6562 131.609C43.3281 131.12 44.2708 130.875 45.4844 130.875H46.8906V130.211C46.8906 129.706 46.7396 129.305 46.4375 129.008C46.1354 128.706 45.6901 128.555 45.1016 128.555C44.5859 128.555 44.1536 128.685 43.8047 128.945C43.4557 129.206 43.2812 129.521 43.2812 129.891H41.8281C41.8281 129.469 41.9766 129.062 42.2734 128.672C42.5755 128.276 42.9818 127.964 43.4922 127.734C44.0078 127.505 44.5729 127.391 45.1875 127.391C46.1615 127.391 46.9245 127.635 47.4766 128.125C48.0286 128.609 48.3151 129.279 48.3359 130.133V134.023C48.3359 134.799 48.4349 135.417 48.6328 135.875V136H47.1172ZM44.7188 134.898C45.1719 134.898 45.6016 134.781 46.0078 134.547C46.4141 134.312 46.7083 134.008 46.8906 133.633V131.898H45.7578C43.987 131.898 43.1016 132.417 43.1016 133.453C43.1016 133.906 43.2526 134.26 43.5547 134.516C43.8568 134.771 44.2448 134.898 44.7188 134.898ZM52.1719 136H50.7266V124H52.1719V136ZM20.0938 149.93C18.8073 149.56 17.8698 149.107 17.2812 148.57C16.6979 148.029 16.4062 147.362 16.4062 146.57C16.4062 145.674 16.763 144.935 17.4766 144.352C18.1953 143.763 19.1276 143.469 20.2734 143.469C21.0547 143.469 21.75 143.62 22.3594 143.922C22.974 144.224 23.4479 144.641 23.7812 145.172C24.1198 145.703 24.2891 146.284 24.2891 146.914H22.7812C22.7812 146.227 22.5625 145.688 22.125 145.297C21.6875 144.901 21.0703 144.703 20.2734 144.703C19.5339 144.703 18.9557 144.867 18.5391 145.195C18.1276 145.518 17.9219 145.969 17.9219 146.547C17.9219 147.01 18.1172 147.404 18.5078 147.727C18.9036 148.044 19.5729 148.336 20.5156 148.602C21.4635 148.867 22.2031 149.161 22.7344 149.484C23.2708 149.802 23.6667 150.174 23.9219 150.602C24.1823 151.029 24.3125 151.531 24.3125 152.109C24.3125 153.031 23.9531 153.771 23.2344 154.328C22.5156 154.88 21.5547 155.156 20.3516 155.156C19.5703 155.156 18.8411 155.008 18.1641 154.711C17.487 154.409 16.9635 153.997 16.5938 153.477C16.2292 152.956 16.0469 152.365 16.0469 151.703H17.5547C17.5547 152.391 17.8073 152.935 18.3125 153.336C18.8229 153.732 19.5026 153.93 20.3516 153.93C21.1432 153.93 21.75 153.768 22.1719 153.445C22.5938 153.122 22.8047 152.682 22.8047 152.125C22.8047 151.568 22.6094 151.138 22.2188 150.836C21.8281 150.529 21.1198 150.227 20.0938 149.93ZM27.9766 144.5V146.547H29.5547V147.664H27.9766V152.906C27.9766 153.245 28.0469 153.5 28.1875 153.672C28.3281 153.839 28.5677 153.922 28.9062 153.922C29.0729 153.922 29.3021 153.891 29.5938 153.828V155C29.2135 155.104 28.8438 155.156 28.4844 155.156C27.8385 155.156 27.3516 154.961 27.0234 154.57C26.6953 154.18 26.5312 153.625 26.5312 152.906V147.664H24.9922V146.547H26.5312V144.5H27.9766ZM36.4688 155C36.3854 154.833 36.3177 154.536 36.2656 154.109C35.5938 154.807 34.7917 155.156 33.8594 155.156C33.026 155.156 32.3411 154.922 31.8047 154.453C31.2734 153.979 31.0078 153.38 31.0078 152.656C31.0078 151.776 31.3411 151.094 32.0078 150.609C32.6797 150.12 33.6224 149.875 34.8359 149.875H36.2422V149.211C36.2422 148.706 36.0911 148.305 35.7891 148.008C35.487 147.706 35.0417 147.555 34.4531 147.555C33.9375 147.555 33.5052 147.685 33.1562 147.945C32.8073 148.206 32.6328 148.521 32.6328 148.891H31.1797C31.1797 148.469 31.3281 148.062 31.625 147.672C31.9271 147.276 32.3333 146.964 32.8438 146.734C33.3594 146.505 33.9245 146.391 34.5391 146.391C35.513 146.391 36.276 146.635 36.8281 147.125C37.3802 147.609 37.6667 148.279 37.6875 149.133V153.023C37.6875 153.799 37.7865 154.417 37.9844 154.875V155H36.4688ZM34.0703 153.898C34.5234 153.898 34.9531 153.781 35.3594 153.547C35.7656 153.312 36.0599 153.008 36.2422 152.633V150.898H35.1094C33.3385 150.898 32.4531 151.417 32.4531 152.453C32.4531 152.906 32.6042 153.26 32.9062 153.516C33.2083 153.771 33.5964 153.898 34.0703 153.898ZM41.9141 144.5V146.547H43.4922V147.664H41.9141V152.906C41.9141 153.245 41.9844 153.5 42.125 153.672C42.2656 153.839 42.5052 153.922 42.8438 153.922C43.0104 153.922 43.2396 153.891 43.5312 153.828V155C43.151 155.104 42.7812 155.156 42.4219 155.156C41.776 155.156 41.2891 154.961 40.9609 154.57C40.6328 154.18 40.4688 153.625 40.4688 152.906V147.664H38.9297V146.547H40.4688V144.5H41.9141ZM48.6953 155.156C47.5495 155.156 46.6172 154.781 45.8984 154.031C45.1797 153.276 44.8203 152.268 44.8203 151.008V150.742C44.8203 149.904 44.9792 149.156 45.2969 148.5C45.6198 147.839 46.0677 147.323 46.6406 146.953C47.2188 146.578 47.8438 146.391 48.5156 146.391C49.6146 146.391 50.4688 146.753 51.0781 147.477C51.6875 148.201 51.9922 149.237 51.9922 150.586V151.188H46.2656C46.2865 152.021 46.5286 152.695 46.9922 153.211C47.4609 153.721 48.0547 153.977 48.7734 153.977C49.2839 153.977 49.7161 153.872 50.0703 153.664C50.4245 153.456 50.7344 153.18 51 152.836L51.8828 153.523C51.1745 154.612 50.112 155.156 48.6953 155.156ZM48.5156 147.578C47.9323 147.578 47.4427 147.792 47.0469 148.219C46.651 148.641 46.4062 149.234 46.3125 150H50.5469V149.891C50.5052 149.156 50.3073 148.589 49.9531 148.188C49.599 147.781 49.1198 147.578 48.5156 147.578Z" fill="black"/>
<path d="M296.648 298.398H293.977V303H292.469V291.625H296.234C297.516 291.625 298.5 291.917 299.188 292.5C299.88 293.083 300.227 293.932 300.227 295.047C300.227 295.755 300.034 296.372 299.648 296.898C299.268 297.424 298.737 297.818 298.055 298.078L300.727 302.906V303H299.117L296.648 298.398ZM293.977 297.172H296.281C297.026 297.172 297.617 296.979 298.055 296.594C298.497 296.208 298.719 295.693 298.719 295.047C298.719 294.344 298.508 293.805 298.086 293.43C297.669 293.055 297.065 292.865 296.273 292.859H293.977V297.172ZM305.617 303.156C304.471 303.156 303.539 302.781 302.82 302.031C302.102 301.276 301.742 300.268 301.742 299.008V298.742C301.742 297.904 301.901 297.156 302.219 296.5C302.542 295.839 302.99 295.323 303.562 294.953C304.141 294.578 304.766 294.391 305.438 294.391C306.536 294.391 307.391 294.753 308 295.477C308.609 296.201 308.914 297.237 308.914 298.586V299.188H303.188C303.208 300.021 303.451 300.695 303.914 301.211C304.383 301.721 304.977 301.977 305.695 301.977C306.206 301.977 306.638 301.872 306.992 301.664C307.346 301.456 307.656 301.18 307.922 300.836L308.805 301.523C308.096 302.612 307.034 303.156 305.617 303.156ZM305.438 295.578C304.854 295.578 304.365 295.792 303.969 296.219C303.573 296.641 303.328 297.234 303.234 298H307.469V297.891C307.427 297.156 307.229 296.589 306.875 296.188C306.521 295.781 306.042 295.578 305.438 295.578ZM315.516 300.758C315.516 300.367 315.367 300.065 315.07 299.852C314.779 299.633 314.266 299.445 313.531 299.289C312.802 299.133 312.221 298.945 311.789 298.727C311.362 298.508 311.044 298.247 310.836 297.945C310.633 297.643 310.531 297.284 310.531 296.867C310.531 296.174 310.823 295.589 311.406 295.109C311.995 294.63 312.745 294.391 313.656 294.391C314.615 294.391 315.391 294.638 315.984 295.133C316.583 295.628 316.883 296.26 316.883 297.031H315.43C315.43 296.635 315.26 296.294 314.922 296.008C314.589 295.721 314.167 295.578 313.656 295.578C313.13 295.578 312.719 295.693 312.422 295.922C312.125 296.151 311.977 296.451 311.977 296.82C311.977 297.169 312.115 297.432 312.391 297.609C312.667 297.786 313.164 297.956 313.883 298.117C314.607 298.279 315.193 298.471 315.641 298.695C316.089 298.919 316.419 299.19 316.633 299.508C316.852 299.82 316.961 300.203 316.961 300.656C316.961 301.411 316.659 302.018 316.055 302.477C315.451 302.93 314.667 303.156 313.703 303.156C313.026 303.156 312.427 303.036 311.906 302.797C311.385 302.557 310.977 302.224 310.68 301.797C310.388 301.365 310.242 300.898 310.242 300.398H311.688C311.714 300.883 311.906 301.268 312.266 301.555C312.63 301.836 313.109 301.977 313.703 301.977C314.25 301.977 314.688 301.867 315.016 301.648C315.349 301.424 315.516 301.128 315.516 300.758ZM324.062 303C323.979 302.833 323.911 302.536 323.859 302.109C323.188 302.807 322.385 303.156 321.453 303.156C320.62 303.156 319.935 302.922 319.398 302.453C318.867 301.979 318.602 301.38 318.602 300.656C318.602 299.776 318.935 299.094 319.602 298.609C320.273 298.12 321.216 297.875 322.43 297.875H323.836V297.211C323.836 296.706 323.685 296.305 323.383 296.008C323.081 295.706 322.635 295.555 322.047 295.555C321.531 295.555 321.099 295.685 320.75 295.945C320.401 296.206 320.227 296.521 320.227 296.891H318.773C318.773 296.469 318.922 296.062 319.219 295.672C319.521 295.276 319.927 294.964 320.438 294.734C320.953 294.505 321.518 294.391 322.133 294.391C323.107 294.391 323.87 294.635 324.422 295.125C324.974 295.609 325.26 296.279 325.281 297.133V301.023C325.281 301.799 325.38 302.417 325.578 302.875V303H324.062ZM321.664 301.898C322.117 301.898 322.547 301.781 322.953 301.547C323.359 301.312 323.654 301.008 323.836 300.633V298.898H322.703C320.932 298.898 320.047 299.417 320.047 300.453C320.047 300.906 320.198 301.26 320.5 301.516C320.802 301.771 321.19 301.898 321.664 301.898ZM328.906 294.547L328.945 295.484C329.565 294.755 330.401 294.391 331.453 294.391C332.635 294.391 333.44 294.844 333.867 295.75C334.148 295.344 334.513 295.016 334.961 294.766C335.414 294.516 335.948 294.391 336.562 294.391C338.417 294.391 339.359 295.372 339.391 297.336V303H337.945V297.422C337.945 296.818 337.807 296.367 337.531 296.07C337.255 295.768 336.792 295.617 336.141 295.617C335.604 295.617 335.159 295.779 334.805 296.102C334.451 296.419 334.245 296.849 334.188 297.391V303H332.734V297.461C332.734 296.232 332.133 295.617 330.93 295.617C329.982 295.617 329.333 296.021 328.984 296.828V303H327.539V294.547H328.906ZM348.719 298.867C348.719 300.154 348.424 301.19 347.836 301.977C347.247 302.763 346.451 303.156 345.445 303.156C344.419 303.156 343.612 302.831 343.023 302.18V306.25H341.578V294.547H342.898L342.969 295.484C343.557 294.755 344.375 294.391 345.422 294.391C346.438 294.391 347.24 294.773 347.828 295.539C348.422 296.305 348.719 297.37 348.719 298.734V298.867ZM347.273 298.703C347.273 297.75 347.07 296.997 346.664 296.445C346.258 295.893 345.701 295.617 344.992 295.617C344.117 295.617 343.461 296.005 343.023 296.781V300.82C343.456 301.591 344.117 301.977 345.008 301.977C345.701 301.977 346.25 301.703 346.656 301.156C347.068 300.604 347.273 299.786 347.273 298.703ZM352.133 303H350.688V291H352.133V303ZM357.961 303.156C356.815 303.156 355.883 302.781 355.164 302.031C354.445 301.276 354.086 300.268 354.086 299.008V298.742C354.086 297.904 354.245 297.156 354.562 296.5C354.885 295.839 355.333 295.323 355.906 294.953C356.484 294.578 357.109 294.391 357.781 294.391C358.88 294.391 359.734 294.753 360.344 295.477C360.953 296.201 361.258 297.237 361.258 298.586V299.188H355.531C355.552 300.021 355.794 300.695 356.258 301.211C356.727 301.721 357.32 301.977 358.039 301.977C358.549 301.977 358.982 301.872 359.336 301.664C359.69 301.456 360 301.18 360.266 300.836L361.148 301.523C360.44 302.612 359.378 303.156 357.961 303.156ZM357.781 295.578C357.198 295.578 356.708 295.792 356.312 296.219C355.917 296.641 355.672 297.234 355.578 298H359.812V297.891C359.771 297.156 359.573 296.589 359.219 296.188C358.865 295.781 358.385 295.578 357.781 295.578Z" fill="black"/>
<path d="M504.945 128.547V133H503.445V121.625H507.641C508.885 121.625 509.859 121.943 510.562 122.578C511.271 123.214 511.625 124.055 511.625 125.102C511.625 126.206 511.279 127.057 510.586 127.656C509.898 128.25 508.911 128.547 507.625 128.547H504.945ZM504.945 127.32H507.641C508.443 127.32 509.057 127.133 509.484 126.758C509.911 126.378 510.125 125.831 510.125 125.117C510.125 124.44 509.911 123.898 509.484 123.492C509.057 123.086 508.471 122.875 507.727 122.859H504.945V127.32ZM513.258 128.383C513.258 127.206 513.414 126.076 513.727 124.992C514.044 123.909 514.516 122.924 515.141 122.039C515.766 121.154 516.414 120.529 517.086 120.164L517.383 121.117C516.622 121.701 515.997 122.591 515.508 123.789C515.023 124.987 514.758 126.328 514.711 127.812L514.703 128.477C514.703 130.487 515.07 132.232 515.805 133.711C516.247 134.596 516.773 135.289 517.383 135.789L517.086 136.672C516.393 136.286 515.732 135.641 515.102 134.734C513.872 132.964 513.258 130.846 513.258 128.383ZM519.922 130.625C519.922 131.026 520.112 131.354 520.492 131.609C520.878 131.865 521.378 131.992 521.992 131.992C522.581 131.992 523.076 131.849 523.477 131.562C523.883 131.276 524.086 130.922 524.086 130.5H525.531C525.531 131.307 525.198 131.953 524.531 132.438C523.87 132.917 523.023 133.156 521.992 133.156C520.93 133.156 520.076 132.927 519.43 132.469C518.784 132.005 518.461 131.391 518.461 130.625C518.461 129.656 518.995 129 520.062 128.656C519.604 128.469 519.247 128.216 518.992 127.898C518.737 127.581 518.609 127.232 518.609 126.852C518.609 126.081 518.909 125.479 519.508 125.047C520.112 124.615 520.94 124.398 521.992 124.398C522.961 124.398 523.768 124.633 524.414 125.102C525.065 125.565 525.391 126.167 525.391 126.906H523.945C523.945 126.542 523.758 126.229 523.383 125.969C523.013 125.703 522.549 125.57 521.992 125.57C521.409 125.57 520.94 125.69 520.586 125.93C520.237 126.164 520.062 126.474 520.062 126.859C520.062 127.693 520.698 128.109 521.969 128.109H523.5V129.266H521.75C520.531 129.297 519.922 129.75 519.922 130.625ZM530.742 128.461C530.742 129.622 530.589 130.737 530.281 131.805C529.979 132.867 529.513 133.849 528.883 134.75C528.258 135.651 527.602 136.292 526.914 136.672L526.609 135.789C527.411 135.174 528.055 134.221 528.539 132.93C529.029 131.633 529.279 130.195 529.289 128.617V128.367C529.289 127.273 529.174 126.258 528.945 125.32C528.716 124.378 528.396 123.534 527.984 122.789C527.578 122.044 527.12 121.464 526.609 121.047L526.914 120.164C527.602 120.544 528.255 121.18 528.875 122.07C529.5 122.961 529.966 123.943 530.273 125.016C530.586 126.089 530.742 127.237 530.742 128.461Z" fill="#FF0000"/>
<path d="M404.242 207.547V212H402.742V200.625H406.938C408.182 200.625 409.156 200.943 409.859 201.578C410.568 202.214 410.922 203.055 410.922 204.102C410.922 205.206 410.576 206.057 409.883 206.656C409.195 207.25 408.208 207.547 406.922 207.547H404.242ZM404.242 206.32H406.938C407.74 206.32 408.354 206.133 408.781 205.758C409.208 205.378 409.422 204.831 409.422 204.117C409.422 203.44 409.208 202.898 408.781 202.492C408.354 202.086 407.768 201.875 407.023 201.859H404.242V206.32ZM412.555 207.383C412.555 206.206 412.711 205.076 413.023 203.992C413.341 202.909 413.812 201.924 414.438 201.039C415.062 200.154 415.711 199.529 416.383 199.164L416.68 200.117C415.919 200.701 415.294 201.591 414.805 202.789C414.32 203.987 414.055 205.328 414.008 206.812L414 207.477C414 209.487 414.367 211.232 415.102 212.711C415.544 213.596 416.07 214.289 416.68 214.789L416.383 215.672C415.69 215.286 415.029 214.641 414.398 213.734C413.169 211.964 412.555 209.846 412.555 207.383ZM422.68 212H421.227V202.367L418.312 203.438V202.125L422.453 200.57H422.68V212ZM430.07 207.758H426.258V206.578H430.07V207.758ZM432.625 209.625C432.625 210.026 432.815 210.354 433.195 210.609C433.581 210.865 434.081 210.992 434.695 210.992C435.284 210.992 435.779 210.849 436.18 210.562C436.586 210.276 436.789 209.922 436.789 209.5H438.234C438.234 210.307 437.901 210.953 437.234 211.438C436.573 211.917 435.727 212.156 434.695 212.156C433.633 212.156 432.779 211.927 432.133 211.469C431.487 211.005 431.164 210.391 431.164 209.625C431.164 208.656 431.698 208 432.766 207.656C432.307 207.469 431.951 207.216 431.695 206.898C431.44 206.581 431.312 206.232 431.312 205.852C431.312 205.081 431.612 204.479 432.211 204.047C432.815 203.615 433.643 203.398 434.695 203.398C435.664 203.398 436.471 203.633 437.117 204.102C437.768 204.565 438.094 205.167 438.094 205.906H436.648C436.648 205.542 436.461 205.229 436.086 204.969C435.716 204.703 435.253 204.57 434.695 204.57C434.112 204.57 433.643 204.69 433.289 204.93C432.94 205.164 432.766 205.474 432.766 205.859C432.766 206.693 433.401 207.109 434.672 207.109H436.203V208.266H434.453C433.234 208.297 432.625 208.75 432.625 209.625ZM443.445 207.461C443.445 208.622 443.292 209.737 442.984 210.805C442.682 211.867 442.216 212.849 441.586 213.75C440.961 214.651 440.305 215.292 439.617 215.672L439.312 214.789C440.115 214.174 440.758 213.221 441.242 211.93C441.732 210.633 441.982 209.195 441.992 207.617V207.367C441.992 206.273 441.878 205.258 441.648 204.32C441.419 203.378 441.099 202.534 440.688 201.789C440.281 201.044 439.823 200.464 439.312 200.047L439.617 199.164C440.305 199.544 440.958 200.18 441.578 201.07C442.203 201.961 442.669 202.943 442.977 204.016C443.289 205.089 443.445 206.237 443.445 207.461Z" fill="#FF0000"/>
<path d="M295.833 222.296C294.386 221.88 293.331 221.37 292.669 220.767C292.013 220.157 291.685 219.407 291.685 218.517C291.685 217.509 292.086 216.677 292.889 216.021C293.697 215.358 294.746 215.027 296.035 215.027C296.914 215.027 297.696 215.197 298.382 215.537C299.073 215.877 299.606 216.346 299.981 216.943C300.362 217.541 300.553 218.194 300.553 218.903H298.856C298.856 218.13 298.61 217.523 298.118 217.084C297.626 216.639 296.932 216.416 296.035 216.416C295.203 216.416 294.553 216.601 294.084 216.97C293.621 217.333 293.39 217.84 293.39 218.49C293.39 219.012 293.609 219.454 294.049 219.817C294.494 220.175 295.247 220.503 296.308 220.802C297.374 221.101 298.206 221.432 298.804 221.795C299.407 222.152 299.853 222.571 300.14 223.052C300.433 223.532 300.579 224.098 300.579 224.748C300.579 225.785 300.175 226.617 299.366 227.244C298.558 227.865 297.477 228.176 296.123 228.176C295.244 228.176 294.424 228.009 293.662 227.675C292.9 227.335 292.312 226.872 291.896 226.286C291.485 225.7 291.28 225.035 291.28 224.291H292.977C292.977 225.064 293.261 225.677 293.829 226.128C294.403 226.573 295.168 226.796 296.123 226.796C297.014 226.796 297.696 226.614 298.171 226.251C298.646 225.888 298.883 225.393 298.883 224.766C298.883 224.139 298.663 223.655 298.224 223.315C297.784 222.97 296.987 222.63 295.833 222.296ZM304.701 216.188V218.49H306.477V219.747H304.701V225.645C304.701 226.025 304.78 226.312 304.938 226.506C305.097 226.693 305.366 226.787 305.747 226.787C305.935 226.787 306.192 226.752 306.521 226.682V228C306.093 228.117 305.677 228.176 305.272 228.176C304.546 228.176 303.998 227.956 303.629 227.517C303.26 227.077 303.075 226.453 303.075 225.645V219.747H301.344V218.49H303.075V216.188H304.701ZM314.255 228C314.161 227.812 314.085 227.479 314.026 226.998C313.271 227.783 312.368 228.176 311.319 228.176C310.382 228.176 309.611 227.912 309.008 227.385C308.41 226.852 308.111 226.178 308.111 225.363C308.111 224.373 308.486 223.605 309.236 223.061C309.992 222.51 311.053 222.234 312.418 222.234H314V221.487C314 220.919 313.83 220.468 313.49 220.134C313.15 219.794 312.649 219.624 311.987 219.624C311.407 219.624 310.921 219.771 310.528 220.063C310.136 220.356 309.939 220.711 309.939 221.127H308.305C308.305 220.652 308.472 220.195 308.806 219.756C309.146 219.311 309.603 218.959 310.177 218.701C310.757 218.443 311.393 218.314 312.084 218.314C313.18 218.314 314.038 218.59 314.659 219.141C315.28 219.686 315.603 220.438 315.626 221.399V225.776C315.626 226.649 315.737 227.344 315.96 227.859V228H314.255ZM311.557 226.761C312.066 226.761 312.55 226.629 313.007 226.365C313.464 226.102 313.795 225.759 314 225.337V223.386H312.726C310.733 223.386 309.737 223.969 309.737 225.135C309.737 225.645 309.907 226.043 310.247 226.33C310.587 226.617 311.023 226.761 311.557 226.761ZM320.381 216.188V218.49H322.156V219.747H320.381V225.645C320.381 226.025 320.46 226.312 320.618 226.506C320.776 226.693 321.046 226.787 321.427 226.787C321.614 226.787 321.872 226.752 322.2 226.682V228C321.772 228.117 321.356 228.176 320.952 228.176C320.226 228.176 319.678 227.956 319.309 227.517C318.939 227.077 318.755 226.453 318.755 225.645V219.747H317.023V218.49H318.755V216.188H320.381ZM328.01 228.176C326.721 228.176 325.672 227.754 324.863 226.91C324.055 226.061 323.65 224.927 323.65 223.509V223.21C323.65 222.267 323.829 221.426 324.187 220.688C324.55 219.943 325.054 219.363 325.698 218.947C326.349 218.525 327.052 218.314 327.808 218.314C329.044 218.314 330.005 218.722 330.69 219.536C331.376 220.351 331.719 221.517 331.719 223.034V223.711H325.276C325.3 224.648 325.572 225.407 326.094 225.987C326.621 226.562 327.289 226.849 328.098 226.849C328.672 226.849 329.158 226.731 329.557 226.497C329.955 226.263 330.304 225.952 330.603 225.565L331.596 226.339C330.799 227.563 329.604 228.176 328.01 228.176ZM327.808 219.65C327.151 219.65 326.601 219.891 326.155 220.371C325.71 220.846 325.435 221.514 325.329 222.375H330.093V222.252C330.046 221.426 329.823 220.787 329.425 220.336C329.026 219.879 328.487 219.65 327.808 219.65ZM333.556 230.549L332.633 229.916C333.184 229.148 333.471 228.357 333.494 227.543V226.075H335.085V227.35C335.085 227.941 334.938 228.533 334.646 229.125C334.358 229.717 333.995 230.191 333.556 230.549ZM346.555 222.823H343.549V228H341.853V215.203H346.089C347.53 215.203 348.638 215.531 349.411 216.188C350.19 216.844 350.58 217.799 350.58 219.053C350.58 219.85 350.363 220.544 349.93 221.136C349.502 221.728 348.904 222.17 348.137 222.463L351.143 227.895V228H349.332L346.555 222.823ZM343.549 221.443H346.142C346.979 221.443 347.645 221.227 348.137 220.793C348.635 220.359 348.884 219.779 348.884 219.053C348.884 218.262 348.646 217.655 348.172 217.233C347.703 216.812 347.023 216.598 346.133 216.592H343.549V221.443ZM356.645 228.176C355.355 228.176 354.307 227.754 353.498 226.91C352.689 226.061 352.285 224.927 352.285 223.509V223.21C352.285 222.267 352.464 221.426 352.821 220.688C353.185 219.943 353.688 219.363 354.333 218.947C354.983 218.525 355.687 218.314 356.442 218.314C357.679 218.314 358.64 218.722 359.325 219.536C360.011 220.351 360.354 221.517 360.354 223.034V223.711H353.911C353.935 224.648 354.207 225.407 354.729 225.987C355.256 226.562 355.924 226.849 356.732 226.849C357.307 226.849 357.793 226.731 358.191 226.497C358.59 226.263 358.938 225.952 359.237 225.565L360.23 226.339C359.434 227.563 358.238 228.176 356.645 228.176ZM356.442 219.65C355.786 219.65 355.235 219.891 354.79 220.371C354.345 220.846 354.069 221.514 353.964 222.375H358.728V222.252C358.681 221.426 358.458 220.787 358.06 220.336C357.661 219.879 357.122 219.65 356.442 219.65ZM370.663 225.759L372.491 218.49H374.117L371.349 228H370.03L367.719 220.793L365.469 228H364.15L361.391 218.49H363.008L364.88 225.609L367.095 218.49H368.404L370.663 225.759ZM381.649 228C381.556 227.812 381.479 227.479 381.421 226.998C380.665 227.783 379.763 228.176 378.714 228.176C377.776 228.176 377.006 227.912 376.402 227.385C375.805 226.852 375.506 226.178 375.506 225.363C375.506 224.373 375.881 223.605 376.631 223.061C377.387 222.51 378.447 222.234 379.812 222.234H381.395V221.487C381.395 220.919 381.225 220.468 380.885 220.134C380.545 219.794 380.044 219.624 379.382 219.624C378.802 219.624 378.315 219.771 377.923 220.063C377.53 220.356 377.334 220.711 377.334 221.127H375.699C375.699 220.652 375.866 220.195 376.2 219.756C376.54 219.311 376.997 218.959 377.571 218.701C378.151 218.443 378.787 218.314 379.479 218.314C380.574 218.314 381.433 218.59 382.054 219.141C382.675 219.686 382.997 220.438 383.021 221.399V225.776C383.021 226.649 383.132 227.344 383.354 227.859V228H381.649ZM378.951 226.761C379.461 226.761 379.944 226.629 380.401 226.365C380.858 226.102 381.189 225.759 381.395 225.337V223.386H380.12C378.128 223.386 377.132 223.969 377.132 225.135C377.132 225.645 377.302 226.043 377.642 226.33C377.981 226.617 378.418 226.761 378.951 226.761ZM390.166 219.949C389.92 219.908 389.653 219.888 389.366 219.888C388.3 219.888 387.576 220.342 387.195 221.25V228H385.569V218.49H387.151L387.178 219.589C387.711 218.739 388.467 218.314 389.445 218.314C389.762 218.314 390.002 218.355 390.166 218.438V219.949ZM391.098 223.166C391.098 221.707 391.443 220.535 392.135 219.65C392.826 218.76 393.731 218.314 394.851 218.314C395.964 218.314 396.846 218.695 397.496 219.457V214.5H399.122V228H397.628L397.549 226.98C396.898 227.777 395.993 228.176 394.833 228.176C393.731 228.176 392.832 227.725 392.135 226.822C391.443 225.92 391.098 224.742 391.098 223.289V223.166ZM392.724 223.351C392.724 224.429 392.946 225.272 393.392 225.882C393.837 226.491 394.452 226.796 395.237 226.796C396.269 226.796 397.021 226.333 397.496 225.407V221.039C397.01 220.143 396.263 219.694 395.255 219.694C394.458 219.694 393.837 220.002 393.392 220.617C392.946 221.232 392.724 222.144 392.724 223.351Z" fill="black"/>
<path d="M157.061 141.061C157.646 140.475 157.646 139.525 157.061 138.939L147.515 129.393C146.929 128.808 145.979 128.808 145.393 129.393C144.808 129.979 144.808 130.929 145.393 131.515L153.879 140L145.393 148.485C144.808 149.071 144.808 150.021 145.393 150.607C145.979 151.192 146.929 151.192 147.515 150.607L157.061 141.061ZM59 141.5H156V138.5H59V141.5Z" fill="black"/>
<path d="M367.439 297.939C366.854 298.525 366.854 299.475 367.439 300.061L376.985 309.606C377.571 310.192 378.521 310.192 379.107 309.606C379.692 309.021 379.692 308.071 379.107 307.485L370.621 299L379.107 290.515C379.692 289.929 379.692 288.979 379.107 288.393C378.521 287.807 377.571 287.807 376.985 288.393L367.439 297.939ZM592.1 299L592.1 300.5L593.6 300.5L593.6 299L592.1 299ZM590.601 139L590.601 142.077L593.601 142.077L593.601 139L590.601 139ZM590.601 148.231L590.601 154.385L593.601 154.385L593.601 148.231L590.601 148.231ZM590.601 160.538L590.601 166.692L593.601 166.692L593.601 160.538L590.601 160.538ZM590.601 172.846L590.601 179L593.601 179L593.601 172.846L590.601 172.846ZM590.601 185.154L590.601 191.308L593.601 191.308L593.601 185.154L590.601 185.154ZM590.601 197.461L590.601 203.615L593.601 203.615L593.601 197.461L590.601 197.461ZM590.601 209.769L590.601 215.923L593.601 215.923L593.601 209.769L590.601 209.769ZM590.601 222.077L590.601 228.231L593.601 228.231L593.601 222.077L590.601 222.077ZM590.601 234.385L590.601 240.538L593.601 240.538L593.601 234.385L590.601 234.385ZM590.601 246.692L590.601 252.846L593.601 252.846L593.601 246.692L590.601 246.692ZM590.601 259L590.601 265.154L593.601 265.154L593.601 259L590.601 259ZM590.601 271.308L590.601 277.461L593.601 277.461L593.601 271.308L590.601 271.308ZM590.601 283.615L590.601 289.769L593.601 289.769L593.601 283.615L590.601 283.615ZM590.601 295.923L590.6 299L593.6 299L593.601 295.923L590.601 295.923ZM592.1 297.5L589.158 297.5L589.158 300.5L592.1 300.5L592.1 297.5ZM583.274 297.5L577.39 297.5L577.39 300.5L583.274 300.5L583.274 297.5ZM571.506 297.5L565.621 297.5L565.621 300.5L571.506 300.5L571.506 297.5ZM559.737 297.5L553.853 297.5L553.853 300.5L559.737 300.5L559.737 297.5ZM547.969 297.5L542.085 297.5L542.085 300.5L547.969 300.5L547.969 297.5ZM536.2 297.5L530.316 297.5L530.316 300.5L536.2 300.5L536.2 297.5ZM524.432 297.5L518.548 297.5L518.548 300.5L524.432 300.5L524.432 297.5ZM512.663 297.5L506.779 297.5L506.779 300.5L512.663 300.5L512.663 297.5ZM500.895 297.5L495.011 297.5L495.011 300.5L500.895 300.5L500.895 297.5ZM489.127 297.5L483.242 297.5L483.242 300.5L489.127 300.5L489.127 297.5ZM477.358 297.5L471.474 297.5L471.474 300.5L477.358 300.5L477.358 297.5ZM465.59 297.5L459.705 297.5L459.705 300.5L465.59 300.5L465.59 297.5ZM453.821 297.5L447.937 297.5L447.937 300.5L453.821 300.5L453.821 297.5ZM442.053 297.5L436.169 297.5L436.169 300.5L442.053 300.5L442.053 297.5ZM430.284 297.5L424.4 297.5L424.4 300.5L430.284 300.5L430.284 297.5ZM418.516 297.5L412.632 297.5L412.632 300.5L418.516 300.5L418.516 297.5ZM406.748 297.5L400.863 297.5L400.863 300.5L406.748 300.5L406.748 297.5ZM394.979 297.5L389.095 297.5L389.095 300.5L394.979 300.5L394.979 297.5ZM383.211 297.5L377.326 297.5L377.326 300.5L383.211 300.5L383.211 297.5ZM371.442 297.5L368.5 297.5L368.5 300.5L371.442 300.5L371.442 297.5Z" fill="black"/>
<path d="M496 140L593 140" stroke="black" stroke-width="3" stroke-dasharray="6 6"/>
<path d="M33.5607 165.439C32.9749 164.854 32.0251 164.854 31.4393 165.439L21.8934 174.985C21.3076 175.571 21.3076 176.521 21.8934 177.107C22.4792 177.692 23.4289 177.692 24.0147 177.107L32.5 168.621L40.9853 177.107C41.5711 177.692 42.5208 177.692 43.1066 177.107C43.6924 176.521 43.6924 175.571 43.1066 174.985L33.5607 165.439ZM32.5 299L31 299L31 300.5L32.5 300.5L32.5 299ZM286 297.5L282.982 297.5L282.982 300.5L286 300.5V297.5ZM276.946 297.5L270.911 297.5L270.911 300.5L276.946 300.5L276.946 297.5ZM264.875 297.5L258.839 297.5L258.839 300.5L264.875 300.5L264.875 297.5ZM252.804 297.5L246.768 297.5L246.768 300.5L252.804 300.5L252.804 297.5ZM240.732 297.5L234.696 297.5L234.696 300.5L240.732 300.5L240.732 297.5ZM228.661 297.5L222.625 297.5L222.625 300.5L228.661 300.5L228.661 297.5ZM216.589 297.5L210.554 297.5L210.554 300.5L216.589 300.5L216.589 297.5ZM204.518 297.5L198.482 297.5L198.482 300.5L204.518 300.5L204.518 297.5ZM192.446 297.5L186.411 297.5L186.411 300.5L192.446 300.5L192.446 297.5ZM180.375 297.5L174.339 297.5L174.339 300.5L180.375 300.5L180.375 297.5ZM168.304 297.5L162.268 297.5L162.268 300.5L168.304 300.5L168.304 297.5ZM156.232 297.5L150.196 297.5L150.196 300.5L156.232 300.5L156.232 297.5ZM144.161 297.5L138.125 297.5L138.125 300.5L144.161 300.5L144.161 297.5ZM132.089 297.5L126.054 297.5L126.054 300.5L132.089 300.5L132.089 297.5ZM120.018 297.5L113.982 297.5L113.982 300.5L120.018 300.5L120.018 297.5ZM107.946 297.5L101.911 297.5L101.911 300.5L107.946 300.5L107.946 297.5ZM95.875 297.5L89.8392 297.5L89.8392 300.5L95.875 300.5L95.875 297.5ZM83.8035 297.5L77.7678 297.5L77.7678 300.5L83.8035 300.5L83.8035 297.5ZM71.7321 297.5L65.6963 297.5L65.6964 300.5L71.7321 300.5L71.7321 297.5ZM59.6606 297.5L53.6249 297.5L53.6249 300.5L59.6606 300.5L59.6606 297.5ZM47.5892 297.5L41.5535 297.5L41.5535 300.5L47.5892 300.5L47.5892 297.5ZM35.5177 297.5L32.5 297.5L32.5 300.5L35.5177 300.5L35.5177 297.5ZM34 299L34 295.989L31 295.989L31 299L34 299ZM34 289.966L34 283.943L31 283.943L31 289.966L34 289.966ZM34 277.92L34 271.898L31 271.898L31 277.92L34 277.92ZM34 265.875L34 259.852L31 259.852L31 265.875L34 265.875ZM34 253.83L34 247.807L31 247.807L31 253.83L34 253.83ZM34 241.784L34 235.761L31 235.761L31 241.784L34 241.784ZM34 229.739L34 223.716L31 223.716L31 229.739L34 229.739ZM34 217.693L34 211.67L31 211.67L31 217.693L34 217.693ZM34 205.648L34 199.625L31 199.625L31 205.648L34 205.648ZM34 193.602L34 187.58L31 187.58L31 193.602L34 193.602ZM34 181.557L34 175.534L31 175.534L31 181.557L34 181.557ZM34 169.511L34 166.5L31 166.5L31 169.511L34 169.511Z" fill="black"/>
</svg>
