<?xml version="1.0" encoding="UTF-8"?>
<!DOCTYPE svg  PUBLIC '-//W3C//DTD SVG 1.1//EN'  'http://www.w3.org/Graphics/SVG/1.1/DTD/svg11.dtd'>
<svg enable-background="new 0 0 1920 1920" version="1.1" viewBox="0 0 1920 1920" xml:space="preserve" xmlns="http://www.w3.org/2000/svg">
	<g fill="#D93F00">
		<path d="m1885.9 541.3c-8.8499 1.33-17.89 1.6599-26.51 4.21-10.39 3.0601-20.47 7.04-30.64 10.73-1.1802 0.65-2.3501 1.29-3.51 1.9-13.57 7.22-25.58 16.97-37.25 26.88-12.72 11.62-26.04 22.57-38.4 34.58-13.16 12.52-27.05 24.25-39.82 37.17-7.99 7.72-14.99 16.37-22.36 24.66-12.25 13.73-23.84 28.02-36.17 41.67-9.1899 9.87-17.95 20.12-26.98 30.13-1.73 1.83-3.52 3.98-6.2 4.21 10.07 4.04 19.86 8.78 29.29 14.18 19.18 10.05 37.8 21.17 55.82 33.18 12.73 8.41 26.41 15.25 40.11 21.94 10.68 5.3 22.25 8.32 33.36 12.58 7.5698 2.61 14.88 5.93 22.48 8.49 8.3599 2.8 16.77 5.47 25.24 7.92 10.08 2.96 19.7 7.22 29.73 10.31 11.8 3.76 23.51 8.05 35.75 10.22 10.09 1.88 20.19 3.8 30.16 6.31v-347.87c-11.43 1.93-22.57 5.28-34.1 6.6z"/>
		<path d="m1032 754.89c-19.99-4.55-40.5-6.29-60.94-7.29-22.87-0.12-45.81-3.06-67.65-10.01-15.12-4.9001-30.76-7.7401-46.35-10.63-11.81-2-23.23-5.6899-34.99-7.96-7.8501-1.6799-15.55-4.05-23.43-5.5901-18.25-3.2899-35.33-10.78-52.48-17.53-5.89-2.2001-11.92-3.98-17.79-6.1901-9.9401-3.47-19.3-8.3599-29.22-11.89-16.56-5.8101-31.63-15.07-46.18-24.73-13.49-10.07-27.32-19.73-41.87-28.21-13.63-8.6901-28.1-16.21-43.46-21.32-6.23-2.05-12.3-4.51-18.48-6.6901-9.8-3.41-18.64-9.0299-28.41-12.5-9.33-3.2599-18.16-7.92-27.77-10.34-8.83-2.51-17.97-3.6699-27.09-4.37-8.26-0.4-16.54 0.1901-24.79-0.4401-9.02-0.72-18.09-0.3999-27.1-1.23-6.54-0.5699-13.15-0.54-19.64 0.48-12.26 1.8901-24.57 3.8301-36.46 7.4401-9.75 2.7899-18.93 7.17-28.5 10.47-9.67 3.42-18.82 8.15-28.52 11.49-7.9 2.66-15.59 5.9-23.48 8.5699-7.82 2.6001-15.55 5.53-23.06 8.9202-9.56 4.6499-19.59 8.22-29.18 12.8-9.3 4.47-19.43 6.62-29.16 9.89-10.97 3.62-22.25 6.24-33.59 8.3999-9.06 1.5-18.29 1.28-27.37 2.6001-16.15 1.24-32.36 1.45-48.49 2.97 15.05 10.18 29.07 21.81 42.88 33.6 8.2 7.08 15.51 15.13 23.73 22.21 13.43 12.99 27.29 25.62 42.47 36.56 15.91 10.95 32.96 20.12 48.62 31.46 13.43 9.11 26.26 19.07 39.6 28.33 14.24 10.33 30.19 18.65 47.47 22.44 11.08 2.34 21.87 5.87 33.02 7.89 9.21 2 18.52 3.42 27.72 5.45 19.14 3.6 38.51 6.07 57.99 6.67 12.05 0.27 23.99 2.06 36.02 2.65 7.04 0.42 14 1.61 21.04 2.01 10.67 0.64 21.19 2.69 31.85 3.46 12.35 0.81 24.73 1.29 37.12 1.07 11.68-0.36 23.31 1.52 35 0.82 16.74-0.76 33.52-2.18 49.96-5.57 14.84-3.22 29.88-5.52 44.98-7.09 12.38-0.63 24.73-1.6 37.03-3.09 19.22-1.28 38.32-4.33 57.08-8.65 32.22-8.84 64.84-16.38 97.9-21.37 10.9-1.93 21.98-2.47 33.02-3.11 9.79-0.71 19.55-1.9 29.38-2.25 15.85-0.73 31.68-2.09 47.56-2.37 13.05-0.32 25.99-2.23 39.03-2.74 8.72-0.46 17.35-1.83 25.88-3.65 11.86-2.19 23.58-5.1 35.16-8.47-9.99-1.08-19.25-5.59-28.05-10.19-15.98-7.7599-30.43-19.1-48.01-23.18z"/>
	</g>
	<linearGradient id="dx" x1="960" x2="960" y1="1190.6" y2="617.94" gradientUnits="userSpaceOnUse">
		<stop stop-color="#BF2501" offset="0"/>
		<stop stop-color="#BB2300" offset="1"/>
	</linearGradient>
	<path d="m1889.8 876.26c-12.24-2.17-23.95-6.46-35.75-10.22-10.03-3.09-19.65-7.35-29.73-10.31-8.4697-2.45-16.88-5.12-25.24-7.92-7.6001-2.56-14.91-5.88-22.48-8.49-11.11-4.26-22.68-7.28-33.36-12.58-13.7-6.69-27.38-13.53-40.11-21.94-18.02-12.01-36.64-23.13-55.82-33.18-9.4299-5.4-19.22-10.14-29.29-14.18-7.29-3.21-14.74-6.01-22.39-8.18-8.8501-2.64-17.51-5.86-26.35-8.52-11.81-3.65-22.69-9.6899-34.4-13.6-7.67-2.63-15.33-5.3099-22.92-8.16-22.96-8.51-47.73-10.69-72.05-10.35-10.56 0.11-21.09-0.98-31.64-0.9301-12.46 0.02-24.9-2.1499-37.35-0.7999-20.68 2.58-41.44 5.4301-61.39 11.66-8.6 2.5699-16.89 6.0499-25.48 8.6199-14 4.1801-27.26 10.46-41.21 14.74-9.3199 2.85-18.49 6.15-27.76 9.11-8.4399 2.42-16.76 5.17-25.01 8.14-8 2.84-15.67 6.52-23.69 9.32-9.9601 3.49-19.67 7.65-29.53 11.42-9.38 3.55-19.28 5.41-28.85 8.35-11.58 3.37-23.3 6.28-35.16 8.47-8.53 1.82-17.16 3.19-25.88 3.65-13.04 0.51-25.98 2.42-39.03 2.74-15.88 0.28-31.71 1.64-47.56 2.37-9.8298 0.35-19.59 1.54-29.38 2.25-11.04 0.64-22.12 1.18-33.02 3.11-33.06 4.9901-65.68 12.53-97.9 21.37-18.76 4.32-37.86 7.3701-57.08 8.65-12.3 1.49-24.65 2.46-37.03 3.09-15.1 1.57-30.14 3.87-44.98 7.09-16.44 3.39-33.22 4.81-49.96 5.57-11.69 0.7-23.32-1.18-35-0.82-12.39 0.22-24.77-0.26-37.12-1.07-10.66-0.77-21.18-2.82-31.85-3.46-7.04-0.4-14-1.59-21.04-2.01-12.03-0.59-23.97-2.38-36.02-2.65-19.48-0.6-38.85-3.07-57.99-6.67-9.2-2.03-18.51-3.45-27.72-5.45-11.15-2.02-21.94-5.55-33.02-7.89-17.28-3.79-33.23-12.11-47.47-22.44-13.34-9.2599-26.17-19.22-39.6-28.33-15.66-11.34-32.71-20.51-48.62-31.46-15.18-10.94-29.04-23.57-42.47-36.56-8.22-7.0801-15.53-15.13-23.73-22.21-13.81-11.79-27.83-23.42-42.88-33.6-8.37-5.02-16.97-9.6599-25.85-13.7-7.94-3.67-16.28-6.3401-24.39-9.5801-11.76-4.6399-24.09-7.55-36.29-10.78v252.33c17.44-4.99 35.1-9.38 53.06-12.09 13.96-1.6 27.83-4.44 41.93-4.49 12.68-0.19 25.31 1.44 37.99 1.12 14.68 0.41 29.35 1.62 44.05 1.46 28.96-0.57 58.25 3.11 85.57 12.98 15.4 5.8 31.49 9.75 46.44 16.74 6.08 2.74 12.38 4.94 18.69 7.1 13.33 4 26.48 8.59 39.91 12.27 19.34 5.87 37.91 13.97 55.93 23.07 11.36 6.45 23.34 11.74 34.6 18.36 9.85 5.85 20.06 11.09 29.64 17.4 11.8 7.65 23.93 14.85 36.57 21.03 17.55 0.3 35.06 1.59 52.62 1.2401 12.66-0.38 25.25 1 37.83 2.18 20.95 2.08 41.64 6.88 61.36 14.26 10.31 3.83 20.82 7.06 31.23 10.59 15.41 5.19 29.89 12.82 45.45 17.61 12.51 3.8301 24.88 8.1 37.45 11.73 28.49 7.86 55.73 19.76 81.79 33.61 6.17 3.28 12.34 6.5701 18.7 9.4901 17.09 3.1499 33.7 8.5399 50.86 11.36 8.9701 1.4299 17.9 3.1799 26.96 4.09 24.55 3.09 49.35 2.12 73.99 4.09 20.12 0.65 40.14 2.99 60.05 5.8401 10.29 1.6799 20.69 3.1499 30.64 6.3899 11.71 3.74 23.02 8.62 34.07 13.99 13.53 7.1201 27.5 13.37 41.52 19.47 21.19 8.6799 44.13 13.42 67.08 12.56 13.7 0.2101 27.34-0.9399 41.01-1.6799 13.14-0.7201 26.08-3.16 39.12-4.79 9.5701-1.4 19.27-0.63 28.9-1.12 13.3-0.84 26.61 0.42 39.93 0.13 10.07-0.33 20.02 1.4 30.07 1.8 11.04 0.6 21.95 2.5699 32.96 3.6399 14.32 1.1101 28.61 2.9301 43.01 2.87 9.6801 0.3201 19.38-0.0499 29.07 0.4601 5.97 0.24 11.94-0.37 17.92-0.3401 15.67-0.1799 31.31-2.62 46.99-1.34 10.03 0.65 20.04-1.16 30.06-0.24 20.7 1.14 41.43 1.36 62.12 2.67 13.69 1.2899 27.22 3.86 40.89 5.28 20.76 2.46 41.24 6.6599 61.84 10.12 11.78 2.0199 23.36 5.0499 35.18 6.88 10.62 1.12 21.23 2.7599 31.95 2.48 11 0.09 22-0.3501 33-0.8401v-307.13c-9.9702-2.5101-20.07-4.4301-30.16-6.3101z" fill="url(#dx)"/>
	<g fill="#911201">
		<path d="m458.17 946.79c-11.26-6.62-23.24-11.91-34.6-18.36-18.02-9.1-36.59-17.2-55.93-23.07-13.43-3.68-26.58-8.27-39.91-12.27-6.31-2.16-12.61-4.36-18.69-7.1-14.95-6.99-31.04-10.94-46.44-16.74-27.32-9.87-56.61-13.55-85.57-12.98-14.7 0.16-29.37-1.05-44.05-1.46-12.68 0.32-25.31-1.31-37.99-1.12-14.1 0.05-27.97 2.89-41.93 4.49-17.96 2.71-35.62 7.1-53.06 12.09v245.54c20.67-4.0601 41.6-7.05 61.86-13.01 13.82-4.15 27.94-7.1801 41.83-11.08 15.63-4.3199 30.33-11.3 45.65-16.53 10.51-3.6299 20.99-7.3799 31.26-11.66 23.84-9.6 48.85-15.69 73.17-23.86 12.8-4.3301 25.96-7.53 38.56-12.44 14.74-5.44 29.39-11.2 44.54-15.4 14.14-4.34 27.84-10.06 42.25-13.5 11.34-3.22 22.94-5.4 34.5-7.7 12.16-2.27 24.52-3.17 36.72-5.23 18.05-3.17 36.45-1.6801 54.63-0.75 6.47 0.19 12.95 0.12 19.41 0.5699-12.64-6.18-24.77-13.38-36.57-21.03-9.58-6.3098-19.79-11.55-29.64-17.4z"/>
		<path d="m1887 1190.5c-10.72 0.2799-21.33-1.36-31.95-2.48-11.82-1.8301-23.4-4.8601-35.18-6.88-20.6-3.4601-41.08-7.66-61.84-10.12-13.67-1.42-27.2-3.9901-40.89-5.28-20.69-1.3101-41.42-1.53-62.12-2.67-10.02-0.92-20.03 0.89-30.06 0.24-15.68-1.28-31.32 1.16-46.99 1.34-5.98-0.0299-11.95 0.5801-17.92 0.3401-9.6901-0.51-19.39-0.14-29.07-0.4601-14.4 0.0601-28.69-1.7599-43.01-2.87-11.01-1.0699-21.92-3.0399-32.96-3.6399-10.05-0.4-20-2.13-30.07-1.8-13.32 0.29-26.63-0.97-39.93-0.13-9.63 0.49-19.33-0.28-28.9 1.12-13.04 1.63-25.98 4.0699-39.12 4.79-13.67 0.74-27.31 1.89-41.01 1.6799-22.95 0.86-45.89-3.88-67.08-12.56-14.02-6.1-27.99-12.35-41.52-19.47-11.05-5.37-22.36-10.25-34.07-13.99-9.9501-3.24-20.35-4.71-30.64-6.3899-19.91-2.8501-39.93-5.1901-60.05-5.8401-24.64-1.97-49.44-1-73.99-4.09-9.0599-0.91-17.99-2.66-26.96-4.09-17.16-2.8201-33.77-8.2101-50.86-11.36 14.07 7.98 28.3 15.69 42.1 24.14 10.93 6.2401 21.1 13.72 32.14 19.77 14.08 8.3301 28.83 15.41 43.54 22.53 8.3499 3.8 16.69 7.6801 25.45 10.49 10.67 3.87 21.78 6.4501 32.27 10.85 10.11 3.4301 19.69 8.3 30.06 10.98 20.6 7.0901 41.93 11.85 62.3 19.64 18.16 6.8501 36.89 11.93 55.49 17.4 11.48 3.16 23.33 4.62 34.98 7 9.48 1.66 18.85 3.92 28.25 5.98 13.4 2.66 26.87 4.9501 40.22 7.86 19.13 4.6901 38.66 7.4701 58.08 10.67 13.5 2.87 27.32 4.04 40.75 7.34 19.58 4.66 39.11 9.55 58.71 14.14 21.33 4.01 42.82 7.4601 64.5 8.8101 44.89 1.48 89.92 2.74 134.41 9.4399 10.56 1.63 21.18 3.04 31.54 5.6801 17.84 4.74 34.73 12.39 51.25 20.53 16.05 8.73 33.06 15.47 49.62 23.15 17.97 7.41 37.14 11.75 56.47 13.52 10.3 1.03 20.65 0.4 30.97 0.39 8.71 0.09 17.38-0.9399 26.09-0.84v-165.7c-11 0.4899-22 0.93-33 0.84z"/>
	</g>
	<linearGradient id="ej" x1="960" x2="960" y1="1920" y2="983.48" gradientUnits="userSpaceOnUse">
		<stop stop-color="#540700" offset="0"/>
		<stop stop-color="#6B0800" offset=".9979"/>
	</linearGradient>
	<path d="m1893.9 1356.2c-10.32 0.01-20.67 0.64-30.97-0.39-19.33-1.77-38.5-6.11-56.47-13.52-16.56-7.6799-33.57-14.42-49.62-23.15-16.52-8.14-33.41-15.79-51.25-20.53-10.36-2.64-20.98-4.05-31.54-5.6801-44.49-6.7-89.52-7.96-134.41-9.4399-21.68-1.35-43.17-4.8-64.5-8.8101-19.6-4.59-39.13-9.48-58.71-14.14-13.43-3.2999-27.25-4.47-40.75-7.34-19.42-3.2-38.95-5.98-58.08-10.67-13.35-2.9099-26.82-5.2-40.22-7.86-9.4-2.0599-18.77-4.3199-28.25-5.98-11.65-2.38-23.5-3.84-34.98-7-18.6-5.47-37.33-10.55-55.49-17.4-20.37-7.7899-41.7-12.55-62.3-19.64-10.37-2.6799-19.95-7.5499-30.06-10.98-10.49-4.3999-21.6-6.98-32.27-10.85-8.76-2.8099-17.1-6.6899-25.45-10.49-14.71-7.12-29.46-14.2-43.54-22.53-11.04-6.0499-21.21-13.53-32.14-19.77-13.8-8.45-28.03-16.16-42.1-24.14-6.3601-2.92-12.53-6.2101-18.7-9.4901-26.06-13.85-53.3-25.75-81.79-33.61-12.57-3.63-24.94-7.8999-37.45-11.73-15.56-4.7899-30.04-12.42-45.45-17.61-10.41-3.53-20.92-6.76-31.23-10.59-19.72-7.38-40.41-12.18-61.36-14.26-12.58-1.18-25.17-2.56-37.83-2.18-17.56 0.35-35.07-0.94-52.62-1.2401-6.46-0.45-12.94-0.3799-19.41-0.5699-18.18-0.9301-36.58-2.42-54.63 0.75-12.2 2.06-24.56 2.96-36.72 5.23-11.56 2.3-23.16 4.48-34.5 7.7-14.41 3.44-28.11 9.16-42.25 13.5-15.15 4.2-29.8 9.96-44.54 15.4-12.6 4.91-25.76 8.11-38.56 12.44-24.32 8.1699-49.33 14.26-73.17 23.86-10.27 4.28-20.75 8.03-31.26 11.66-15.32 5.2301-30.02 12.21-45.65 16.53-13.89 3.9-28.01 6.9301-41.83 11.08-20.26 5.96-41.19 8.95-61.86 13.01v804.19h1920v-564.6c-8.71-0.1-17.38 0.93-26.09 0.84z" fill="url(#ej)"/>
	<path d="m609.05 532.77c0.4984 0.1624 0.9984 0.3191 1.4998 0.4716-0.5013-0.1525-1.0014-0.3092-1.4998-0.4716z" fill="none"/>
	<path d="m522.12 497.33c0.3437 0.2524 0.6896 0.5021 1.0348 0.7527-0.3453-0.2506-0.6911-0.5002-1.0348-0.7527z" fill="none"/>
	<path d="m592.99 527.35c0.6532 0.1652 1.3046 0.3368 1.9544 0.5137-0.6499-0.1769-1.3012-0.3485-1.9544-0.5137z" fill="none"/>
	<path d="m595.74 528.08c0.8784 0.2469 1.7544 0.5026 2.6246 0.7775-0.8702-0.2749-1.7461-0.5304-2.6246-0.7775z" fill="none"/>
	<path d="m604.04 530.93c0.6968 0.2893 1.3989 0.5618 2.1036 0.8254-0.7048-0.2636-1.4068-0.5361-2.1036-0.8254z" fill="none"/>
	<path d="m616.42 534.82c0.6084 0.1455 1.2178 0.2872 1.8285 0.4246-0.6107-0.1374-1.2202-0.2791-1.8285-0.4246z" fill="none"/>
	<path d="m680.01 539.02c0.7442-0.189 1.486-0.3864 2.2212-0.603-0.7352 0.2167-1.477 0.4139-2.2212 0.603z" fill="none"/>
	<path d="m613.38 534.06c0.7787 0.2095 1.561 0.4071 2.3448 0.5994-0.7837-0.1923-1.566-0.39-2.3448-0.5994z" fill="none"/>
	<path d="m545.95 513.98c1.3525 0.73 2.7317 1.3806 4.1322 1.9683-1.4005-0.5877-2.7797-1.2383-4.1322-1.9683z" fill="none"/>
	<path d="m618.83 535.38c0.7844 0.1733 1.5701 0.3418 2.3571 0.5049-0.787-0.1631-1.5726-0.3316-2.3571-0.5049z" fill="none"/>
	<path d="m554.34 517.54c0.9702 0.3226 1.9496 0.6179 2.9325 0.9031-0.9829-0.2852-1.9623-0.5805-2.9325-0.9031z" fill="none"/>
	<path d="m541.25 511.24c1.5237 0.9801 3.085 1.9032 4.7 2.7433-1.615-0.8401-3.1763-1.7632-4.7-2.7433z" fill="none"/>
	<path d="m560.9 519.43c-0.968-0.2463-1.9308-0.5077-2.8906-0.7778 2.1661 0.6096 4.3556 1.1508 6.5533 1.6692-1.2238-0.2888-2.4461-0.5818-3.6627-0.8914z" fill="none"/>
	<path d="m572.32 522.16c0.1725 0.0432 0.3442 0.0886 0.5165 0.1323-0.1723-0.0437-0.344-0.0891-0.5165-0.1323z" fill="none"/>
	<path d="m565.13 520.46c0.7292 0.1711 1.4589 0.3411 2.1888 0.5109-0.7298-0.1698-1.4594-0.3398-2.1888-0.5109z" fill="none"/>
	<path d="m589.61 526.54c0.8743 0.1993 1.7463 0.408 2.6165 0.6223-0.8703-0.2143-1.7422-0.4229-2.6165-0.6223z" fill="none"/>
	<path d="m567.63 521.04c0.415 0.0967 0.8296 0.1947 1.2443 0.2921-0.4147-0.0976-0.8292-0.1955-1.2443-0.2921z" fill="none"/>
	<path d="m606.82 532c0.4924 0.1783 0.9861 0.3525 1.4818 0.5198-0.4958-0.1673-0.9895-0.3415-1.4818-0.5198z" fill="none"/>
	<path d="m655.69 541.22c0.6429 0.0604 1.2863 0.1128 1.9301 0.1576-0.6438-0.0448-1.2872-0.0973-1.9301-0.1576z" fill="none"/>
	<path d="m652.6 540.89c0.8225 0.1018 1.6455 0.1941 2.469 0.2771-0.8234-0.083-1.6465-0.1752-2.469-0.2771z" fill="none"/>
	<path d="m650.03 540.55c0.6876 0.0966 1.3752 0.1886 2.0632 0.2765-0.6879-0.0879-1.3756-0.1799-2.0632-0.2765z" fill="none"/>
	<path d="m647.18 540.13c0.6942 0.104 1.3883 0.2057 2.0826 0.3055-0.6943-0.0998-1.3885-0.2015-2.0826-0.3055z" fill="none"/>
	<path d="m658.35 541.43c0.8347 0.0496 1.6699 0.0892 2.5062 0.1056-0.8364-0.0163-1.6715-0.0559-2.5062-0.1056z" fill="none"/>
	<path d="m664.24 541.49c0.9117-0.041 1.8243-0.0986 2.7388-0.1958-0.9145 0.0972-1.8271 0.1548-2.7388 0.1958z" fill="none"/>
	<path d="m670.4 540.84c1.1375-0.1602 2.2751-0.3342 3.41-0.5277-1.1348 0.1935-2.2725 0.3676-3.41 0.5277z" fill="none"/>
	<path d="m677.21 539.67c-1.1282 0.2384-2.2628 0.4519-3.4003 0.6459 1.891-0.3224 3.7723-0.7036 5.6318-1.1584-0.7409 0.1812-1.4842 0.3547-2.2315 0.5125z" fill="none"/>
	<path d="m666.98 541.29c1.1321-0.137 2.2678-0.2828 3.4039-0.4425-1.136 0.1597-2.2718 0.3056-3.4039 0.4425z" fill="none"/>
	<path d="m631.42 537.88c0.2378 0.0464 0.4756 0.093 0.7133 0.1399-0.2377-0.0469-0.4755-0.0935-0.7133-0.1399z" fill="none"/>
	<path d="m628.85 537.39c0.231 0.0442 0.4615 0.0887 0.6924 0.1331-0.2308-0.0444-0.4615-0.0889-0.6924-0.1331z" fill="none"/>
	<path d="m621.64 535.98c0.6667 0.137 1.334 0.2714 2.0019 0.4033-0.6679-0.132-1.3352-0.2664-2.0019-0.4033z" fill="none"/>
	<path d="m646.43 540.02c0.0983 0.0148 0.1967 0.0297 0.295 0.0443-0.0983-0.0146-0.1966-0.0295-0.295-0.0443z" fill="none"/>
	<path d="m624.35 536.52c0.6704 0.1311 1.341 0.2612 2.0117 0.3899-0.6708-0.1287-1.3414-0.2588-2.0117-0.3899z" fill="none"/>
	<path d="m626.77 536.99c0.345 0.0662 0.6898 0.1321 1.0347 0.198-0.3449-0.0659-0.6897-0.1318-1.0347-0.198z" fill="none"/>
	<path d="m643.84 539.63c0.2319 0.0344 0.464 0.0681 0.6959 0.1029-0.2319-0.0348-0.464-0.0685-0.6959-0.1029z" fill="none"/>
	<path d="m638.61 538.92c-0.0019-2e-4 -0.0037-2e-4 -0.0056-5e-4 0.01 0.0012 0.02 0.0024 0.0301 0.0037-0.0082-1e-3 -0.0164-0.0022-0.0245-0.0032z" fill="none"/>
	<path d="m641.14 539.25c0.2601 0.0359 0.5201 0.0726 0.78 0.1094-0.26-0.0369-0.52-0.0735-0.78-0.1094z" fill="none"/>
	<path d="m611.21 533.44c0.7078 0.2089 1.4175 0.4111 2.1304 0.6033-0.713-0.1921-1.4227-0.3944-2.1304-0.6033z" fill="none"/>
	<path d="m365.22 404.83c0.2391 0.0319 0.4785 0.0613 0.7174 0.0951-0.239-0.0339-0.4782-0.0632-0.7174-0.0951z" fill="none"/>
	<path d="m356.33 404.2c0.2094-0.0027 0.4188-0.0042 0.6283-0.0046-0.2096 4e-4 -0.419 0.0018-0.6283 0.0046z" fill="none"/>
	<path d="m362.27 404.49c0.2651 0.0267 0.5302 0.0566 0.7952 0.0856-0.2651-0.029-0.5299-0.0589-0.7952-0.0856z" fill="none"/>
	<path d="m344.51 405.23c-0.3101 0.0439-0.6199 0.0908-0.9299 0.1364 0.3129-0.046 0.6257-0.0931 0.9388-0.1376-3e-3 5e-4 -0.0059 7e-4 -0.0089 0.0012z" fill="none"/>
	<path d="m380.52 408.39c0.2555 0.0884 0.5112 0.176 0.7656 0.2676-0.2544-0.0915-0.51-0.1792-0.7656-0.2676z" fill="none"/>
	<path d="m338.93 406.08c-1.4532 0.2311-2.9062 0.4624-4.3598 0.6841 1.4633-0.2231 2.926-0.4559 4.3889-0.6886-0.0097 0.0016-0.0194 3e-3 -0.0291 0.0045z" fill="none"/>
	<path d="m368.7 405.36c0.1683 0.0294 0.3356 0.0635 0.5037 0.0939-0.1681-0.0305-0.3354-0.0645-0.5037-0.0939z" fill="none"/>
	<path d="m374.57 406.61c0.1701 0.0428 0.3414 0.0817 0.5112 0.1259-0.1698-0.0442-0.341-0.0829-0.5112-0.1259z" fill="none"/>
	<path d="m371.49 405.9c0.2726 0.0573 0.5448 0.116 0.8168 0.176-0.272-0.0601-0.5441-0.1188-0.8168-0.176z" fill="none"/>
	<path d="m377.77 407.49c0.2297 0.0691 0.4576 0.1436 0.6867 0.2148-0.2291-0.0714-0.4569-0.1457-0.6867-0.2148z" fill="none"/>
	<path d="m256.24 426.44c-7.5543 4.4944-15.355 8.6692-22.834 13.315 7.4785-4.6455 15.28-8.8203 22.834-13.315h-1e-4z" fill="none"/>
	<path d="m226.06 444.59c2.4-1.6823 4.8569-3.2832 7.3497-4.8315-2.4928 1.5483-4.9498 3.1492-7.3497 4.8315z" fill="none"/>
	<path d="m256.24 426.44c0.8822-0.5104 1.7543-1.0438 2.6206-1.5908-0.8663 0.547-1.7384 1.0806-2.6206 1.5908z" fill="none"/>
	<path d="m300.31 410.61c-2.5378 0.2312-5.0697 0.5281-7.5909 0.8956 5.0425-0.735 10.128-1.1874 15.218-1.3975-2.5451 0.1051-5.0888 0.2707-7.6266 0.5019z" fill="none"/>
	<path d="m329.64 407.46c1.5068-0.1866 3.0117-0.4021 4.5159-0.629-1.5042 0.2269-3.009 0.4423-4.5159 0.629z" fill="none"/>
	<path d="m258.87 424.84c0.8615-0.5441 1.7173-1.1014 2.5718-1.663-0.8545 0.5616-1.7104 1.1189-2.5718 1.663z" fill="none"/>
	<path d="m273.4 416.15c-0.4691 0.2051-0.9336 0.4198-1.394 0.6429 0.9208-0.4463 1.8578-0.8588 2.8157-1.2277-0.4789 0.1847-0.9527 0.3799-1.4217 0.5848z" fill="none"/>
	<path d="m383.91 409.65c-0.0027-0.0011-0.0055-2e-3 -0.0082-0.0032 0.0065 0.0027 0.0128 0.0054 0.0193 0.0081-0.0037-0.0016-0.0074-0.0034-0.0111-0.0049z" fill="none"/>
	<path d="m478.4 462.79c-0.0095-0.0061-0.0192-0.0122-0.0286-0.0183 1.7216 1.1228 3.4269 2.2695 5.093 3.4738-1.6568-1.1977-3.3525-2.3386-5.0644-3.4555z" fill="none"/>
	<path d="m485.92 468.09c1.6122 1.2704 3.2101 2.5591 4.8026 3.8547-1.5925-1.2957-3.1904-2.5843-4.8026-3.8547z" fill="none"/>
	<path d="m470.66 457.82c1.2726 0.8328 2.5551 1.6514 3.8378 2.4697-1.2827-0.8182-2.5651-1.6369-3.8378-2.4697z" fill="none"/>
	<path d="m460.81 451.33c0.8018 0.4475 1.5961 0.9088 2.3763 1.3955-0.7803-0.4869-1.5745-0.948-2.3763-1.3955z" fill="none"/>
	<path d="m516.63 493.18c0.2717 0.2111 0.5416 0.4244 0.814 0.6346-0.2724-0.2102-0.5423-0.4236-0.814-0.6346z" fill="none"/>
	<path d="m505.97 484.59c0.3635 0.3011 0.7273 0.6019 1.0913 0.9023-0.3641-0.3003-0.7278-0.6011-1.0913-0.9023z" fill="none"/>
	<path d="m511.66 489.24c0.2485 0.2004 0.4989 0.3983 0.7479 0.5983-0.249-0.2-0.4995-0.3979-0.7479-0.5983z" fill="none"/>
	<path d="m492.21 473.16c1.1662 0.9558 2.3302 1.9147 3.4907 2.8779-1.1605-0.9633-2.3245-1.9221-3.4907-2.8779z" fill="none"/>
	<path d="m458.36 450.03c0.538 0.2765 1.0704 0.5634 1.6023 0.8508-0.532-0.2875-1.0643-0.5742-1.6023-0.8508z" fill="none"/>
	<path d="m497.17 477.25c1.4238 1.1857 2.8463 2.3732 4.2686 3.5608-1.4224-1.1877-2.8447-2.3751-4.2686-3.5608z" fill="none"/>
	<path d="m455.82 448.75c0.5057 0.2474 1.0089 0.4996 1.5119 0.7518-0.5031-0.2522-1.0061-0.5044-1.5119-0.7518z" fill="none"/>
	<path d="m406.69 422.22c-4.2399-2.408-8.4698-4.8341-12.692-7.2742 8.445 4.88 16.92 9.7051 25.444 14.439-4.2619-2.3667-8.5115-4.7565-12.751-7.1645z" fill="none"/>
	<path d="m391.07 413.16c0.2363 0.1359 0.4743 0.2681 0.7088 0.4073-0.2345-0.1392-0.4724-0.2714-0.7088-0.4073z" fill="none"/>
	<path d="m386.29 410.69c0.2455 0.1125 0.488 0.2319 0.7321 0.3477-0.2441-0.1158-0.4864-0.235-0.7321-0.3477z" fill="none"/>
	<path d="m388.66 411.85c0.2706 0.1387 0.54 0.2797 0.8085 0.4227-0.2685-0.1431-0.5379-0.2841-0.8085-0.4227z" fill="none"/>
	<path d="m452.67 447.22c0.6196 0.3005 1.2388 0.6016 1.8586 0.9016-0.6198-0.3001-1.239-0.6011-1.8586-0.9016z" fill="none"/>
	<path d="m447.58 444.64c0.2839 0.1538 0.5717 0.3004 0.8575 0.4508-0.2858-0.1504-0.5736-0.297-0.8575-0.4508z" fill="none"/>
	<path d="m450.05 445.93c0.3513 0.177 0.7042 0.3513 1.0571 0.5256-0.3529-0.1743-0.7057-0.3486-1.0571-0.5256z" fill="none"/>
	<path d="m1259.4 528h-2e-3c0.2646-0.0052 0.5291-0.0122 0.7938-0.0208h-2e-3c-0.2633 0.0085-0.5265 0.0154-0.7898 0.0208z" fill="none"/>
	<path d="m1739.9 541.24c1.3337 0.2543 2.667 0.5122 3.9998 0.7737-1.3328-0.2617-2.666-0.5194-3.9998-0.7737z" fill="none"/>
	<path d="m1714.1 531.04c0.6436 0.2948 1.2841 0.5968 1.9174 0.9163-0.6334-0.3195-1.2739-0.6215-1.9174-0.9163z" fill="none"/>
	<path d="m1726.9 352.14c-0.785-1.05-1.7025-1.9774-2.62-2.9025 0.9175 0.9251 1.835 1.8526 2.62 2.9025z" fill="none"/>
	<path d="m1674.8 295.4c-0.5126-0.2053-0.9951-0.4709-1.4301-0.8308 0.435 0.36 0.9176 0.6256 1.4301 0.8308z" fill="none"/>
	<path d="m1693.8 313.08c0.4515 0.2933 0.8054 0.6563 1.0938 1.0671-0.2884-0.4108-0.6422-0.7738-1.0938-1.0671z" fill="none"/>
	<path d="m1712.1 530.16c0.4792 0.203 0.9564 0.4111 1.4319 0.6235-0.4755-0.2123-0.9527-0.4205-1.4319-0.6235z" fill="none"/>
	<polygon points="1256.2 528 1256.3 528 1256.3 528" fill="none"/>
	<path d="m1542.4 177.42c-0.3544-0.3853-0.7865-0.6689-1.2615-0.8921 0.475 0.2233 0.9071 0.5069 1.2615 0.8921z" fill="none"/>
	<path d="m1707.3 528.24c0.7271 0.2861 1.4541 0.5724 2.1799 0.8619-0.7258-0.2895-1.4529-0.5757-2.1799-0.8619z" fill="none"/>
	<path d="m1307.7 56.034c-3.6693-0.1003-7.3386-0.0741-10.991-0.2841 3.6525 0.21 7.3218 0.1838 10.991 0.2841z" fill="none"/>
	<path d="m1709.6 529.15c0.6295 0.2515 1.257 0.5082 1.8828 0.7688-0.6258-0.2605-1.2533-0.5172-1.8828-0.7688z" fill="none"/>
	<path d="m1417.9 104.83c-1.1365-0.4539-2.2561-0.9509-3.3361-1.5396 1.08 0.5888 2.1997 1.0857 3.3361 1.5396z" fill="none"/>
	<path d="m1750.2 377.19c-1.2234-0.7222-2.8274-0.9995-4.0525-1.562 1.2251 0.5625 2.8288 0.8398 4.0525 1.562z" fill="none"/>
	<path d="m1755.4 544.41c0.0659 0.0146 0.1316 0.0288 0.1973 0.0435-0.0657-0.0147-0.1314-0.0289-0.1973-0.0435z" fill="none"/>
	<path d="m1834.7 511.89c1.1465-0.1576 2.2876-0.307 3.436-0.4711h-2e-4c-1.1482 0.1641-2.2893 0.3134-3.4358 0.4711z" fill="none"/>
	<path d="m1751.8 379.13c0.5935 3.309-0.1267 6.7679 0.6819 10.039-0.8084-3.271-0.0882-6.7299-0.6819-10.039z" fill="none"/>
	<path d="m1759.4 545.33c0.0105 0.0026 0.021 0.0049 0.0315 0.0073-0.0105-0.0024-0.021-0.0047-0.0315-0.0073z" fill="none"/>
	<path d="m1808.4 465.9c0.4041-1.5984 0.9187-3.1908 0.4546-4.7036 0.4639 1.5128-0.0505 3.1052-0.4546 4.7036z" fill="none"/>
	<path d="m1766.1 399.07c-0.8667-0.8931-1.6973-1.8334-2.5532-2.7456 0.856 0.9123 1.6865 1.8526 2.5532 2.7456z" fill="none"/>
	<path d="m1746.6 542.57c0.3928 0.079 0.7861 0.1564 1.1787 0.2362-0.3926-0.0801-0.7857-0.1572-1.1787-0.2362z" fill="none"/>
	<path d="m1751.3 543.52c0.1475 0.031 0.2952 0.0613 0.4426 0.0925-0.1475-0.0313-0.2952-0.0614-0.4426-0.0925z" fill="none"/>
	<path d="m1746.1 375.63c-0.6145-0.1993-1.1917-0.451-1.738-0.743 0.5463 0.292 1.1232 0.5437 1.738 0.743z" fill="none"/>
	<path d="m1266.5 43.557c-0.5187-0.4578-1.0612-0.8846-1.6537-1.2471 0.5926 0.3626 1.1351 0.7894 1.6537 1.2471z" fill="none"/>
	<path d="m1548.6 525.89c0.2224 0.0439 0.4476 0.0795 0.676 0.1057-0.1975-0.0226-0.3916-0.0554-0.5846-0.0914-0.0301-0.0056-0.0613-0.0083-0.0914-0.0143z" fill="none"/>
	<path d="m59.323 135.06c-1.0547 1.3386-2.0344 2.734-2.8932 4.2153 0.8588-1.4812 1.8385-2.8767 2.8932-4.2153z" fill="none"/>
	<path d="m690.24 535.27c-0.5129 0.2617-1.0306 0.5116-1.5528 0.7507 1.5665-0.7173 3.0931-1.5327 4.5687-2.4646-0.9838 0.6213-1.9902 1.1907-3.0159 1.7139z" fill="none"/>
	<path d="m1688 520.25c0.3901 0.136 0.7811 0.27 1.1702 0.4089-0.3892-0.1389-0.7799-0.2729-1.1702-0.4089z" fill="none"/>
	<path d="m663.56 541.51c-0.8975 0.0278-1.7943 0.0404-2.6895 0.0232 0.8951 0.0173 1.792 0.0046 2.6895-0.0232z" fill="none"/>
	<path d="m1677.1 516.68c-0.4448-0.1399-0.8883-0.2813-1.3328-0.4215 0.4908 0.1549 0.9808 0.3109 1.4723 0.4655-0.0465-0.0147-0.093-0.0294-0.1395-0.044z" fill="none"/>
	<path d="m686.57 536.92c0.7141-0.2826 1.4238-0.5765 2.1229-0.8966-0.6991 0.32-1.4088 0.614-2.1229 0.8966z" fill="none"/>
	<path d="m1684.2 518.96c0.4347 0.1426 0.8685 0.2869 1.3024 0.4319-0.4339-0.1451-0.8677-0.2894-1.3024-0.4319z" fill="none"/>
	<path d="m1680.5 517.77c0.381 0.1207 0.7612 0.2439 1.1418 0.3656-0.3805-0.1217-0.7607-0.2449-1.1418-0.3656z" fill="none"/>
	<path d="m1064.3 3.959c-2.566-0.0046-5.1316-0.0391-7.6967-0.1389 2.5651 0.0999 5.1307 0.1342 7.6967 0.1389z" fill="none"/>
	<path d="m1123.7 11.901c-1.0104-0.0096-2.0179-0.0378-3.0192-0.1108 1.0013 0.0731 2.0088 0.1011 3.0192 0.1108z" fill="none"/>
	<path d="m683.88 537.9c0.7239-0.2385 1.4396-0.4993 2.1513-0.7709-0.7116 0.2716-1.4274 0.5324-2.1513 0.7709z" fill="none"/>
	<path d="m1705.1 527.36c0.2147 0.0864 0.4299 0.1724 0.6451 0.2581-0.2151-0.0857-0.4302-0.1717-0.6451-0.2581z" fill="none"/>
	<g fill="url(#eu)">
		<radialGradient id="eu" cx="871" cy="472" r="1147.7" gradientUnits="userSpaceOnUse">
			<stop stop-color="#F9B700" offset="0"/>
			<stop stop-color="#F8B300" offset=".2003"/>
			<stop stop-color="#F6A800" offset=".3893"/>
			<stop stop-color="#F19500" offset=".5736"/>
			<stop stop-color="#EB7A00" offset=".7551"/>
			<stop stop-color="#E35800" offset=".9329"/>
			<stop stop-color="#E04900" offset="1"/>
		</radialGradient>
		<path d="m1920 532.11v-530.33c0-2.2928-0.2056-1.7786-2.5254-1.7786h-1913.7c-3.2504 0-3.8061-0.842-3.8061 2.3843v506.77c0 2.8561 2.314 6.8476 5.877 6.8476 3.393 0 7.3186 0.8079 10.323-0.89 4.3197-2.4415 5.8099-4.5009 10.324-2.6239 8.5496 3.5553 15.488 4.6394 24.741 5.771 2.7684 0.3386 5.1225-4.6836 6.2132-4.3508 4.2649 1.3008 8.5298 2.6018 12.795 3.9026 7.4438 2.2706 13.756 3.2034 21.543 3.9607 4.381 0.4263 8.762 0.8523 13.143 1.2784 3.085 0.3 7.2766-2.3755 10.11-3.4469 15.435-5.8375 30.477-12.943 44.196-22.209 17.971-12.138 33.891-27.471 51.139-40.664 7.6008-5.8142 14.854-11.911 23.004-16.973 8.3533-5.189 17.141-9.6563 25.455-14.906 5.2235-3.2562 10.169-7.0508 15.959-9.2822 8.7227-3.3594 18.776-4.4796 28.033-5.1646 26.655-1.9724 55.19-11.772 81.067-0.7429 16.78 6.8634 32.385 18.133 48.348 26.757 12.96 7.0011 26.08 13.339 38.397 21.4 13.995 9.1577 26.496 19.634 39.458 30.184 13.232 10.77 27.875 24.106 44.219 29.539 12.561 4.1771 25.844 6.5751 38.652 9.8162 11.813 2.9867 22.755 7.5265 34.815 9.8309 10.68 2.0391 22.144 4.1362 33.045 4.3494 15.01 0.3298 28.349-5.0415 40.837-12.898 16.634-10.465 34.628-22.272 54.537-24.95 10.333-1.3894 20.697-0.6973 31.052-1.511 11.208-0.8807 22.761-3.8403 33.73-6.2863 21.53-4.9598 41.05 2.4532 61.397 8.3065 21.576 6.2069 42.159 1.4788 64.006 1.6433 10.505 0.0791 20.925 0.865 31.362 1.955 11.28 1.1779 22.585 0.4379 33.851 1.6309 10.165 1.0763 19.849 2.6409 30.098 1.3488 10.656-1.3433 21.006-4.7148 30.646-9.4044 17.976-8.1832 32.974-24.528 46.143-38.821 13.722-14.894 26.047-31.636 42.007-44.253 16.108-12.733 34.083-21.158 52.007-30.864 8.2979-4.4933 15.876-10.425 23.544-15.892 8.7133-6.213 18.611-11.121 28.411-15.374 9.4377-4.0958 18.763-4.1375 28.823-3.576 10.974 0.6123 23.009 2.5593 33.606 5.4797 10.387 2.449 20.351 5.0186 30.564 8.161 10.668 3.2821 21.875 4.8824 32.428 8.3905 19.888 6.6111 40.876 6.9773 60.254 15.114 9.3926 3.9438 18.743 7.6144 27.747 12.438 9.6267 5.1569 18.568 11.452 28.258 16.483 18.945 9.835 35.6 22.711 53.907 33.54 8.4111 4.9753 17.544 8.5074 25.74 13.856 8.9828 5.8618 18.133 10.95 27.346 16.42 18.297 10.863 37.151 21.773 56.323 31.004 6.3584 3.0616 13.068 4.8058 19.714 7.1783 7.571 2.7021 14.893 6.1724 22.317 9.2625 7.274 3.0325 14.053 7.1166 21.57 9.5908 7.1868 2.3657 14.927 3.2659 22.314 4.9058 18.947 4.2104 37.48 9.8738 56.717 12.866 4.4719 0.6958 10.778 2.1508 14.878-0.075 4.491-2.4375 9.6584-3.884 14.457-5.6411 10.607-3.8835 21.074-7.3939 32.327-8.7678 10.274-1.2543 20.404-2.6135 30.521-4.8556 5.2195-1.1566 10.434-2.3502 15.708-3.2406 0.2899-0.409-1e-4 -2.122-1e-4 -2.5931zm-863.43-528.29c2.5651 0.0999 5.1306 0.1343 7.6967 0.1389-2.566-0.0047-5.1316-0.039-7.6967-0.1389z"/>
		<path d="m1834.7 511.89c0.1602-0.0221 0.2925-0.0402 0.4077-0.056-0.1235 0.0169-0.256 0.0351-0.4077 0.056z"/>
	</g>
	<path d="m1549.3 525.99c0.2283 0.0262 0.4598 0.0428 0.6948 0.0492-0.4382-0.0117-0.8633-0.063-1.2794-0.1406 0.193 0.036 0.3871 0.0689 0.5846 0.0914z" fill="#F38700"/>
	<path d="m1246.4 512.38c0.0751-0.77 0.1632-1.5375 0.2651-2.3024 0.1019-0.7648 0.2179-1.527 0.3485-2.2864-0.2612 1.5189-0.4636 3.0488-0.6136 4.5888z" fill="#F38700"/>
	<path d="m1260.2 527.98c1.0607-0.0341 2.1217-0.0844 3.1831-0.1711-1.062 0.0868-2.1239 0.1372-3.1851 0.1711h2e-3z" fill="#F38700"/>
	<path d="m1487.4 524.25c-2.4501-0.2151-4.9049-0.3125-7.3588-0.3101 2.4539-0.0024 4.9087 0.0951 7.3588 0.3101z" fill="#F38700"/>
	<path d="m1256.3 528c1.0527 0.0293 2.1074 0.0244 3.1628 0.0034h2e-3c-1.0559 0.021-2.1114 0.0259-3.1648-0.0034z" fill="#F38700"/>
	<linearGradient id="fq" x1="1259.8" x2="1259.8" y1="611.01" y2="444.99" gradientUnits="userSpaceOnUse">
		<stop stop-color="#F07A00" offset="0"/>
		<stop stop-color="#EF7401" offset="1"/>
	</linearGradient>
	<path d="m1260.2 527.98c-0.2633 0.0085-0.5266 0.0154-0.7899 0.0208 0.2632-0.0054 0.5264-0.0123 0.7899-0.0208z" fill="url(#fq)"/>
	<path d="m679.45 539.16c0.188-0.046 0.3757-0.0929 0.5632-0.1405-0.1875 0.0476-0.3751 0.0944-0.5632 0.1405z" fill="#F38700"/>
	<linearGradient id="gb" x1="679.73" x2="679.73" y1="788.26" y2="352.04" gradientUnits="userSpaceOnUse">
		<stop stop-color="#F07A00" offset="0"/>
		<stop stop-color="#EF7401" offset="1"/>
	</linearGradient>
	<path d="m679.45 539.16c0.188-0.046 0.3757-0.0929 0.5632-0.1405-0.1875 0.0476-0.3751 0.0944-0.5632 0.1405z" fill="url(#gb)"/>
	<path d="m657.62 541.38c0.2427 0.017 0.4853 0.0341 0.7281 0.0486-0.2428-0.0145-0.4854-0.0316-0.7281-0.0486z" fill="#F38700"/>
	<linearGradient id="cx" x1="657.98" x2="657.98" y1="788.26" y2="399.59" gradientUnits="userSpaceOnUse">
		<stop stop-color="#F07A00" offset="0"/>
		<stop stop-color="#EF7401" offset="1"/>
	</linearGradient>
	<path d="m657.62 541.38c0.2427 0.017 0.4853 0.0341 0.7281 0.0486-0.2428-0.0145-0.4854-0.0316-0.7281-0.0486z" fill="url(#cx)"/>
	<path d="m663.56 541.51c0.2271-0.0071 0.4542-0.0161 0.6814-0.0264-0.2273 0.0103-0.4543 0.0193-0.6814 0.0264z" fill="#F38700"/>
	<linearGradient id="di" x1="663.9" x2="663.9" y1="788.26" y2="577.32" gradientUnits="userSpaceOnUse">
		<stop stop-color="#F07A00" offset="0"/>
		<stop stop-color="#EF7401" offset="1"/>
	</linearGradient>
	<path d="m663.56 541.51c0.2271-0.0071 0.4542-0.0161 0.6814-0.0264-0.2273 0.0103-0.4543 0.0193-0.6814 0.0264z" fill="url(#di)"/>
	<path d="m686.03 537.13c0.1785-0.0681 0.3563-0.1375 0.534-0.2078-0.1776 0.0704-0.3556 0.1398-0.534 0.2078z" fill="#F38700"/>
	<linearGradient id="gf" x1="686.3" x2="686.3" y1="788.26" y2="352.04" gradientUnits="userSpaceOnUse">
		<stop stop-color="#F07A00" offset="0"/>
		<stop stop-color="#EF7401" offset="1"/>
	</linearGradient>
	<path d="m686.03 537.13c0.1785-0.0681 0.3563-0.1375 0.534-0.2078-0.1776 0.0704-0.3556 0.1398-0.534 0.2078z" fill="url(#gf)"/>
	<path d="m1677.2 516.72c1.1018 0.3467 2.2043 0.694 3.3064 1.0433-1.102-0.3494-2.2045-0.6966-3.3064-1.0433z" fill="#F38700"/>
	<linearGradient id="dn" x1="1678.9" x2="1678.9" y1="788.26" y2="352.04" gradientUnits="userSpaceOnUse">
		<stop stop-color="#F07A00" offset="0"/>
		<stop stop-color="#EF7401" offset="1"/>
	</linearGradient>
	<path d="m1677.2 516.72c1.1018 0.3467 2.2043 0.694 3.3064 1.0433-1.102-0.3494-2.2045-0.6966-3.3064-1.0433z" fill="url(#dn)"/>
	<path d="m1689.2 520.65c1.201 0.4287 2.3982 0.8677 3.5864 1.3297-1.1882-0.462-2.3852-0.9009-3.5864-1.3297z" fill="#F38700"/>
	<linearGradient id="do" x1="1691" x2="1691" y1="788.26" y2="352.04" gradientUnits="userSpaceOnUse">
		<stop stop-color="#F07A00" offset="0"/>
		<stop stop-color="#EF7401" offset="1"/>
	</linearGradient>
	<path d="m1689.2 520.65c1.201 0.4287 2.3982 0.8677 3.5864 1.3297-1.1882-0.462-2.3852-0.9009-3.5864-1.3297z" fill="url(#do)"/>
	<path d="m1685.5 519.39c0.8362 0.2792 1.6697 0.5658 2.502 0.856-0.8323-0.2902-1.6658-0.5768-2.502-0.856z" fill="#F38700"/>
	<linearGradient id="dp" x1="1686.8" x2="1686.8" y1="788.26" y2="352.04" gradientUnits="userSpaceOnUse">
		<stop stop-color="#F07A00" offset="0"/>
		<stop stop-color="#EF7401" offset="1"/>
	</linearGradient>
	<path d="m1685.5 519.39c0.8362 0.2792 1.6697 0.5658 2.502 0.856-0.8323-0.2902-1.6658-0.5768-2.502-0.856z" fill="url(#dp)"/>
	<path d="m1705.8 527.62c0.5227 0.2083 1.0459 0.4159 1.5698 0.6221-0.5239-0.2062-1.047-0.4139-1.5698-0.6221z" fill="#F38700"/>
	<linearGradient id="dq" x1="1706.5" x2="1706.5" y1="788.26" y2="352.04" gradientUnits="userSpaceOnUse">
		<stop stop-color="#F07A00" offset="0"/>
		<stop stop-color="#EF7401" offset="1"/>
	</linearGradient>
	<path d="m1705.8 527.62c0.5227 0.2083 1.0459 0.4159 1.5698 0.6221-0.5239-0.2062-1.047-0.4139-1.5698-0.6221z" fill="url(#dq)"/>
	<path d="m1681.7 518.13c0.8523 0.2722 1.7036 0.5481 2.5538 0.8269-0.8503-0.279-1.7015-0.5547-2.5538-0.8269z" fill="#F38700"/>
	<linearGradient id="dr" x1="1682.9" x2="1682.9" y1="788.26" y2="352.04" gradientUnits="userSpaceOnUse">
		<stop stop-color="#F07A00" offset="0"/>
		<stop stop-color="#EF7401" offset="1"/>
	</linearGradient>
	<path d="m1681.7 518.13c0.8523 0.2722 1.7036 0.5481 2.5538 0.8269-0.8503-0.279-1.7015-0.5547-2.5538-0.8269z" fill="url(#dr)"/>
	<path d="m638.64 538.92c0.8358 0.1007 1.671 0.2119 2.506 0.3269-0.8349-0.115-1.6701-0.2262-2.506-0.3269z" fill="#F38700"/>
	<linearGradient id="ds" x1="639.89" x2="639.89" y1="788.26" y2="352.04" gradientUnits="userSpaceOnUse">
		<stop stop-color="#F07A00" offset="0"/>
		<stop stop-color="#EF7401" offset="1"/>
	</linearGradient>
	<path d="m638.64 538.92c0.8358 0.1007 1.671 0.2119 2.506 0.3269-0.8349-0.115-1.6701-0.2262-2.506-0.3269z" fill="url(#ds)"/>
	<path d="m634.56 538.51c1.3506 0.1036 2.6992 0.2429 4.0464 0.4048-1.3472-0.162-2.6958-0.3012-4.0464-0.4048z" fill="#F38700"/>
	<linearGradient id="dt" x1="636.58" x2="636.58" y1="788.26" y2="352.04" gradientUnits="userSpaceOnUse">
		<stop stop-color="#F07A00" offset="0"/>
		<stop stop-color="#EF7401" offset="1"/>
	</linearGradient>
	<path d="m634.56 538.51c1.3506 0.1036 2.6992 0.2429 4.0464 0.4048-1.3472-0.162-2.6958-0.3012-4.0464-0.4048z" fill="url(#dt)"/>
	<path d="m632.13 538.02c0.8102 0.1599 1.6196 0.3215 2.4267 0.4885-0.8071-0.167-1.6165-0.3286-2.4267-0.4885z" fill="#F38700"/>
	<linearGradient id="du" x1="633.35" x2="633.35" y1="788.26" y2="352.04" gradientUnits="userSpaceOnUse">
		<stop stop-color="#F07A00" offset="0"/>
		<stop stop-color="#EF7401" offset="1"/>
	</linearGradient>
	<path d="m632.13 538.02c0.8102 0.1599 1.6196 0.3215 2.4267 0.4885-0.8071-0.167-1.6165-0.3286-2.4267-0.4885z" fill="url(#du)"/>
	<path d="m629.55 537.52c0.6251 0.12 1.2495 0.2412 1.8735 0.363-0.624-0.1218-1.2484-0.2431-1.8735-0.363z" fill="#F38700"/>
	<linearGradient id="dv" x1="630.48" x2="630.48" y1="788.26" y2="352.04" gradientUnits="userSpaceOnUse">
		<stop stop-color="#F07A00" offset="0"/>
		<stop stop-color="#EF7401" offset="1"/>
	</linearGradient>
	<path d="m629.55 537.52c0.6251 0.12 1.2495 0.2412 1.8735 0.363-0.624-0.1218-1.2484-0.2431-1.8735-0.363z" fill="url(#dv)"/>
	<path d="m627.81 537.19c0.3484 0.0665 0.697 0.1333 1.0453 0.2-0.3483-0.0667-0.6968-0.1334-1.0453-0.2z" fill="#F38700"/>
	<linearGradient id="dw" x1="628.33" x2="628.33" y1="788.26" y2="352.04" gradientUnits="userSpaceOnUse">
		<stop stop-color="#F07A00" offset="0"/>
		<stop stop-color="#EF7401" offset="1"/>
	</linearGradient>
	<path d="m627.81 537.19c0.3484 0.0665 0.697 0.1333 1.0453 0.2-0.3483-0.0667-0.6968-0.1334-1.0453-0.2z" fill="url(#dw)"/>
	<path d="m655.07 541.17c0.208 0.021 0.4162 0.0383 0.6243 0.0579-0.2081-0.0196-0.4163-0.0369-0.6243-0.0579z" fill="#F38700"/>
	<linearGradient id="dy" x1="655.38" x2="655.38" y1="788.26" y2="352.04" gradientUnits="userSpaceOnUse">
		<stop stop-color="#F07A00" offset="0"/>
		<stop stop-color="#EF7401" offset="1"/>
	</linearGradient>
	<path d="m655.07 541.17c0.208 0.021 0.4162 0.0383 0.6243 0.0579-0.2081-0.0196-0.4163-0.0369-0.6243-0.0579z" fill="url(#dy)"/>
	<path d="m641.92 539.35c0.6403 0.0908 1.2806 0.1833 1.9207 0.2783-0.6401-0.0949-1.2803-0.1874-1.9207-0.2783z" fill="#F38700"/>
	<linearGradient id="dz" x1="642.88" x2="642.88" y1="788.26" y2="352.04" gradientUnits="userSpaceOnUse">
		<stop stop-color="#F07A00" offset="0"/>
		<stop stop-color="#EF7401" offset="1"/>
	</linearGradient>
	<path d="m641.92 539.35c0.6403 0.0908 1.2806 0.1833 1.9207 0.2783-0.6401-0.0949-1.2803-0.1874-1.9207-0.2783z" fill="url(#dz)"/>
	<path d="m649.26 540.44c0.2563 0.0369 0.5126 0.0729 0.7689 0.1089-0.2564-0.036-0.5127-0.072-0.7689-0.1089z" fill="#F38700"/>
	<linearGradient id="ea" x1="649.65" x2="649.65" y1="788.26" y2="352.04" gradientUnits="userSpaceOnUse">
		<stop stop-color="#F07A00" offset="0"/>
		<stop stop-color="#EF7401" offset="1"/>
	</linearGradient>
	<path d="m649.26 540.44c0.2563 0.0369 0.5126 0.0729 0.7689 0.1089-0.2564-0.036-0.5127-0.072-0.7689-0.1089z" fill="url(#ea)"/>
	<path d="m644.54 539.74c0.6302 0.0944 1.2605 0.1893 1.8906 0.2842-0.6301-0.0949-1.2603-0.1899-1.8906-0.2842z" fill="#F38700"/>
	<linearGradient id="eb" x1="645.48" x2="645.48" y1="788.26" y2="352.04" gradientUnits="userSpaceOnUse">
		<stop stop-color="#F07A00" offset="0"/>
		<stop stop-color="#EF7401" offset="1"/>
	</linearGradient>
	<path d="m644.54 539.74c0.6302 0.0944 1.2605 0.1893 1.8906 0.2842-0.6301-0.0949-1.2603-0.1899-1.8906-0.2842z" fill="url(#eb)"/>
	<path d="m652.1 540.82c0.167 0.0212 0.334 0.0444 0.501 0.0652-0.167-0.0208-0.334-0.044-0.501-0.0652z" fill="#F38700"/>
	<linearGradient id="ec" x1="652.35" x2="652.35" y1="788.26" y2="352.04" gradientUnits="userSpaceOnUse">
		<stop stop-color="#F07A00" offset="0"/>
		<stop stop-color="#EF7401" offset="1"/>
	</linearGradient>
	<path d="m652.1 540.82c0.167 0.0212 0.334 0.0444 0.501 0.0652-0.167-0.0208-0.334-0.044-0.501-0.0652z" fill="url(#ec)"/>
	<path d="m646.72 540.06c0.1519 0.0229 0.3038 0.0449 0.4557 0.0676-0.1518-0.0227-0.3038-0.0447-0.4557-0.0676z" fill="#F38700"/>
	<linearGradient id="ee" x1="646.95" x2="646.95" y1="788.26" y2="352.04" gradientUnits="userSpaceOnUse">
		<stop stop-color="#F07A00" offset="0"/>
		<stop stop-color="#EF7401" offset="1"/>
	</linearGradient>
	<path d="m646.72 540.06c0.1519 0.0229 0.3038 0.0449 0.4557 0.0676-0.1518-0.0227-0.3038-0.0447-0.4557-0.0676z" fill="url(#ee)"/>
	<path d="m1705.1 527.36c-2.1099-0.8491-4.2015-1.7383-6.2285-2.7773 1.385 0.71 2.7999 1.3506 4.2305 1.9561 0.6629 0.2806 1.3299 0.5523 1.998 0.8212z" fill="#F38700"/>
	<linearGradient id="ef" x1="1702" x2="1702" y1="788.26" y2="352.04" gradientUnits="userSpaceOnUse">
		<stop stop-color="#F07A00" offset="0"/>
		<stop stop-color="#EF7401" offset="1"/>
	</linearGradient>
	<path d="m1705.1 527.36c-2.1099-0.8491-4.2015-1.7383-6.2285-2.7773 1.385 0.71 2.7999 1.3506 4.2305 1.9561 0.6629 0.2806 1.3299 0.5523 1.998 0.8212z" fill="url(#ef)"/>
	<path d="m1709.5 529.1c0.0408 0.0162 0.0815 0.0323 0.1223 0.0487-0.0407-0.0164-0.0815-0.0325-0.1223-0.0487z" fill="#F38700"/>
	<linearGradient id="eg" x1="1709.6" x2="1709.6" y1="788.26" y2="398.61" gradientUnits="userSpaceOnUse">
		<stop stop-color="#F07A00" offset="0"/>
		<stop stop-color="#EF7401" offset="1"/>
	</linearGradient>
	<path d="m1709.5 529.1c0.0408 0.0162 0.0815 0.0323 0.1223 0.0487-0.0407-0.0164-0.0815-0.0325-0.1223-0.0487z" fill="url(#eg)"/>
	<path d="m683.88 537.9c-0.5478 0.1805-1.0987 0.3519-1.6525 0.5151 0.0027-7e-4 0.0054-0.0015 0.0081-0.0022 0.5511-0.1626 1.0993-0.3332 1.6444-0.5129z" fill="#F38700"/>
	<linearGradient id="eh" x1="683.06" x2="683.06" y1="788.26" y2="352.04" gradientUnits="userSpaceOnUse">
		<stop stop-color="#F07A00" offset="0"/>
		<stop stop-color="#EF7401" offset="1"/>
	</linearGradient>
	<path d="m683.88 537.9c-0.5478 0.1805-1.0987 0.3519-1.6525 0.5151 0.0027-7e-4 0.0054-0.0015 0.0081-0.0022 0.5511-0.1626 1.0993-0.3332 1.6444-0.5129z" fill="url(#eh)"/>
	<path d="m356.33 404.2c-2.0823 0.0266-4.1573 0.1511-6.2267 0.3501 1.2446-0.1196 2.4912-0.2146 3.7401-0.2771 0.8275-0.0415 1.6567-0.0625 2.4866-0.073z" fill="#F38700"/>
	<linearGradient id="ei" x1="353.21" x2="353.21" y1="788.26" y2="352.04" gradientUnits="userSpaceOnUse">
		<stop stop-color="#F07A00" offset="0"/>
		<stop stop-color="#EF7401" offset="1"/>
	</linearGradient>
	<path d="m356.33 404.2c-2.0823 0.0266-4.1573 0.1511-6.2267 0.3501 1.2446-0.1196 2.4912-0.2146 3.7401-0.2771 0.8275-0.0415 1.6567-0.0625 2.4866-0.073z" fill="url(#ei)"/>
	<path d="m660.87 541.54c-0.0055-2e-4 -0.011-4e-4 -0.0165-5e-4 0.0034 1e-4 0.0069 5e-4 0.0103 5e-4 0.0021 0 0.0042-1e-4 0.0062 0z" fill="#F38700"/>
	<linearGradient id="ek" x1="660.86" x2="660.86" y1="543.49" y2="539.58" gradientUnits="userSpaceOnUse">
		<stop stop-color="#F07A00" offset="0"/>
		<stop stop-color="#EF7401" offset="1"/>
	</linearGradient>
	<path d="m660.87 541.54c-0.0055-2e-4 -0.011-4e-4 -0.0165-5e-4 0.0034 1e-4 0.0069 5e-4 0.0103 5e-4 0.0021 0 0.0042-1e-4 0.0062 0z" fill="url(#ek)"/>
	<path d="m670.4 540.84c-0.0068 1e-3 -0.0137 0.0018-0.0206 0.0028 0.0042-6e-4 0.0082-1e-3 0.0124-0.0016 0.0028-3e-4 0.0055-9e-4 0.0082-0.0012z" fill="#F38700"/>
	<linearGradient id="el" x1="670.39" x2="670.39" y1="552.08" y2="529.62" gradientUnits="userSpaceOnUse">
		<stop stop-color="#F07A00" offset="0"/>
		<stop stop-color="#EF7401" offset="1"/>
	</linearGradient>
	<path d="m670.4 540.84c-0.0068 1e-3 -0.0137 0.0018-0.0206 0.0028 0.0042-6e-4 0.0082-1e-3 0.0124-0.0016 0.0028-3e-4 0.0055-9e-4 0.0082-0.0012z" fill="url(#el)"/>
	<path d="m505.97 484.59c-1.5154-1.2549-3.0282-2.5132-4.5386-3.7744 0.035 0.0293 0.0699 0.0585 0.1049 0.0876 1.4755 1.232 2.9534 2.461 4.4337 3.6868z" fill="#F38700"/>
	<linearGradient id="em" x1="503.7" x2="503.7" y1="788.26" y2="352.04" gradientUnits="userSpaceOnUse">
		<stop stop-color="#F07A00" offset="0"/>
		<stop stop-color="#EF7401" offset="1"/>
	</linearGradient>
	<path d="m505.97 484.59c-1.5154-1.2549-3.0282-2.5132-4.5386-3.7744 0.035 0.0293 0.0699 0.0585 0.1049 0.0876 1.4755 1.232 2.9534 2.461 4.4337 3.6868z" fill="url(#em)"/>
	<path d="m350.1 404.55c-1.864 0.1792-3.7238 0.4137-5.5812 0.677 1.2373-0.1753 2.4758-0.338 3.7156-0.48 0.6215-0.0713 1.2433-0.1372 1.8656-0.197z" fill="#F38700"/>
	<linearGradient id="en" x1="347.31" x2="347.31" y1="788.26" y2="352.04" gradientUnits="userSpaceOnUse">
		<stop stop-color="#F07A00" offset="0"/>
		<stop stop-color="#EF7401" offset="1"/>
	</linearGradient>
	<path d="m350.1 404.55c-1.864 0.1792-3.7238 0.4137-5.5812 0.677 1.2373-0.1753 2.4758-0.338 3.7156-0.48 0.6215-0.0713 1.2433-0.1372 1.8656-0.197z" fill="url(#en)"/>
	<path d="m288.95 412.11c-2.5095 0.4395-5.006 0.9519-7.4848 1.5425 1.2394-0.2953 2.4833-0.571 3.7309-0.8279 1.2477-0.257 2.4992-0.4949 3.7539-0.7146z" fill="#F38700"/>
	<linearGradient id="eo" x1="285.21" x2="285.21" y1="788.26" y2="352.04" gradientUnits="userSpaceOnUse">
		<stop stop-color="#F07A00" offset="0"/>
		<stop stop-color="#EF7401" offset="1"/>
	</linearGradient>
	<path d="m288.95 412.11c-2.5095 0.4395-5.006 0.9519-7.4848 1.5425 1.2394-0.2953 2.4833-0.571 3.7309-0.8279 1.2477-0.257 2.4992-0.4949 3.7539-0.7146z" fill="url(#eo)"/>
	<path d="m266.64 419.8c-1.7495 1.0901-3.4688 2.2401-5.1935 3.3735 0.0032-0.0021 0.0063-4e-3 0.0095-0.0061 1.7216-1.1314 3.4377-2.2793 5.184-3.3674z" fill="#F38700"/>
	<linearGradient id="ep" x1="264.04" x2="264.04" y1="788.26" y2="352.04" gradientUnits="userSpaceOnUse">
		<stop stop-color="#F07A00" offset="0"/>
		<stop stop-color="#EF7401" offset="1"/>
	</linearGradient>
	<path d="m266.64 419.8c-1.7495 1.0901-3.4688 2.2401-5.1935 3.3735 0.0032-0.0021 0.0063-4e-3 0.0095-0.0061 1.7216-1.1314 3.4377-2.2793 5.184-3.3674z" fill="url(#ep)"/>
	<path d="m343.58 405.37c-1.5401 0.226-3.079 0.4668-4.6176 0.7114 1.2288-0.1954 2.4579-0.3898 3.6876-0.5751 0.31-0.0467 0.62-0.0908 0.93-0.1363z" fill="#F38700"/>
	<linearGradient id="eq" x1="341.27" x2="341.27" y1="788.26" y2="352.04" gradientUnits="userSpaceOnUse">
		<stop stop-color="#F07A00" offset="0"/>
		<stop stop-color="#EF7401" offset="1"/>
	</linearGradient>
	<path d="m343.58 405.37c-1.5401 0.226-3.079 0.4668-4.6176 0.7114 1.2288-0.1954 2.4579-0.3898 3.6876-0.5751 0.31-0.0467 0.62-0.0908 0.93-0.1363z" fill="url(#eq)"/>
	<path d="m613.38 534.06c-0.0128-0.0034-0.0254-0.0068-0.0381-0.0103 7e-3 0.0018 0.0139 0.0039 0.0209 0.0059 0.0056 0.0014 0.0114 0.0029 0.0172 0.0044z" fill="#F38700"/>
	<linearGradient id="er" x1="613.36" x2="613.36" y1="575.07" y2="493.04" gradientUnits="userSpaceOnUse">
		<stop stop-color="#F07A00" offset="0"/>
		<stop stop-color="#EF7401" offset="1"/>
	</linearGradient>
	<path d="m613.38 534.06c-0.0128-0.0034-0.0254-0.0068-0.0381-0.0103 7e-3 0.0018 0.0139 0.0039 0.0209 0.0059 0.0056 0.0014 0.0114 0.0029 0.0172 0.0044z" fill="url(#er)"/>
	<linearGradient id="es" x1="912.62" x2="912.62" y1="788.26" y2="352.04" gradientUnits="userSpaceOnUse">
		<stop stop-color="#F07A00" offset="0"/>
		<stop stop-color="#EF7401" offset="1"/>
	</linearGradient>
	<path d="m1825.2 558.14c-13.57 7.22-25.58 16.97-37.25 26.88-12.72 11.62-26.04 22.57-38.4 34.58-13.16 12.52-27.05 24.25-39.82 37.17-7.99 7.72-14.99 16.37-22.36 24.66-12.25 13.73-23.84 28.02-36.17 41.67-9.1899 9.87-17.95 20.12-26.98 30.13-1.73 1.83-3.52 3.98-6.2 4.21-7.29-3.21-14.74-6.01-22.39-8.18-8.8499-2.64-17.51-5.86-26.35-8.52-11.81-3.65-22.69-9.6899-34.4-13.6-7.6699-2.63-15.33-5.3099-22.92-8.16-22.96-8.51-47.73-10.69-72.05-10.35-10.56 0.11-21.09-0.98-31.64-0.9301-12.46 0.02-24.9-2.1499-37.35-0.7999-20.68 2.58-41.44 5.4301-61.39 11.66-8.6001 2.5699-16.89 6.0499-25.48 8.6199-14 4.1801-27.26 10.46-41.21 14.74-9.3199 2.85-18.49 6.15-27.76 9.11-8.4401 2.42-16.76 5.17-25.01 8.14-8 2.84-15.67 6.52-23.69 9.32-9.96 3.49-19.67 7.65-29.53 11.42-9.38 3.55-19.28 5.41-28.85 8.35-9.99-1.08-19.25-5.59-28.05-10.19-15.98-7.76-30.43-19.1-48.01-23.18-19.99-4.55-40.5-6.29-60.94-7.29-22.87-0.12-45.81-3.06-67.65-10.01-15.12-4.9001-30.76-7.7401-46.35-10.63-11.81-2-23.23-5.6899-34.99-7.96-7.8501-1.6799-15.55-4.05-23.43-5.5901-18.25-3.2899-35.33-10.78-52.48-17.53-5.89-2.2001-11.92-3.98-17.79-6.1901-9.9401-3.47-19.3-8.3599-29.22-11.89-16.56-5.8101-31.63-15.07-46.18-24.73-13.49-10.07-27.32-19.73-41.87-28.21-13.63-8.6901-28.1-16.21-43.46-21.32-6.23-2.05-12.3-4.51-18.48-6.6901-9.8-3.41-18.64-9.0299-28.41-12.5-9.33-3.2599-18.16-7.92-27.77-10.34-8.83-2.51-17.97-3.6699-27.09-4.37-8.26-0.4-16.54 0.1901-24.79-0.4401-9.02-0.72-18.09-0.3999-27.1-1.23-6.54-0.5699-13.15-0.54-19.64 0.48-12.26 1.8901-24.57 3.8301-36.46 7.4401-9.75 2.7899-18.93 7.17-28.5 10.47-9.67 3.42-18.82 8.15-28.52 11.49-7.9 2.66-15.59 5.9-23.48 8.5699-7.82 2.6001-15.55 5.53-23.06 8.9202-9.56 4.6499-19.59 8.22-29.18 12.8-9.3 4.47-19.43 6.62-29.16 9.89-10.97 3.62-22.25 6.24-33.59 8.3999-9.06 1.5-18.29 1.28-27.37 2.6001-16.15 1.24-32.36 1.45-48.49 2.97-8.3701-5.02-16.97-9.6599-25.85-13.7-7.94-3.67-16.28-6.3401-24.39-9.5801-11.76-4.6399-24.09-7.55-36.29-10.78v-105.82l5.62 3.88h9l8.63-4.88 12.63 5.26 17.37 2.12 4.13-4.62 21.87 6.67 26.5 2.5699 13.63-5.15c5.78-1.51 10.91-4.7 16.25-7.27 5.07-2.6399 10.35-4.8999 15.26-7.83 9.82-6.2799 19.59-12.82 27.97-20.98 12.21-10.56 25.15-20.24 37.95-30.07 2.95-2.6001 6.05-4.99 9.25-7.23 2.4-1.6901 4.85-3.29 7.35-4.8401 7.47-4.64 15.28-8.8201 22.83-13.31 0.88-0.51 1.75-1.0399 2.62-1.59 0.01 0 0.01-0.0099 0.01-0.0099 0.87-0.54 1.72-1.1001 2.58-1.6602 0 0 0-0.01 0.01-0.01 1.72-1.1299 3.43-2.2799 5.18-3.3699 0.87-0.54 1.75-1.0701 2.65-1.5701 0.44-0.26 0.89-0.5 1.34-0.74 0.46-0.24 0.91-0.47 1.37-0.7 0.92-0.4401 1.86-0.8501 2.82-1.22 0.96-0.3701 1.94-0.7001 2.94-0.9701 1.23-0.34 2.46-0.65 3.7-0.95 1.24-0.29 2.49-0.5699 3.74-0.8199 1.24-0.26 2.49-0.5 3.75-0.7201 1.25-0.22 2.51-0.42 3.77-0.6 5.05-0.74 10.13-1.1899 15.22-1.4 7.31-0.23 14.47-1.76 21.7-2.65 1.51-0.1899 3.01-0.3999 4.52-0.6299 0.14-0.02 0.28-0.04 0.42-0.0601 1.46-0.23 2.92-0.46 4.38-0.6899 1.23-0.2001 2.46-0.3901 3.69-0.5801 0.31-0.04 0.62-0.0901 0.93-0.13 0.31-0.0499 0.63-0.1 0.94-0.14 1.24-0.1799 2.48-0.34 3.72-0.48 0.62-0.0701 1.24-0.14 1.86-0.2 1.25-0.1201 2.4901-0.21 3.7401-0.27 0.83-0.05 1.66-0.0701 2.49-0.0801h0.63c0.84 0 1.68 0 2.52 0.04 0.93 0.0701 1.86 0.15 2.79 0.25 0.26 0.02 0.53 0.05 0.79 0.0801 0.72 0.08 1.44 0.1699 2.16 0.26 0.2401 0.0399 0.48 0.0599 0.72 0.0999 0.92 0.1301 1.84 0.27 2.76 0.4301 0.17 0.03 0.34 0.0699 0.51 0.1 0.7599 0.1301 1.52 0.28 2.28 0.4401 0.28 0.0599 0.55 0.12 0.82 0.1801 0.76 0.1699 1.51 0.3398 2.26 0.5299 0.17 0.0499 0.34 0.09 0.51 0.13 0.9 0.23 1.8 0.49 2.69 0.75 0.23 0.0701 0.46 0.15 0.69 0.22 0.69 0.21 1.37 0.4401 2.06 0.6801 0.25 0.08 0.51 0.17 0.76 0.26 0.8799 0.3199 1.7599 0.65 2.62 1 0.0099 0 0.0099 0.0099 0.02 0.0099 0.8 0.3301 1.59 0.6702 2.37 1.03 0.25 0.1201 0.4901 0.24 0.7401 0.3501 0.55 0.26 1.09 0.53 1.6299 0.8099l0.81 0.42c0.54 0.29 1.07 0.58 1.6 0.8899 0.24 0.1301 0.47 0.26 0.71 0.4001 0.75 0.45 1.49 0.9099 2.22 1.3899 8.45 4.8801 16.92 9.71 25.44 14.44 4.27 2.37 8.54 4.71 12.83 7.0299 4.29 2.3101 8.59 4.6001 12.91 6.8601 0.79 0.47 1.59 0.9199 2.4 1.36 0.28 0.16 0.57 0.2999 0.86 0.4501 0.53 0.2899 1.07 0.5698 1.61 0.8398 0.35 0.1801 0.71 0.3501 1.06 0.53 0.52 0.25 1.04 0.51 1.56 0.76 0.62 0.3 1.24 0.6001 1.86 0.9 0.43 0.2101 0.86 0.42 1.29 0.63 0.51 0.25 1.01 0.5 1.51 0.76 0.35 0.1699 0.69 0.34 1.03 0.52 0.54 0.27 1.07 0.5601 1.61 0.85 0.28 0.15 0.5601 0.2999 0.84 0.4501 0.8 0.45 1.6 0.9099 2.38 1.3999 0.82 0.51 1.63 1.05 2.42 1.62 1.65 1.2001 3.35 2.35 5.06 3.4701 1.27 0.83 2.55 1.6499 3.83 2.47 1.3 0.8199 2.59 1.6499 3.87 2.48 1.73 1.13 3.43 2.27 5.1 3.48 0.83 0.6 1.64 1.21 2.45 1.8401 1.61 1.2699 3.21 2.5599 4.8 3.8499 0.5 0.41 0.9901 0.8201 1.4901 1.22 1.17 0.9601 2.33 1.9202 3.49 2.8801 0.49 0.3999 0.98 0.8099 1.47 1.21 1.42 1.1899 2.84 2.38 4.26 3.5701 0.04 0.02 0.07 0.0499 0.11 0.08 1.47 1.24 2.95 2.46 4.43 3.6901 0.3701 0.2999 0.73 0.5999 1.09 0.8999 1.53 1.26 3.06 2.51 4.6 3.75l0.75 0.6001c1.4 1.1299 2.8 2.24 4.22 3.3398 0.27 0.2101 0.54 0.42 0.81 0.6301 1.55 1.1899 3.11 2.3699 4.68 3.52 0.34 0.25 0.69 0.5 1.03 0.75 1.64 1.1899 3.29 2.3599 4.96 3.5 1.44 1.0898 2.88 2.2 4.32 3.2999 2.16 1.66 4.33 3.2999 6.56 4.85 0.75 0.51 1.5 1.02 2.26 1.51 1.52 0.98 3.09 1.9 4.7 2.74 1.35 0.73 2.73 1.38 4.13 1.97 1.4 0.5901 2.82 1.1101 4.26 1.5901 0.97 0.3199 1.95 0.6199 2.93 0.8999 0.25 0.0701 0.49 0.1401 0.74 0.2101 2.16 0.61 4.35 1.15 6.55 1.67 0.19 0.0499 0.38 0.0898 0.57 0.1399 0.73 0.17 1.46 0.3401 2.19 0.51 0.1 0.02 0.21 0.05 0.31 0.0701 0.41 0.1 0.83 0.1899 1.24 0.29 1.16 0.2699 2.3 0.5499 3.45 0.8298 0.17 0.05 0.34 0.0901 0.52 0.1401 1.19 0.2999 2.39 0.6099 3.5699 0.96 1.46 0.4199 2.91 0.87 4.34 1.38 1.97 0.42 3.94 0.8199 5.91 1.25 0.98 0.21 1.97 0.42 2.95 0.65 0.87 0.2 1.75 0.4099 2.62 0.6199 0.25 0.0601 0.51 0.1301 0.76 0.1901 0.66 0.17 1.31 0.34 1.96 0.52 0.26 0.0699 0.52 0.14 0.79 0.2101 0.87 0.25 1.75 0.51 2.62 0.7799 1.92 0.61 3.81 1.29 5.68 2.0699 0.7 0.29 1.4 0.5601 2.1 0.8301 0.23 0.0801 0.45 0.1599 0.68 0.24 0.49 0.1799 0.98 0.35 1.48 0.52 0.25 0.08 0.5 0.1699 0.75 0.25 0.49 0.1599 0.99 0.3201 1.5 0.47 0.22 0.0701 0.44 0.14 0.66 0.2 0.71 0.2101 1.42 0.41 2.13 0.6101h0.03s0.01 0 0.01 0.01c0.78 0.21 1.56 0.3999 2.35 0.5999 0.23 0.05 0.46 0.1101 0.68 0.1602 0.61 0.1499 1.22 0.2899 1.83 0.4299 0.2 0.04 0.4 0.0901 0.59 0.13 0.79 0.17 1.57 0.34 2.36 0.5 0.15 0.0399 0.3 0.0699 0.45 0.1 0.67 0.13 1.34 0.27 2.01 0.4 0.23 0.0499 0.47 0.09 0.7 0.14 0.67 0.13 1.34 0.26 2.01 0.3899 0.14 0.02 0.28 0.05 0.41 0.0801 0.35 0.0601 0.69 0.13 1.04 0.2 0.35 0.0601 0.7 0.1301 1.04 0.2001 0.2401 0.0399 0.47 0.08 0.7 0.13 0.62 0.12 1.25 0.24 1.87 0.36 0.24 0.0499 0.48 0.09 0.71 0.14 0.81 0.1599 1.62 0.3201 2.43 0.49 1.35 0.1 2.7 0.24 4.05 0.3999 0.01 0.01 0.02 0.01 0.03 0.01 0.83 0.1001 1.67 0.2101 2.5 0.3301 0.26 0.03 0.52 0.0701 0.78 0.1 0.64 0.1 1.28 0.1901 1.92 0.28 0.24 0.0399 0.47 0.0699 0.7 0.11 0.63 0.0901 1.26 0.1899 1.89 0.28 0.1 0.01 0.2 0.03 0.29 0.04 0.16 0.03 0.3101 0.0499 0.46 0.0699 0.69 0.11 1.39 0.2101 2.08 0.3099 0.26 0.03 0.52 0.0701 0.77 0.1101 0.6899 0.09 1.3799 0.1899 2.0699 0.27 0.16 0.02 0.33 0.0499 0.5 0.0699 0.82 0.1 1.64 0.1901 2.47 0.2799 0.2 0.02 0.41 0.03 0.62 0.05 0.64 0.0601 1.29 0.1201 1.93 0.16 0.24 0.02 0.48 0.0299 0.73 0.0499 0.83 0.05 1.67 0.0901 2.5 0.1001l0.01 0.01h0.01c0.9 0.01 1.79 0 2.69-0.03 0.23 0 0.45-0.01 0.68-0.02 0.91-0.05 1.83-0.1 2.74-0.2 1.13-0.14 2.27-0.28 3.4-0.4401h0.02v-0.0099c1.14-0.1602 2.28-0.3301 3.41-0.52 1.9-0.3301 3.78-0.7101 5.64-1.1602 0.18-0.0499 0.37-0.0898 0.56-0.1399 0.74-0.1899 1.49-0.39 2.22-0.6001 0-0.01 0.01-0.01 0.01-0.01 0.55-0.1599 1.1-0.3298 1.64-0.5099 0.73-0.2401 1.44-0.5 2.15-0.77l0.54-0.2101c0.71-0.2799 1.42-0.5798 2.12-0.8999 1.57-0.71 3.09-1.53 4.57-2.46 8.66-4.54 16.44-10.55 25.07-15.15 13.34-7.0898 27.3-14.45 42.72-15.16 11.3-1.53 22.83 0.26 34.03-2.1799 8.6099-1.8801 17.32-3.26 25.93-5.1801 7.51-1.7301 15.28-1.5699 22.94-1.36 11.61 0.3199 22.36 5.1399 33.44 8.08 8.2999 2.86 16.92 4.67 25.71 5 9.3099 1.41 18.58-0.73 27.9-0.92 6-0.1799 11.97-1.1499 17.99-0.76 6.99 0.4601 14.03 0.1301 21 0.99 8.64 1 17.31 2.04 26.03 1.79 8.7-0.26 17.35 0.8101 25.95 2.04 17.29 2.36 34.86-1.8201 50.4-9.38 8.15-3.7101 15.11-9.41 22-15.02 2.15-2.0399 4.26-4.12 6.51-6.0599 15.42-14.07 28.62-30.33 42.64-45.75 10.12-12.09 23.11-21.31 36.31-29.75 9.7-6.3201 20.54-10.59 30.6-16.27 8.48-4.2 15.79-10.27 23.63-15.5 8.6199-6.55 18.44-11.23 28.2-15.82 6.59-3.28 13.86-4.9399 21.21-5.1599 5.71 0.5699 11.51 0.27 17.17 1.3799 8.74 1.6501 17.67 2.28 26.27 4.6501 5.9801 1.4099 12.15 2.0599 17.99 4.0599 12.51 4.2799 25.2 8.12 38.19 10.65 7.74 1.46 14.76 5.3999 22.57 6.5601 7.14 1.0103 14.14 2.8803 21.35 3.4203 8.95 0.72 17.2 4.51 25.38 7.9099 15.16 5.53 29.51 13.12 43.04 21.88 9.6901 6.27 20.59 10.42 30.21 16.83 7.41 4.9301 14.81 9.89 22.23 14.81 7.89 5.7001 16.27 10.72 25.11 14.79 6.73 2.96 12.92 6.9399 18.87 11.24 7.3 5.3601 15.79 8.6899 23.4 13.54 10.42 5.9299 20.98 11.65 31.5 17.41 6.1599 3.26 11.94 7.2201 18.27 10.17 2.96 1.4299 5.96 2.8198 8.8999 4.3398 0.6101 0.1901 1.2101 0.3801 1.8201 0.5801 0.49 0.1499 0.98 0.3101 1.47 0.46 1.1101 0.3501 2.21 0.7 3.3101 1.05 0.38 0.12 0.76 0.24 1.1399 0.36 0.8601 0.27 1.7101 0.5499 2.5601 0.83 0.4301 0.14 0.8701 0.28 1.3 0.4301 0.84 0.2799 1.6699 0.5699 2.5 0.86 0.3899 0.13 0.78 0.27 1.1699 0.4 1.2001 0.4301 2.4001 0.87 3.5901 1.33 2.0601 0.8101 4.1 1.66 6.1 2.6001 1.39 0.71 2.7999 1.3499 4.23 1.96 0.66 0.28 1.33 0.55 2 0.8199 0.2101 0.08 0.4301 0.17 0.64 0.26 0.53 0.2001 1.05 0.41 1.5701 0.62 0.73 0.28 1.46 0.5701 2.1799 0.86 0.04 0.02 0.0801 0.03 0.13 0.05 0.63 0.25 1.25 0.5099 1.88 0.7699 0.1899 0.0801 0.38 0.1602 0.5701 0.24 0.47 0.2001 0.95 0.4102 1.4299 0.6201 0.1899 0.09 0.39 0.1699 0.5801 0.26 0.6499 0.3 1.2899 0.6 1.9199 0.9199 7.6599 3.74 15.36 7.79 23.86 9.28 1.3298 0.25 2.6699 0.51 4 0.77 0.9199 0.1799 1.8398 0.37 2.7598 0.5601 0.3901 0.0699 0.79 0.1499 1.1802 0.23 1.1499 0.24 2.2998 0.48 3.45 0.72 0.1499 0.03 0.29 0.0601 0.4399 0.09 1.23 0.26 2.46 0.53 3.6902 0.7999 0.0698 0.02 0.1299 0.03 0.2 0.05 1.28 0.28 2.5598 0.5701 3.8298 0.8701 0.01 0.01 0.02 0.01 0.03 0.01 3.8901 0.9199 7.77 1.8999 11.62 2.99 0.8298 0.23 1.6699 0.46 2.51 0.71 8.3101 2.79 17.1 3.6399 25.6 5.7 8.5699 1.8201 17.22 3.8201 26.06 3.4z" fill="url(#es)"/>
	<path d="m1751.7 543.61c1.2319 0.262 2.4626 0.5295 3.6919 0.803-1.2295-0.273-2.46-0.5417-3.6919-0.803z" fill="#F38700"/>
	<linearGradient id="et" x1="1753.5" x2="1753.5" y1="788.26" y2="352.04" gradientUnits="userSpaceOnUse">
		<stop stop-color="#F07A00" offset="0"/>
		<stop stop-color="#EF7401" offset="1"/>
	</linearGradient>
	<path d="m1751.7 543.61c1.2319 0.262 2.4626 0.5295 3.6919 0.803-1.2295-0.273-2.46-0.5417-3.6919-0.803z" fill="url(#et)"/>
	<path d="m1743.9 542.01c0.9209 0.1809 1.8411 0.3663 2.761 0.5516-0.9202-0.1849-1.8401-0.371-2.761-0.5516z" fill="#F38700"/>
	<linearGradient id="ev" x1="1745.3" x2="1745.3" y1="788.26" y2="352.04" gradientUnits="userSpaceOnUse">
		<stop stop-color="#F07A00" offset="0"/>
		<stop stop-color="#EF7401" offset="1"/>
	</linearGradient>
	<path d="m1743.9 542.01c0.9209 0.1809 1.8411 0.3663 2.761 0.5516-0.9202-0.1849-1.8401-0.371-2.761-0.5516z" fill="url(#ev)"/>
	<path d="m1711.5 529.92c0.1895 0.079 0.3782 0.1602 0.5671 0.2402-0.1889-0.0801-0.3776-0.1612-0.5671-0.2402z" fill="#F38700"/>
	<linearGradient id="ew" x1="1711.8" x2="1711.8" y1="788.26" y2="352.04" gradientUnits="userSpaceOnUse">
		<stop stop-color="#F07A00" offset="0"/>
		<stop stop-color="#EF7401" offset="1"/>
	</linearGradient>
	<path d="m1711.5 529.92c0.1895 0.079 0.3782 0.1602 0.5671 0.2402-0.1889-0.0801-0.3776-0.1612-0.5671-0.2402z" fill="url(#ew)"/>
	<path d="m1755.6 544.46c1.2791 0.2852 2.5564 0.5771 3.832 0.8767-1.2759-0.299-2.5527-0.5921-3.832-0.8767z" fill="#F38700"/>
	<linearGradient id="ex" x1="1757.5" x2="1757.5" y1="788.26" y2="352.04" gradientUnits="userSpaceOnUse">
		<stop stop-color="#F07A00" offset="0"/>
		<stop stop-color="#EF7401" offset="1"/>
	</linearGradient>
	<path d="m1755.6 544.46c1.2791 0.2852 2.5564 0.5771 3.832 0.8767-1.2759-0.299-2.5527-0.5921-3.832-0.8767z" fill="url(#ex)"/>
	<path d="m1747.8 542.8c1.1501 0.2343 2.2993 0.4736 3.448 0.7166-1.1487-0.2425-2.2976-0.4827-3.448-0.7166z" fill="#F38700"/>
	<linearGradient id="ey" x1="1749.5" x2="1749.5" y1="788.26" y2="352.04" gradientUnits="userSpaceOnUse">
		<stop stop-color="#F07A00" offset="0"/>
		<stop stop-color="#EF7401" offset="1"/>
	</linearGradient>
	<path d="m1747.8 542.8c1.1501 0.2343 2.2993 0.4736 3.448 0.7166-1.1487-0.2425-2.2976-0.4827-3.448-0.7166z" fill="url(#ey)"/>
	<path d="m1773.6 549.04c-4.6743-1.3752-9.3889-2.5874-14.127-3.699 3.8904 0.9146 7.7642 1.9008 11.614 2.9854 0.8384 0.2361 1.6777 0.4678 2.5137 0.7136z" fill="#F38700"/>
	<linearGradient id="ez" x1="1766.5" x2="1766.5" y1="788.26" y2="352.04" gradientUnits="userSpaceOnUse">
		<stop stop-color="#F07A00" offset="0"/>
		<stop stop-color="#EF7401" offset="1"/>
	</linearGradient>
	<path d="m1773.6 549.04c-4.6743-1.3752-9.3889-2.5874-14.127-3.699 3.8904 0.9146 7.7642 1.9008 11.614 2.9854 0.8384 0.2361 1.6777 0.4678 2.5137 0.7136z" fill="url(#ez)"/>
	<path d="m1263.4 527.81c-1.0614 0.0868-2.1224 0.1371-3.1831 0.1711 1.0607-0.0341 2.1217-0.0843 3.1831-0.1711z" fill="#F38700"/>
	<linearGradient id="fa" x1="1261.8" x2="1261.8" y1="788.26" y2="352.04" gradientUnits="userSpaceOnUse">
		<stop stop-color="#F07A00" offset="0"/>
		<stop stop-color="#EF7401" offset="1"/>
	</linearGradient>
	<path d="m1263.4 527.81c-1.0614 0.0868-2.1224 0.1371-3.1831 0.1711 1.0607-0.0341 2.1217-0.0843 3.1831-0.1711z" fill="url(#fa)"/>
	<path d="m1259.4 528c-1.0554 0.021-2.1101 0.0259-3.1628-0.0034 1.0527 0.0292 2.1074 0.0243 3.1628 0.0034z" fill="#F38700"/>
	<linearGradient id="fb" x1="1257.8" x2="1257.8" y1="610.31" y2="445.73" gradientUnits="userSpaceOnUse">
		<stop stop-color="#F07A00" offset="0"/>
		<stop stop-color="#EF7401" offset="1"/>
	</linearGradient>
	<path d="m1259.4 528c-1.0554 0.021-2.1101 0.0259-3.1628-0.0034 1.0527 0.0292 2.1074 0.0243 3.1628 0.0034z" fill="url(#fb)"/>
	<path d="m626.36 536.91c0.1364 0.0262 0.2727 0.0527 0.4092 0.0789-0.1364-0.0262-0.2728-0.0527-0.4092-0.0789z" fill="#F38700"/>
	<linearGradient id="fc" x1="626.57" x2="626.57" y1="788.26" y2="352.04" gradientUnits="userSpaceOnUse">
		<stop stop-color="#F07A00" offset="0"/>
		<stop stop-color="#EF7401" offset="1"/>
	</linearGradient>
	<path d="m626.36 536.91c0.1364 0.0262 0.2727 0.0527 0.4092 0.0789-0.1364-0.0262-0.2728-0.0527-0.4092-0.0789z" fill="url(#fc)"/>
	<path d="m1713.5 530.78c0.1952 0.0872 0.3906 0.1738 0.5851 0.2629-0.1945-0.0891-0.3899-0.1758-0.5851-0.2629z" fill="#F38700"/>
	<linearGradient id="fd" x1="1713.8" x2="1713.8" y1="788.26" y2="352.04" gradientUnits="userSpaceOnUse">
		<stop stop-color="#F07A00" offset="0"/>
		<stop stop-color="#EF7401" offset="1"/>
	</linearGradient>
	<path d="m1713.5 530.78c0.1952 0.0872 0.3906 0.1738 0.5851 0.2629-0.1945-0.0891-0.3899-0.1758-0.5851-0.2629z" fill="url(#fd)"/>
	<path d="m623.65 536.38c0.2358 0.0466 0.4715 0.0931 0.7074 0.1394-0.2359-0.0461-0.4716-0.0928-0.7074-0.1394z" fill="#F38700"/>
	<linearGradient id="ff" x1="624" x2="624" y1="788.26" y2="352.04" gradientUnits="userSpaceOnUse">
		<stop stop-color="#F07A00" offset="0"/>
		<stop stop-color="#EF7401" offset="1"/>
	</linearGradient>
	<path d="m623.65 536.38c0.2358 0.0466 0.4715 0.0931 0.7074 0.1394-0.2359-0.0461-0.4716-0.0928-0.7074-0.1394z" fill="url(#ff)"/>
	<path d="m391.78 413.56c0.7496 0.4454 1.4923 0.9038 2.2219 1.386-0.7296-0.4822-1.4724-0.9406-2.2219-1.386z" fill="#F38700"/>
	<linearGradient id="fg" x1="392.89" x2="392.89" y1="788.26" y2="352.04" gradientUnits="userSpaceOnUse">
		<stop stop-color="#F07A00" offset="0"/>
		<stop stop-color="#EF7401" offset="1"/>
	</linearGradient>
	<path d="m391.78 413.56c0.7496 0.4454 1.4923 0.9038 2.2219 1.386-0.7296-0.4822-1.4724-0.9406-2.2219-1.386z" fill="url(#fg)"/>
	<path d="m445.18 443.28c0.7894 0.4736 1.5915 0.9238 2.4002 1.3619-0.8087-0.438-1.6108-0.8882-2.4002-1.3619z" fill="#F38700"/>
	<linearGradient id="fh" x1="446.38" x2="446.38" y1="788.26" y2="352.04" gradientUnits="userSpaceOnUse">
		<stop stop-color="#F07A00" offset="0"/>
		<stop stop-color="#EF7401" offset="1"/>
	</linearGradient>
	<path d="m445.18 443.28c0.7894 0.4736 1.5915 0.9238 2.4002 1.3619-0.8087-0.438-1.6108-0.8882-2.4002-1.3619z" fill="url(#fh)"/>
	<path d="m383.92 409.66c0.7993 0.3269 1.5896 0.6746 2.3744 1.0342-0.7849-0.3596-1.5751-0.7073-2.3744-1.0342z" fill="#F38700"/>
	<linearGradient id="fi" x1="385.11" x2="385.11" y1="788.26" y2="352.04" gradientUnits="userSpaceOnUse">
		<stop stop-color="#F07A00" offset="0"/>
		<stop stop-color="#EF7401" offset="1"/>
	</linearGradient>
	<path d="m383.92 409.66c0.7993 0.3269 1.5896 0.6746 2.3744 1.0342-0.7849-0.3596-1.5751-0.7073-2.3744-1.0342z" fill="url(#fi)"/>
	<path d="m387.03 411.04c0.5494 0.2609 1.0956 0.5287 1.6371 0.8064-0.5414-0.2778-1.0875-0.5456-1.6371-0.8064z" fill="#F38700"/>
	<linearGradient id="fj" x1="387.85" x2="387.85" y1="788.26" y2="352.04" gradientUnits="userSpaceOnUse">
		<stop stop-color="#F07A00" offset="0"/>
		<stop stop-color="#EF7401" offset="1"/>
	</linearGradient>
	<path d="m387.03 411.04c0.5494 0.2609 1.0956 0.5287 1.6371 0.8064-0.5414-0.2778-1.0875-0.5456-1.6371-0.8064z" fill="url(#fj)"/>
	<path d="m459.97 450.88c0.2818 0.1523 0.5662 0.3004 0.8459 0.4565-0.2797-0.1562-0.564-0.3041-0.8459-0.4565z" fill="#F38700"/>
	<linearGradient id="fk" x1="460.39" x2="460.39" y1="788.26" y2="352.04" gradientUnits="userSpaceOnUse">
		<stop stop-color="#F07A00" offset="0"/>
		<stop stop-color="#EF7401" offset="1"/>
	</linearGradient>
	<path d="m459.97 450.88c0.2818 0.1523 0.5662 0.3004 0.8459 0.4565-0.2797-0.1562-0.564-0.3041-0.8459-0.4565z" fill="url(#fk)"/>
	<path d="m457.33 449.51c0.3441 0.1726 0.6882 0.345 1.0303 0.5208-0.3421-0.1759-0.6863-0.3482-1.0303-0.5208z" fill="#F38700"/>
	<linearGradient id="fl" x1="457.85" x2="457.85" y1="788.26" y2="352.04" gradientUnits="userSpaceOnUse">
		<stop stop-color="#F07A00" offset="0"/>
		<stop stop-color="#EF7401" offset="1"/>
	</linearGradient>
	<path d="m457.33 449.51c0.3441 0.1726 0.6882 0.345 1.0303 0.5208-0.3421-0.1759-0.6863-0.3482-1.0303-0.5208z" fill="url(#fl)"/>
	<path d="m381.28 408.65c0.8793 0.3162 1.754 0.6443 2.6183 0.9976-0.8643-0.3533-1.739-0.6814-2.6183-0.9976z" fill="#F38700"/>
	<linearGradient id="fm" x1="382.59" x2="382.59" y1="788.26" y2="352.04" gradientUnits="userSpaceOnUse">
		<stop stop-color="#F07A00" offset="0"/>
		<stop stop-color="#EF7401" offset="1"/>
	</linearGradient>
	<path d="m381.28 408.65c0.8793 0.3162 1.754 0.6443 2.6183 0.9976-0.8643-0.3533-1.739-0.6814-2.6183-0.9976z" fill="url(#fm)"/>
	<path d="m454.53 448.12c0.4324 0.2092 0.8638 0.4202 1.2952 0.6312-0.4314-0.2111-0.8629-0.422-1.2952-0.6312z" fill="#F38700"/>
	<linearGradient id="fn" x1="455.17" x2="455.17" y1="788.26" y2="352.04" gradientUnits="userSpaceOnUse">
		<stop stop-color="#F07A00" offset="0"/>
		<stop stop-color="#EF7401" offset="1"/>
	</linearGradient>
	<path d="m454.53 448.12c0.4324 0.2092 0.8638 0.4202 1.2952 0.6312-0.4314-0.2111-0.8629-0.422-1.2952-0.6312z" fill="url(#fn)"/>
	<path d="m451.11 446.46c0.5187 0.2561 1.0372 0.5125 1.5578 0.7651-0.5206-0.2525-1.0391-0.509-1.5578-0.7651z" fill="#F38700"/>
	<linearGradient id="fo" x1="451.89" x2="451.89" y1="788.26" y2="352.04" gradientUnits="userSpaceOnUse">
		<stop stop-color="#F07A00" offset="0"/>
		<stop stop-color="#EF7401" offset="1"/>
	</linearGradient>
	<path d="m451.11 446.46c0.5187 0.2561 1.0372 0.5125 1.5578 0.7651-0.5206-0.2525-1.0391-0.509-1.5578-0.7651z" fill="url(#fo)"/>
	<path d="m448.44 445.09c0.5363 0.2822 1.0728 0.564 1.6143 0.8369-0.5415-0.273-1.078-0.5547-1.6143-0.8369z" fill="#F38700"/>
	<linearGradient id="fp" x1="449.24" x2="449.24" y1="788.26" y2="352.04" gradientUnits="userSpaceOnUse">
		<stop stop-color="#F07A00" offset="0"/>
		<stop stop-color="#EF7401" offset="1"/>
	</linearGradient>
	<path d="m448.44 445.09c0.5363 0.2822 1.0728 0.564 1.6143 0.8369-0.5415-0.273-1.078-0.5547-1.6143-0.8369z" fill="url(#fp)"/>
	<path d="m474.5 460.29c1.2931 0.825 2.5862 1.6497 3.8708 2.4875-1.2844-0.8378-2.5777-1.6625-3.8708-2.4875z" fill="#F38700"/>
	<linearGradient id="fr" x1="476.44" x2="476.44" y1="788.26" y2="352.04" gradientUnits="userSpaceOnUse">
		<stop stop-color="#F07A00" offset="0"/>
		<stop stop-color="#EF7401" offset="1"/>
	</linearGradient>
	<path d="m474.5 460.29c1.2931 0.825 2.5862 1.6497 3.8708 2.4875-1.2844-0.8378-2.5777-1.6625-3.8708-2.4875z" fill="url(#fr)"/>
	<path d="m356.96 404.2c0.84-0.0022 1.6808 0.0066 2.5236 0.0417-0.8428-0.0351-1.6837-0.0439-2.5236-0.0417z" fill="#F38700"/>
	<linearGradient id="fs" x1="358.22" x2="358.22" y1="788.26" y2="451.75" gradientUnits="userSpaceOnUse">
		<stop stop-color="#F07A00" offset="0"/>
		<stop stop-color="#EF7401" offset="1"/>
	</linearGradient>
	<path d="m356.96 404.2c0.84-0.0022 1.6808 0.0066 2.5236 0.0417-0.8428-0.0351-1.6837-0.0439-2.5236-0.0417z" fill="url(#fs)"/>
	<path d="m334.16 406.83c0.1397-0.0211 0.2794-0.0421 0.4191-0.0634-0.1396 0.0213-0.2794 0.0423-0.4191 0.0634z" fill="#F38700"/>
	<linearGradient id="ft" x1="334.37" x2="334.37" y1="788.26" y2="352.04" gradientUnits="userSpaceOnUse">
		<stop stop-color="#F07A00" offset="0"/>
		<stop stop-color="#EF7401" offset="1"/>
	</linearGradient>
	<path d="m334.16 406.83c0.1397-0.0211 0.2794-0.0421 0.4191-0.0634-0.1396 0.0213-0.2794 0.0423-0.4191 0.0634z" fill="url(#ft)"/>
	<path d="m266.64 419.8c0.8731-0.5439 1.7538-1.0732 2.6463-1.5779-0.8925 0.5047-1.7732 1.034-2.6463 1.5779z" fill="#F38700"/>
	<linearGradient id="fu" x1="267.96" x2="267.96" y1="788.26" y2="352.04" gradientUnits="userSpaceOnUse">
		<stop stop-color="#F07A00" offset="0"/>
		<stop stop-color="#EF7401" offset="1"/>
	</linearGradient>
	<path d="m266.64 419.8c0.8731-0.5439 1.7538-1.0732 2.6463-1.5779-0.8925 0.5047-1.7732 1.034-2.6463 1.5779z" fill="url(#fu)"/>
	<path d="m258.86 424.85c0.0047-0.0029 0.0094-6e-3 0.0141-0.0089-0.0047 0.0031-0.0094 6e-3 -0.0141 0.0089z" fill="#F38700"/>
	<linearGradient id="fv" x1="258.87" x2="258.87" y1="460.49" y2="389.2" gradientUnits="userSpaceOnUse">
		<stop stop-color="#F07A00" offset="0"/>
		<stop stop-color="#EF7401" offset="1"/>
	</linearGradient>
	<path d="m258.86 424.85c0.0047-0.0029 0.0094-6e-3 0.0141-0.0089-0.0047 0.0031-0.0094 6e-3 -0.0141 0.0089z" fill="url(#fv)"/>
	<path d="m359.48 404.24c0.9284 0.0669 1.8577 0.1516 2.7868 0.2454-0.9291-0.0938-1.8583-0.1785-2.7868-0.2454z" fill="#F38700"/>
	<linearGradient id="fw" x1="360.87" x2="360.87" y1="788.26" y2="352.04" gradientUnits="userSpaceOnUse">
		<stop stop-color="#F07A00" offset="0"/>
		<stop stop-color="#EF7401" offset="1"/>
	</linearGradient>
	<path d="m359.48 404.24c0.9284 0.0669 1.8577 0.1516 2.7868 0.2454-0.9291-0.0938-1.8583-0.1785-2.7868-0.2454z" fill="url(#fw)"/>
	<path d="m365.94 404.93c0.9236 0.1307 1.8458 0.2744 2.7656 0.4348-0.9198-0.1603-1.8419-0.304-2.7656-0.4348z" fill="#F38700"/>
	<linearGradient id="fx" x1="367.32" x2="367.32" y1="788.26" y2="352.04" gradientUnits="userSpaceOnUse">
		<stop stop-color="#F07A00" offset="0"/>
		<stop stop-color="#EF7401" offset="1"/>
	</linearGradient>
	<path d="m365.94 404.93c0.9236 0.1307 1.8458 0.2744 2.7656 0.4348-0.9198-0.1603-1.8419-0.304-2.7656-0.4348z" fill="url(#fx)"/>
	<path d="m372.31 406.08c0.7566 0.167 1.5105 0.3452 2.2615 0.5345-0.7511-0.1894-1.5049-0.3675-2.2615-0.5345z" fill="#F38700"/>
	<linearGradient id="fy" x1="373.44" x2="373.44" y1="788.26" y2="352.04" gradientUnits="userSpaceOnUse">
		<stop stop-color="#F07A00" offset="0"/>
		<stop stop-color="#EF7401" offset="1"/>
	</linearGradient>
	<path d="m372.31 406.08c0.7566 0.167 1.5105 0.3452 2.2615 0.5345-0.7511-0.1894-1.5049-0.3675-2.2615-0.5345z" fill="url(#fy)"/>
	<path d="m375.08 406.74c0.9013 0.2339 1.7972 0.4867 2.6882 0.7544-0.8911-0.2678-1.7869-0.5205-2.6882-0.7544z" fill="#F38700"/>
	<linearGradient id="fz" x1="376.43" x2="376.43" y1="788.26" y2="352.04" gradientUnits="userSpaceOnUse">
		<stop stop-color="#F07A00" offset="0"/>
		<stop stop-color="#EF7401" offset="1"/>
	</linearGradient>
	<path d="m375.08 406.74c0.9013 0.2339 1.7972 0.4867 2.6882 0.7544-0.8911-0.2678-1.7869-0.5205-2.6882-0.7544z" fill="url(#fz)"/>
	<path d="m378.46 407.71c0.6904 0.2151 1.377 0.4407 2.0598 0.677-0.6829-0.2363-1.3694-0.4619-2.0598-0.677z" fill="#F38700"/>
	<linearGradient id="ga" x1="379.49" x2="379.49" y1="788.26" y2="352.04" gradientUnits="userSpaceOnUse">
		<stop stop-color="#F07A00" offset="0"/>
		<stop stop-color="#EF7401" offset="1"/>
	</linearGradient>
	<path d="m378.46 407.71c0.6904 0.2151 1.377 0.4407 2.0598 0.677-0.6829-0.2363-1.3694-0.4619-2.0598-0.677z" fill="url(#ga)"/>
	<path d="m369.21 405.46c0.7639 0.1379 1.5258 0.2871 2.2855 0.4465-0.7598-0.1594-1.5216-0.3085-2.2855-0.4465z" fill="#F38700"/>
	<linearGradient id="gc" x1="370.35" x2="370.35" y1="788.26" y2="352.04" gradientUnits="userSpaceOnUse">
		<stop stop-color="#F07A00" offset="0"/>
		<stop stop-color="#EF7401" offset="1"/>
	</linearGradient>
	<path d="m369.21 405.46c0.7639 0.1379 1.5258 0.2871 2.2855 0.4465-0.7598-0.1594-1.5216-0.3085-2.2855-0.4465z" fill="url(#gc)"/>
	<path d="m363.06 404.57c0.7199 0.0789 1.4395 0.1664 2.1584 0.2623-0.719-0.0959-1.4384-0.1835-2.1584-0.2623z" fill="#F38700"/>
	<linearGradient id="gd" x1="364.14" x2="364.14" y1="788.26" y2="352.04" gradientUnits="userSpaceOnUse">
		<stop stop-color="#F07A00" offset="0"/>
		<stop stop-color="#EF7401" offset="1"/>
	</linearGradient>
	<path d="m363.06 404.57c0.7199 0.0789 1.4395 0.1664 2.1584 0.2623-0.719-0.0959-1.4384-0.1835-2.1584-0.2623z" fill="url(#gd)"/>
	<path d="m389.47 412.27c0.537 0.2861 1.0688 0.5828 1.597 0.8862-0.5282-0.3036-1.0599-0.6001-1.597-0.8862z" fill="#F38700"/>
	<linearGradient id="ge" x1="390.27" x2="390.27" y1="788.26" y2="352.04" gradientUnits="userSpaceOnUse">
		<stop stop-color="#F07A00" offset="0"/>
		<stop stop-color="#EF7401" offset="1"/>
	</linearGradient>
	<path d="m389.47 412.27c0.537 0.2861 1.0688 0.5828 1.597 0.8862-0.5282-0.3036-1.0599-0.6001-1.597-0.8862z" fill="url(#ge)"/>
	<path d="m594.95 527.87c0.2625 0.0714 0.5253 0.1422 0.7872 0.2158-0.262-0.0736-0.5247-0.1444-0.7872-0.2158z" fill="#F38700"/>
	<linearGradient id="cq" x1="595.34" x2="595.34" y1="788.26" y2="352.04" gradientUnits="userSpaceOnUse">
		<stop stop-color="#F07A00" offset="0"/>
		<stop stop-color="#EF7401" offset="1"/>
	</linearGradient>
	<path d="m594.95 527.87c0.2625 0.0714 0.5253 0.1422 0.7872 0.2158-0.262-0.0736-0.5247-0.1444-0.7872-0.2158z" fill="url(#cq)"/>
	<path d="m568.87 521.33c1.1511 0.2704 2.3006 0.546 3.4465 0.8329-1.1459-0.2869-2.2955-0.5625-3.4465-0.8329z" fill="#F38700"/>
	<linearGradient id="cr" x1="570.6" x2="570.6" y1="788.26" y2="352.04" gradientUnits="userSpaceOnUse">
		<stop stop-color="#F07A00" offset="0"/>
		<stop stop-color="#EF7401" offset="1"/>
	</linearGradient>
	<path d="m568.87 521.33c1.1511 0.2704 2.3006 0.546 3.4465 0.8329-1.1459-0.2869-2.2955-0.5625-3.4465-0.8329z" fill="url(#cr)"/>
	<path d="m580.75 524.64c1.9675 0.4175 3.9406 0.8237 5.9102 1.2472-1.9696-0.4235-3.9427-0.8297-5.9102-1.2472z" fill="#F38700"/>
	<linearGradient id="cs" x1="583.71" x2="583.71" y1="788.26" y2="352.04" gradientUnits="userSpaceOnUse">
		<stop stop-color="#F07A00" offset="0"/>
		<stop stop-color="#EF7401" offset="1"/>
	</linearGradient>
	<path d="m580.75 524.64c1.9675 0.4175 3.9406 0.8237 5.9102 1.2472-1.9696-0.4235-3.9427-0.8297-5.9102-1.2472z" fill="url(#cs)"/>
	<path d="m572.84 522.3c1.1965 0.3038 2.3897 0.618 3.5741 0.9595-1.1844-0.3415-2.3776-0.6557-3.5741-0.9595z" fill="#F38700"/>
	<linearGradient id="ct" x1="574.62" x2="574.62" y1="788.26" y2="352.04" gradientUnits="userSpaceOnUse">
		<stop stop-color="#F07A00" offset="0"/>
		<stop stop-color="#EF7401" offset="1"/>
	</linearGradient>
	<path d="m572.84 522.3c1.1965 0.3038 2.3897 0.618 3.5741 0.9595-1.1844-0.3415-2.3776-0.6557-3.5741-0.9595z" fill="url(#ct)"/>
	<path d="m606.14 531.76c0.2231 0.0835 0.4476 0.1624 0.6714 0.2434-0.2238-0.0811-0.4483-0.1599-0.6714-0.2434z" fill="#F38700"/>
	<linearGradient id="cu" x1="606.48" x2="606.48" y1="788.26" y2="352.04" gradientUnits="userSpaceOnUse">
		<stop stop-color="#F07A00" offset="0"/>
		<stop stop-color="#EF7401" offset="1"/>
	</linearGradient>
	<path d="m606.14 531.76c0.2231 0.0835 0.4476 0.1624 0.6714 0.2434-0.2238-0.0811-0.4483-0.1599-0.6714-0.2434z" fill="url(#cu)"/>
	<path d="m592.23 527.16c0.2561 0.063 0.5115 0.1288 0.7672 0.1935-0.2557-0.0647-0.511-0.1305-0.7672-0.1935z" fill="#F38700"/>
	<linearGradient id="cv" x1="592.61" x2="592.61" y1="788.26" y2="352.04" gradientUnits="userSpaceOnUse">
		<stop stop-color="#F07A00" offset="0"/>
		<stop stop-color="#EF7401" offset="1"/>
	</linearGradient>
	<path d="m592.23 527.16c0.2561 0.063 0.5115 0.1288 0.7672 0.1935-0.2557-0.0647-0.511-0.1305-0.7672-0.1935z" fill="url(#cv)"/>
	<path d="m608.3 532.52c0.2492 0.084 0.4987 0.167 0.7487 0.2483-0.25-0.0814-0.4995-0.1644-0.7487-0.2483z" fill="#F38700"/>
	<linearGradient id="cw" x1="608.67" x2="608.67" y1="788.26" y2="352.04" gradientUnits="userSpaceOnUse">
		<stop stop-color="#F07A00" offset="0"/>
		<stop stop-color="#EF7401" offset="1"/>
	</linearGradient>
	<path d="m608.3 532.52c0.2492 0.084 0.4987 0.167 0.7487 0.2483-0.25-0.0814-0.4995-0.1644-0.7487-0.2483z" fill="url(#cw)"/>
	<path d="m621.19 535.88c0.1511 0.0315 0.3026 0.0615 0.4537 0.0925-0.1512-0.0309-0.3025-0.061-0.4537-0.0925z" fill="#F38700"/>
	<linearGradient id="cy" x1="621.42" x2="621.42" y1="788.26" y2="352.04" gradientUnits="userSpaceOnUse">
		<stop stop-color="#F07A00" offset="0"/>
		<stop stop-color="#EF7401" offset="1"/>
	</linearGradient>
	<path d="m621.19 535.88c0.1511 0.0315 0.3026 0.0615 0.4537 0.0925-0.1512-0.0309-0.3025-0.061-0.4537-0.0925z" fill="url(#cy)"/>
	<path d="m618.24 535.25c0.1966 0.0443 0.3929 0.0898 0.5897 0.1333-0.1969-0.0436-0.3931-0.089-0.5897-0.1333z" fill="#F38700"/>
	<linearGradient id="cz" x1="618.54" x2="618.54" y1="788.26" y2="352.04" gradientUnits="userSpaceOnUse">
		<stop stop-color="#F07A00" offset="0"/>
		<stop stop-color="#EF7401" offset="1"/>
	</linearGradient>
	<path d="m618.24 535.25c0.1966 0.0443 0.3929 0.0898 0.5897 0.1333-0.1969-0.0436-0.3931-0.089-0.5897-0.1333z" fill="url(#cz)"/>
	<path d="m610.55 533.24c0.2231 0.0677 0.4455 0.1377 0.6691 0.2037-0.2236-0.066-0.4461-0.1359-0.6691-0.2037z" fill="#F38700"/>
	<linearGradient id="da" x1="610.88" x2="610.88" y1="788.26" y2="352.04" gradientUnits="userSpaceOnUse">
		<stop stop-color="#F07A00" offset="0"/>
		<stop stop-color="#EF7401" offset="1"/>
	</linearGradient>
	<path d="m610.55 533.24c0.2231 0.0677 0.4455 0.1377 0.6691 0.2037-0.2236-0.066-0.4461-0.1359-0.6691-0.2037z" fill="url(#da)"/>
	<path d="m615.73 534.66c0.2288 0.0562 0.4581 0.1108 0.6873 0.1658-0.2291-0.0549-0.4585-0.1096-0.6873-0.1658z" fill="#F38700"/>
	<linearGradient id="db" x1="616.07" x2="616.07" y1="788.26" y2="352.04" gradientUnits="userSpaceOnUse">
		<stop stop-color="#F07A00" offset="0"/>
		<stop stop-color="#EF7401" offset="1"/>
	</linearGradient>
	<path d="m615.73 534.66c0.2288 0.0562 0.4581 0.1108 0.6873 0.1658-0.2291-0.0549-0.4585-0.1096-0.6873-0.1658z" fill="url(#db)"/>
	<path d="m523.15 498.08c1.6359 1.1871 3.2832 2.3596 4.9581 3.4969-1.6749-1.1373-3.3223-2.3098-4.9581-3.4969z" fill="#F38700"/>
	<linearGradient id="dc" x1="525.63" x2="525.63" y1="788.26" y2="352.04" gradientUnits="userSpaceOnUse">
		<stop stop-color="#F07A00" offset="0"/>
		<stop stop-color="#EF7401" offset="1"/>
	</linearGradient>
	<path d="m523.15 498.08c1.6359 1.1871 3.2832 2.3596 4.9581 3.4969-1.6749-1.1373-3.3223-2.3098-4.9581-3.4969z" fill="url(#dc)"/>
	<path d="m512.41 489.84c1.3985 1.1228 2.8055 2.2346 4.2216 3.3351-1.4161-1.1005-2.8231-2.2123-4.2216-3.3351z" fill="#F38700"/>
	<linearGradient id="dd" x1="514.52" x2="514.52" y1="788.26" y2="352.04" gradientUnits="userSpaceOnUse">
		<stop stop-color="#F07A00" offset="0"/>
		<stop stop-color="#EF7401" offset="1"/>
	</linearGradient>
	<path d="m512.41 489.84c1.3985 1.1228 2.8055 2.2346 4.2216 3.3351-1.4161-1.1005-2.8231-2.2123-4.2216-3.3351z" fill="url(#dd)"/>
	<path d="m517.44 493.81c1.5438 1.191 3.1027 2.3628 4.6746 3.5178-1.572-1.155-3.1308-2.3268-4.6746-3.5178z" fill="#F38700"/>
	<linearGradient id="de" x1="519.78" x2="519.78" y1="788.26" y2="352.04" gradientUnits="userSpaceOnUse">
		<stop stop-color="#F07A00" offset="0"/>
		<stop stop-color="#EF7401" offset="1"/>
	</linearGradient>
	<path d="m517.44 493.81c1.5438 1.191 3.1027 2.3628 4.6746 3.5178-1.572-1.155-3.1308-2.3268-4.6746-3.5178z" fill="url(#de)"/>
	<path d="m567.32 520.97c0.1028 0.0239 0.2056 0.048 0.3084 0.0719-0.1027-0.024-0.2056-0.048-0.3084-0.0719z" fill="#F38700"/>
	<linearGradient id="df" x1="567.48" x2="567.48" y1="788.26" y2="352.04" gradientUnits="userSpaceOnUse">
		<stop stop-color="#F07A00" offset="0"/>
		<stop stop-color="#EF7401" offset="1"/>
	</linearGradient>
	<path d="m567.32 520.97c0.1028 0.0239 0.2056 0.048 0.3084 0.0719-0.1027-0.024-0.2056-0.048-0.3084-0.0719z" fill="url(#df)"/>
	<path d="m490.72 471.94c0.4968 0.4042 0.992 0.8104 1.4874 1.2164-0.4954-0.406-0.9907-0.8122-1.4874-1.2164z" fill="#F38700"/>
	<linearGradient id="dg" x1="491.47" x2="491.47" y1="788.26" y2="352.04" gradientUnits="userSpaceOnUse">
		<stop stop-color="#F07A00" offset="0"/>
		<stop stop-color="#EF7401" offset="1"/>
	</linearGradient>
	<path d="m490.72 471.94c0.4968 0.4042 0.992 0.8104 1.4874 1.2164-0.4954-0.406-0.9907-0.8122-1.4874-1.2164z" fill="url(#dg)"/>
	<path d="m495.7 476.04c0.4883 0.4053 0.9775 0.8096 1.4651 1.2156-0.4876-0.4061-0.9767-0.8104-1.4651-1.2156z" fill="#F38700"/>
	<linearGradient id="dh" x1="496.43" x2="496.43" y1="788.26" y2="352.04" gradientUnits="userSpaceOnUse">
		<stop stop-color="#F07A00" offset="0"/>
		<stop stop-color="#EF7401" offset="1"/>
	</linearGradient>
	<path d="m495.7 476.04c0.4883 0.4053 0.9775 0.8096 1.4651 1.2156-0.4876-0.4061-0.9767-0.8104-1.4651-1.2156z" fill="url(#dh)"/>
	<path d="m507.06 485.49c1.5253 1.2585 3.0557 2.511 4.5946 3.7523-1.5389-1.2414-3.0692-2.4938-4.5946-3.7523z" fill="#F38700"/>
	<linearGradient id="dj" x1="509.36" x2="509.36" y1="788.26" y2="352.04" gradientUnits="userSpaceOnUse">
		<stop stop-color="#F07A00" offset="0"/>
		<stop stop-color="#EF7401" offset="1"/>
	</linearGradient>
	<path d="m507.06 485.49c1.5253 1.2585 3.0557 2.511 4.5946 3.7523-1.5389-1.2414-3.0692-2.4938-4.5946-3.7523z" fill="url(#dj)"/>
	<path d="m528.11 501.58c1.445 1.0875 2.8787 2.1963 4.3175 3.3002-1.4388-1.104-2.8725-2.2127-4.3175-3.3002z" fill="#F38700"/>
	<linearGradient id="dk" x1="530.27" x2="530.27" y1="788.26" y2="352.04" gradientUnits="userSpaceOnUse">
		<stop stop-color="#F07A00" offset="0"/>
		<stop stop-color="#EF7401" offset="1"/>
	</linearGradient>
	<path d="m528.11 501.58c1.445 1.0875 2.8787 2.1963 4.3175 3.3002-1.4388-1.104-2.8725-2.2127-4.3175-3.3002z" fill="url(#dk)"/>
	<path d="m557.27 518.44c0.2446 0.0709 0.4892 0.1414 0.7344 0.2103-0.2452-0.0689-0.4899-0.1393-0.7344-0.2103z" fill="#F38700"/>
	<linearGradient id="dl" x1="557.64" x2="557.64" y1="788.26" y2="352.04" gradientUnits="userSpaceOnUse">
		<stop stop-color="#F07A00" offset="0"/>
		<stop stop-color="#EF7401" offset="1"/>
	</linearGradient>
	<path d="m557.27 518.44c0.2446 0.0709 0.4892 0.1414 0.7344 0.2103-0.2452-0.0689-0.4899-0.1393-0.7344-0.2103z" fill="url(#dl)"/>
	<path d="m564.56 520.32c0.1901 0.0449 0.38 0.0908 0.5702 0.1353-0.1903-0.0446-0.3801-0.0903-0.5702-0.1353z" fill="#F38700"/>
	<linearGradient id="dm" x1="564.85" x2="564.85" y1="788.26" y2="352.04" gradientUnits="userSpaceOnUse">
		<stop stop-color="#F07A00" offset="0"/>
		<stop stop-color="#EF7401" offset="1"/>
	</linearGradient>
	<path d="m564.56 520.32c0.1901 0.0449 0.38 0.0908 0.5702 0.1353-0.1903-0.0446-0.3801-0.0903-0.5702-0.1353z" fill="url(#dm)"/>
	<path d="m550.08 515.95c1.4005 0.5876 2.8222 1.1123 4.2598 1.5902-1.4376-0.4779-2.8593-1.0025-4.2598-1.5902z" fill="#F38700"/>
	<linearGradient id="ed" x1="552.21" x2="552.21" y1="788.26" y2="352.04" gradientUnits="userSpaceOnUse">
		<stop stop-color="#F07A00" offset="0"/>
		<stop stop-color="#EF7401" offset="1"/>
	</linearGradient>
	<path d="m550.08 515.95c1.4005 0.5876 2.8222 1.1123 4.2598 1.5902-1.4376-0.4779-2.8593-1.0025-4.2598-1.5902z" fill="url(#ed)"/>
	<path d="m532.43 504.88c2.1581 1.6558 4.3275 3.3008 6.563 4.8468-2.2355-1.546-4.4049-3.1909-6.563-4.8468z" fill="#F38700"/>
	<linearGradient id="fe" x1="535.71" x2="535.71" y1="788.26" y2="352.04" gradientUnits="userSpaceOnUse">
		<stop stop-color="#F07A00" offset="0"/>
		<stop stop-color="#EF7401" offset="1"/>
	</linearGradient>
	<path d="m532.43 504.88c2.1581 1.6558 4.3275 3.3008 6.563 4.8468-2.2355-1.546-4.4049-3.1909-6.563-4.8468z" fill="url(#fe)"/>
</svg>
