<?xml version="1.0" encoding="UTF-8"?>
<svg version="1.1" id="Layer_1" xmlns="http://www.w3.org/2000/svg" xmlns:xlink="http://www.w3.org/1999/xlink" x="0px" y="0px" viewBox="0 0 2560 1600" enable-background="new 0 0 2560 1600" xml:space="preserve">
<pattern width="200" height="200" patternUnits="userSpaceOnUse" id="New_Pattern_5" viewBox="102 -302 200 200" overflow="visible">
	<g>
		<polygon fill="none" points="102,-302 302,-302 302,-102 102,-102   "/>
		<g>
			<g>
				<path fill="none" stroke="#ffffff" opacity="0.1" stroke-width="2" stroke-linecap="square" stroke-miterlimit="10" d="M402-102      c0,27.6142-22.3858,50-50,50s-50-22.3858-50-50"/>
			</g>
		</g>
		<g>
			<g>
				<path fill="none" stroke="#ffffff" opacity="0.1" stroke-width="2" stroke-linecap="square" stroke-miterlimit="10" d="M202-102      c0,27.6142-22.3858,50-50,50s-50-22.3858-50-50"/>
			</g>
			<g>
				<path fill="none" stroke="#ffffff" opacity="0.1" stroke-width="2" stroke-linecap="square" stroke-miterlimit="10" d="M202-102      c27.6142,0,50,22.3858,50,50S229.6142-2,202-2"/>
				<path fill="none" stroke="#ffffff" opacity="0.1" stroke-width="2" stroke-linecap="square" stroke-miterlimit="10" d="M302-2      c-27.6142,0-50-22.3858-50-50s22.3858-50,50-50"/>
			</g>
		</g>
		<g>
			<g>
				<path fill="none" stroke="#ffffff" opacity="0.1" stroke-width="2" stroke-linecap="square" stroke-miterlimit="10" d="M102-2      C74.3858-2,52-24.3858,52-52s22.3858-50,50-50"/>
			</g>
		</g>
		<g>
			<g>
				<path fill="none" stroke="#ffffff" opacity="0.1" stroke-width="2" stroke-linecap="square" stroke-miterlimit="10" d="M302-202      c27.6142,0,50,22.3858,50,50s-22.3858,50-50,50"/>
			</g>
			<g>
				<path fill="none" stroke="#ffffff" opacity="0.1" stroke-width="2" stroke-linecap="square" stroke-miterlimit="10" d="M402-302      c0,27.6142-22.3858,50-50,50s-50-22.3858-50-50"/>
				<path fill="none" stroke="#ffffff" opacity="0.1" stroke-width="2" stroke-linecap="square" stroke-miterlimit="10" d="M302-202      c0-27.6142,22.3858-50,50-50s50,22.3858,50,50"/>
			</g>
		</g>
		<g>
			<g>
				<path fill="none" stroke="#ffffff" opacity="0.1" stroke-width="2" stroke-linecap="square" stroke-miterlimit="10" d="M202-102      c-27.6142,0-50-22.3858-50-50s22.3858-50,50-50"/>
				<path fill="none" stroke="#ffffff" opacity="0.1" stroke-width="2" stroke-linecap="square" stroke-miterlimit="10" d="M102-202      c27.6142,0,50,22.3858,50,50s-22.3858,50-50,50"/>
			</g>
			<g>
				<path fill="none" stroke="#ffffff" opacity="0.1" stroke-width="2" stroke-linecap="square" stroke-miterlimit="10" d="M202-102      c0-27.6142,22.3858-50,50-50s50,22.3858,50,50"/>
				<path fill="none" stroke="#ffffff" opacity="0.1" stroke-width="2" stroke-linecap="square" stroke-miterlimit="10" d="M302-202      c0,27.6142-22.3858,50-50,50s-50-22.3858-50-50"/>
			</g>
			<g>
				<path fill="none" stroke="#ffffff" opacity="0.1" stroke-width="2" stroke-linecap="square" stroke-miterlimit="10" d="M202-302      c0,27.6142-22.3858,50-50,50s-50-22.3858-50-50"/>
				<path fill="none" stroke="#ffffff" opacity="0.1" stroke-width="2" stroke-linecap="square" stroke-miterlimit="10" d="M102-202      c0-27.6142,22.3858-50,50-50s50,22.3858,50,50"/>
			</g>
			<g>
				<path fill="none" stroke="#ffffff" opacity="0.1" stroke-width="2" stroke-linecap="square" stroke-miterlimit="10" d="M202-302      c27.6142,0,50,22.3858,50,50s-22.3858,50-50,50"/>
				<path fill="none" stroke="#ffffff" opacity="0.1" stroke-width="2" stroke-linecap="square" stroke-miterlimit="10" d="M302-202      c-27.6142,0-50-22.3858-50-50s22.3858-50,50-50"/>
			</g>
		</g>
		<g>
			<g>
				<path fill="none" stroke="#ffffff" opacity="0.1" stroke-width="2" stroke-linecap="square" stroke-miterlimit="10" d="M2-102      c0-27.6142,22.3858-50,50-50s50,22.3858,50,50"/>
				<path fill="none" stroke="#ffffff" opacity="0.1" stroke-width="2" stroke-linecap="square" stroke-miterlimit="10" d="M102-202      c0,27.6142-22.3858,50-50,50S2-174.3858,2-202"/>
			</g>
			<g>
				<path fill="none" stroke="#ffffff" opacity="0.1" stroke-width="2" stroke-linecap="square" stroke-miterlimit="10" d="M102-202      c-27.6142,0-50-22.3858-50-50s22.3858-50,50-50"/>
			</g>
		</g>
		<g>
			<g>
				<path fill="none" stroke="#ffffff" opacity="0.1" stroke-width="2" stroke-linecap="square" stroke-miterlimit="10" d="M302-402      c27.6142,0,50,22.3858,50,50s-22.3858,50-50,50"/>
			</g>
		</g>
		<g>
			<g>
				<path fill="none" stroke="#ffffff" opacity="0.1" stroke-width="2" stroke-linecap="square" stroke-miterlimit="10" d="M202-302      c-27.6142,0-50-22.3858-50-50s22.3858-50,50-50"/>
				<path fill="none" stroke="#ffffff" opacity="0.1" stroke-width="2" stroke-linecap="square" stroke-miterlimit="10" d="M102-402      c27.6142,0,50,22.3858,50,50s-22.3858,50-50,50"/>
			</g>
			<g>
				<path fill="none" stroke="#ffffff" opacity="0.1" stroke-width="2" stroke-linecap="square" stroke-miterlimit="10" d="M202-302      c0-27.6142,22.3858-50,50-50s50,22.3858,50,50"/>
			</g>
		</g>
		<g>
			<g>
				<path fill="none" stroke="#ffffff" opacity="0.1" stroke-width="2" stroke-linecap="square" stroke-miterlimit="10" d="M2-302      c0-27.6142,22.3858-50,50-50s50,22.3858,50,50"/>
			</g>
		</g>
	</g>
</pattern>
<rect fill="url(#New_Pattern_5)" width="2560" height="1600"/>
</svg>