<svg width="605" height="318" viewBox="0 0 605 318" fill="none" xmlns="http://www.w3.org/2000/svg">
<rect width="605" height="318" fill="white"/>
<rect x="8" y="115" width="50" height="50" rx="10" fill="#EEEEEE"/>
<rect x="155.5" y="14.5" width="339" height="262" rx="69.5" fill="black" fill-opacity="0.1" stroke="#FF0000"/>
<path d="M266.949 143.306L263.067 142.872L261.723 154.982L265.605 155.416L266.949 143.306Z" fill="black"/>
<path d="M268.938 139.612L267.914 143.386L279.65 146.584L280.673 142.81L268.938 139.612Z" fill="black"/>
<path d="M267.279 135.888L262.111 141.396L224.416 111.451L235.352 99.7948L267.279 135.888Z" fill="black"/>
<path d="M259.607 138.678C260.107 134.881 263.585 132.211 267.375 132.713C271.165 133.216 273.833 136.701 273.333 140.497C272.833 144.294 269.355 146.964 265.565 146.462C261.829 145.967 259.173 142.569 259.59 138.818" fill="black"/>
<path d="M262.345 154.931L263.368 151.158L274.879 156.388L274.081 158.13L262.345 154.931Z" fill="black"/>
<path d="M280.774 143.016L276.874 142.8L278.206 155.392L280.109 155.182L280.774 143.016Z" fill="black"/>
<path d="M235.694 117.003L224.15 108.703L196.542 147.263L208.086 155.562L235.694 117.003Z" fill="black"/>
<path d="M192.936 154.824H173.26C171.545 154.824 170.154 156.218 170.154 157.937V164.682C170.154 166.402 171.545 167.795 173.26 167.795H192.936C194.652 167.795 196.043 166.402 196.043 164.682V157.937C196.043 156.218 194.652 154.824 192.936 154.824Z" fill="black"/>
<path d="M186.466 156.804C186.59 150.716 191.616 145.882 197.692 146.006C203.767 146.13 208.592 151.166 208.468 157.254C208.344 163.342 203.318 168.177 197.242 168.053C191.254 167.93 186.464 163.031 186.464 157.029" fill="black"/>
<path d="M223.041 109.522C223.153 104.024 227.693 99.657 233.18 99.7694C238.668 99.8817 243.026 104.43 242.914 109.929C242.801 115.428 238.262 119.795 232.774 119.682C227.366 119.572 223.039 115.147 223.039 109.726" fill="black"/>
<path d="M215.586 168.411H162.345C160.777 168.411 159.505 169.684 159.505 171.256V175.879C159.505 177.451 160.777 178.725 162.345 178.725H215.586C217.154 178.725 218.425 177.451 218.425 175.879V171.256C218.425 169.684 217.154 168.411 215.586 168.411Z" fill="black"/>
<path d="M423.917 74.5583C424.745 74.5254 425.389 73.8276 425.356 72.9999L424.819 59.5105C424.786 58.6828 424.089 58.0385 423.261 58.0714C422.433 58.1044 421.789 58.8021 421.822 59.6299L422.299 71.6204L410.309 72.0979C409.481 72.1308 408.837 72.8286 408.87 73.6564C408.902 74.4841 409.6 75.1285 410.428 75.0955L423.917 74.5583ZM260.085 86.8664C294.818 38.1799 369.45 24.8609 422.84 74.1616L424.875 71.9575C370.13 21.4049 293.402 34.9989 257.643 85.1241L260.085 86.8664Z" fill="black"/>
<path d="M258.883 195.667C258.055 195.628 257.352 196.267 257.313 197.094L256.669 210.579C256.63 211.406 257.269 212.109 258.096 212.148C258.924 212.188 259.626 211.549 259.666 210.722L260.238 198.735L272.224 199.307C273.052 199.347 273.754 198.708 273.794 197.88C273.833 197.053 273.195 196.35 272.367 196.311L258.883 195.667ZM423.164 197.72C384.31 243.186 308.799 249.933 259.921 196.157L257.701 198.174C307.82 253.317 385.442 246.479 425.444 199.669L423.164 197.72Z" fill="black"/>
<path d="M378.563 179.133H400.162V149.781H378.563V179.133ZM394.38 162.698C395.444 162.698 396.198 163.452 396.198 164.515C396.198 165.579 395.444 166.333 394.38 166.333C393.317 166.333 392.563 165.579 392.563 164.515C392.563 163.471 393.317 162.698 394.38 162.698Z" fill="black"/>
<path d="M404.879 188.395V183.832V179.269V145.044H398.653H395.618H394.09H374V178.979V183.542V188.105H378.563V183.542H400.162V188.105H404.879V188.395ZM378.563 180.641H377.036V179.114V148.254H401.824V179.133V180.661H400.297C400.316 180.641 378.563 180.641 378.563 180.641Z" fill="black"/>
<path d="M411.106 179.133H432.704V149.781H411.106V179.133ZM428.295 162.698C429.359 162.698 430.113 163.452 430.113 164.515C430.113 165.579 429.359 166.333 428.295 166.333C427.232 166.333 426.478 165.579 426.478 164.515C426.478 163.452 427.387 162.698 428.295 162.698Z" fill="black"/>
<path d="M437.267 188.395V183.832V179.269V145.044H418.859H414.296H411.26H406.697V178.979V183.542V188.105H411.26V183.542H432.859V188.105H437.267V188.395ZM411.106 180.641H409.578V179.114V148.254H434.367V179.133V180.661H432.839C432.859 180.641 411.106 180.641 411.106 180.641Z" fill="black"/>
<path d="M468.282 162.098H443.493V179.133H468.282V162.098Z" fill="black"/>
<path d="M466.619 143.536H458.865C457.957 143.536 457.338 144.29 457.338 145.063H454.302C454.302 144.154 453.548 143.536 452.775 143.536H445.021C444.112 143.536 443.493 144.29 443.493 145.063H438.93V178.979V183.542V188.105H443.493V183.542H468.282V188.105H472.845V183.542V178.979V145.063H468.282C468.282 144.309 467.528 143.536 466.619 143.536ZM462.655 150.69C462.655 151.754 461.901 152.508 460.838 152.508C459.774 152.508 459.02 151.754 459.02 150.69C459.02 149.627 459.774 148.872 460.838 148.872C461.746 148.872 462.655 149.627 462.655 150.69ZM466.619 156.007C467.083 156.007 467.373 156.317 467.373 156.762C467.373 157.226 467.064 157.516 466.619 157.516H445.021C444.557 157.516 444.267 157.206 444.267 156.762C444.267 156.297 444.576 156.007 445.021 156.007H466.619ZM454.902 150.69C454.902 151.754 454.147 152.508 453.084 152.508C452.021 152.508 451.266 151.754 451.266 150.69C451.266 149.627 452.021 148.872 453.084 148.872C454.147 148.872 454.902 149.627 454.902 150.69ZM445.33 148.872C446.394 148.872 447.148 149.627 447.148 150.69C447.148 151.754 446.394 152.508 445.33 152.508C444.267 152.508 443.513 151.754 443.513 150.69C443.493 149.627 444.267 148.872 445.33 148.872ZM469.81 180.641H468.282H443.493H441.966V179.114V160.551H469.79V179.114V180.641H469.81ZM468.437 148.872C469.5 148.872 470.254 149.627 470.254 150.69C470.254 151.754 469.5 152.508 468.437 152.508C467.373 152.508 466.619 151.754 466.619 150.69C466.619 149.627 467.528 148.872 468.437 148.872Z" fill="black"/>
<path d="M462.056 112.676V92.6049H448.211V112.676H443.648L437.422 123.465H473L466.774 112.676H462.056ZM462.346 119.965C461.282 119.965 460.528 119.211 460.528 118.148C460.528 117.084 461.282 116.33 462.346 116.33C463.409 116.33 464.163 117.084 464.163 118.148C464.183 119.211 463.274 119.965 462.346 119.965Z" fill="black"/>
<path d="M414.141 138.972H420.368C421.276 138.972 421.895 138.218 421.895 137.445C421.895 136.691 421.141 135.917 420.368 135.917H412.614C411.705 135.917 411.086 136.671 411.086 137.445V143.536H414.122V138.972H414.141Z" fill="black"/>
<path d="M398.789 143.536V137.445C398.789 136.536 398.035 135.917 397.261 135.917H389.507C388.599 135.917 387.98 136.671 387.98 137.445C387.98 138.199 388.734 138.972 389.507 138.972H395.734V143.536H398.789Z" fill="black"/>
<path d="M406.388 143.536V134.254C407.296 134.254 407.915 133.5 407.915 132.727C407.915 131.973 407.161 131.199 406.388 131.199V128.164C406.388 127.255 405.634 126.636 404.86 126.636C404.106 126.636 403.333 127.39 403.333 128.164V131.219C402.424 131.219 401.805 131.973 401.805 132.746C401.805 133.5 402.559 134.274 403.333 134.274V143.555H406.388V143.536Z" fill="black"/>
<path d="M431.176 111.148H398.325C400.452 109.33 401.824 106.739 401.824 103.704C401.824 98.3863 397.416 93.9777 392.098 93.9777C386.781 93.9777 382.372 98.367 382.372 103.704C382.372 106.739 383.745 109.33 385.872 111.148H377.19V114.184H431.176V111.148ZM385.563 103.704C385.563 100.204 388.444 97.1682 392.098 97.1682C395.753 97.1682 398.634 100.049 398.634 103.704C398.634 107.358 395.753 110.239 392.098 110.239C388.444 110.239 385.563 107.339 385.563 103.704Z" fill="black"/>
<path d="M392.098 108.576C394.79 108.576 396.971 106.395 396.971 103.704C396.971 101.013 394.79 98.8311 392.098 98.8311C389.407 98.8311 387.226 101.013 387.226 103.704C387.226 106.395 389.407 108.576 392.098 108.576Z" fill="black"/>
<path d="M407.161 109.621H428.759C429.223 109.621 429.513 109.311 429.513 108.866C429.513 108.402 429.204 108.112 428.759 108.112H407.161C406.697 108.112 406.407 108.422 406.407 108.866C406.388 109.33 406.852 109.621 407.161 109.621Z" fill="black"/>
<path d="M408.824 106.585H427.387C427.851 106.585 428.141 106.275 428.141 105.831C428.141 105.367 427.831 105.077 427.387 105.077H408.824C408.36 105.077 408.07 105.386 408.07 105.831C408.07 106.275 408.36 106.585 408.824 106.585Z" fill="black"/>
<path d="M408.824 103.394H427.387C427.851 103.394 428.141 103.085 428.141 102.64C428.141 102.196 427.831 101.886 427.387 101.886H408.824C408.36 101.886 408.07 102.196 408.07 102.64C408.07 103.085 408.36 103.394 408.824 103.394Z" fill="black"/>
<path d="M412.788 100.359H422.359C423.887 100.359 424.796 98.2316 424.796 96.8588C424.796 95.7953 424.331 94.2678 423.577 94.2678H411.57C410.816 94.2678 410.352 95.7953 410.352 96.8588C410.506 98.2316 411.415 100.359 412.788 100.359Z" fill="black"/>
<path d="M330.656 65.0312H325.891L324.82 68H323.273L327.617 56.625H328.93L333.281 68H331.742L330.656 65.0312ZM326.344 63.7969H330.211L328.273 58.4766L326.344 63.7969ZM337.977 66.9766C338.492 66.9766 338.943 66.8203 339.328 66.5078C339.714 66.1953 339.927 65.8047 339.969 65.3359H341.336C341.31 65.8203 341.143 66.2812 340.836 66.7188C340.529 67.1562 340.117 67.5052 339.602 67.7656C339.091 68.026 338.549 68.1562 337.977 68.1562C336.826 68.1562 335.909 67.7734 335.227 67.0078C334.549 66.237 334.211 65.1849 334.211 63.8516V63.6094C334.211 62.7865 334.362 62.0547 334.664 61.4141C334.966 60.7734 335.398 60.276 335.961 59.9219C336.529 59.5677 337.198 59.3906 337.969 59.3906C338.917 59.3906 339.703 59.6745 340.328 60.2422C340.958 60.8099 341.294 61.5469 341.336 62.4531H339.969C339.927 61.9062 339.719 61.4583 339.344 61.1094C338.974 60.7552 338.516 60.5781 337.969 60.5781C337.234 60.5781 336.664 60.8438 336.258 61.375C335.857 61.901 335.656 62.6641 335.656 63.6641V63.9375C335.656 64.9115 335.857 65.6615 336.258 66.1875C336.659 66.7135 337.232 66.9766 337.977 66.9766ZM344.922 57.5V59.5469H346.5V60.6641H344.922V65.9062C344.922 66.2448 344.992 66.5 345.133 66.6719C345.273 66.8385 345.513 66.9219 345.852 66.9219C346.018 66.9219 346.247 66.8906 346.539 66.8281V68C346.159 68.1042 345.789 68.1562 345.43 68.1562C344.784 68.1562 344.297 67.9609 343.969 67.5703C343.641 67.1797 343.477 66.625 343.477 65.9062V60.6641H341.938V59.5469H343.477V57.5H344.922ZM349.766 68H348.32V59.5469H349.766V68ZM348.203 57.3047C348.203 57.0703 348.273 56.8724 348.414 56.7109C348.56 56.5495 348.773 56.4688 349.055 56.4688C349.336 56.4688 349.549 56.5495 349.695 56.7109C349.841 56.8724 349.914 57.0703 349.914 57.3047C349.914 57.5391 349.841 57.7344 349.695 57.8906C349.549 58.0469 349.336 58.125 349.055 58.125C348.773 58.125 348.56 58.0469 348.414 57.8906C348.273 57.7344 348.203 57.5391 348.203 57.3047ZM351.703 63.6953C351.703 62.8672 351.865 62.1224 352.188 61.4609C352.516 60.7995 352.969 60.2891 353.547 59.9297C354.13 59.5703 354.794 59.3906 355.539 59.3906C356.69 59.3906 357.62 59.7891 358.328 60.5859C359.042 61.3828 359.398 62.4427 359.398 63.7656V63.8672C359.398 64.6901 359.24 65.4297 358.922 66.0859C358.609 66.737 358.159 67.2448 357.57 67.6094C356.987 67.974 356.315 68.1562 355.555 68.1562C354.409 68.1562 353.479 67.7578 352.766 66.9609C352.057 66.1641 351.703 65.1094 351.703 63.7969V63.6953ZM353.156 63.8672C353.156 64.8047 353.372 65.5573 353.805 66.125C354.242 66.6927 354.826 66.9766 355.555 66.9766C356.289 66.9766 356.872 66.6901 357.305 66.1172C357.737 65.5391 357.953 64.7318 357.953 63.6953C357.953 62.7682 357.732 62.0182 357.289 61.4453C356.852 60.8672 356.268 60.5781 355.539 60.5781C354.826 60.5781 354.25 60.862 353.812 61.4297C353.375 61.9974 353.156 62.8099 353.156 63.8672ZM362.578 59.5469L362.625 60.6094C363.271 59.7969 364.115 59.3906 365.156 59.3906C366.943 59.3906 367.844 60.3984 367.859 62.4141V68H366.414V62.4062C366.409 61.7969 366.268 61.3464 365.992 61.0547C365.721 60.763 365.297 60.6172 364.719 60.6172C364.25 60.6172 363.839 60.7422 363.484 60.9922C363.13 61.2422 362.854 61.5703 362.656 61.9766V68H361.211V59.5469H362.578Z" fill="black"/>
<path d="M16.5312 136H15.0312V124.625H16.5312V136ZM20.4219 127.547L20.4688 128.609C21.1146 127.797 21.9583 127.391 23 127.391C24.7865 127.391 25.6875 128.398 25.7031 130.414V136H24.2578V130.406C24.2526 129.797 24.112 129.346 23.8359 129.055C23.5651 128.763 23.1406 128.617 22.5625 128.617C22.0938 128.617 21.6823 128.742 21.3281 128.992C20.974 129.242 20.6979 129.57 20.5 129.977V136H19.0547V127.547H20.4219ZM29.4531 136H28.0078V127.547H29.4531V136ZM27.8906 125.305C27.8906 125.07 27.9609 124.872 28.1016 124.711C28.2474 124.549 28.4609 124.469 28.7422 124.469C29.0234 124.469 29.237 124.549 29.3828 124.711C29.5286 124.872 29.6016 125.07 29.6016 125.305C29.6016 125.539 29.5286 125.734 29.3828 125.891C29.237 126.047 29.0234 126.125 28.7422 126.125C28.4609 126.125 28.2474 126.047 28.1016 125.891C27.9609 125.734 27.8906 125.539 27.8906 125.305ZM33.7344 125.5V127.547H35.3125V128.664H33.7344V133.906C33.7344 134.245 33.8047 134.5 33.9453 134.672C34.0859 134.839 34.3255 134.922 34.6641 134.922C34.8307 134.922 35.0599 134.891 35.3516 134.828V136C34.9714 136.104 34.6016 136.156 34.2422 136.156C33.5964 136.156 33.1094 135.961 32.7812 135.57C32.4531 135.18 32.2891 134.625 32.2891 133.906V128.664H30.75V127.547H32.2891V125.5H33.7344ZM38.5781 136H37.1328V127.547H38.5781V136ZM37.0156 125.305C37.0156 125.07 37.0859 124.872 37.2266 124.711C37.3724 124.549 37.5859 124.469 37.8672 124.469C38.1484 124.469 38.362 124.549 38.5078 124.711C38.6536 124.872 38.7266 125.07 38.7266 125.305C38.7266 125.539 38.6536 125.734 38.5078 125.891C38.362 126.047 38.1484 126.125 37.8672 126.125C37.5859 126.125 37.3724 126.047 37.2266 125.891C37.0859 125.734 37.0156 125.539 37.0156 125.305ZM46.1172 136C46.0339 135.833 45.9661 135.536 45.9141 135.109C45.2422 135.807 44.4401 136.156 43.5078 136.156C42.6745 136.156 41.9896 135.922 41.4531 135.453C40.9219 134.979 40.6562 134.38 40.6562 133.656C40.6562 132.776 40.9896 132.094 41.6562 131.609C42.3281 131.12 43.2708 130.875 44.4844 130.875H45.8906V130.211C45.8906 129.706 45.7396 129.305 45.4375 129.008C45.1354 128.706 44.6901 128.555 44.1016 128.555C43.5859 128.555 43.1536 128.685 42.8047 128.945C42.4557 129.206 42.2812 129.521 42.2812 129.891H40.8281C40.8281 129.469 40.9766 129.062 41.2734 128.672C41.5755 128.276 41.9818 127.964 42.4922 127.734C43.0078 127.505 43.5729 127.391 44.1875 127.391C45.1615 127.391 45.9245 127.635 46.4766 128.125C47.0286 128.609 47.3151 129.279 47.3359 130.133V134.023C47.3359 134.799 47.4349 135.417 47.6328 135.875V136H46.1172ZM43.7188 134.898C44.1719 134.898 44.6016 134.781 45.0078 134.547C45.4141 134.312 45.7083 134.008 45.8906 133.633V131.898H44.7578C42.987 131.898 42.1016 132.417 42.1016 133.453C42.1016 133.906 42.2526 134.26 42.5547 134.516C42.8568 134.771 43.2448 134.898 43.7188 134.898ZM51.1719 136H49.7266V124H51.1719V136ZM19.0938 149.93C17.8073 149.56 16.8698 149.107 16.2812 148.57C15.6979 148.029 15.4062 147.362 15.4062 146.57C15.4062 145.674 15.763 144.935 16.4766 144.352C17.1953 143.763 18.1276 143.469 19.2734 143.469C20.0547 143.469 20.75 143.62 21.3594 143.922C21.974 144.224 22.4479 144.641 22.7812 145.172C23.1198 145.703 23.2891 146.284 23.2891 146.914H21.7812C21.7812 146.227 21.5625 145.688 21.125 145.297C20.6875 144.901 20.0703 144.703 19.2734 144.703C18.5339 144.703 17.9557 144.867 17.5391 145.195C17.1276 145.518 16.9219 145.969 16.9219 146.547C16.9219 147.01 17.1172 147.404 17.5078 147.727C17.9036 148.044 18.5729 148.336 19.5156 148.602C20.4635 148.867 21.2031 149.161 21.7344 149.484C22.2708 149.802 22.6667 150.174 22.9219 150.602C23.1823 151.029 23.3125 151.531 23.3125 152.109C23.3125 153.031 22.9531 153.771 22.2344 154.328C21.5156 154.88 20.5547 155.156 19.3516 155.156C18.5703 155.156 17.8411 155.008 17.1641 154.711C16.487 154.409 15.9635 153.997 15.5938 153.477C15.2292 152.956 15.0469 152.365 15.0469 151.703H16.5547C16.5547 152.391 16.8073 152.935 17.3125 153.336C17.8229 153.732 18.5026 153.93 19.3516 153.93C20.1432 153.93 20.75 153.768 21.1719 153.445C21.5938 153.122 21.8047 152.682 21.8047 152.125C21.8047 151.568 21.6094 151.138 21.2188 150.836C20.8281 150.529 20.1198 150.227 19.0938 149.93ZM26.9766 144.5V146.547H28.5547V147.664H26.9766V152.906C26.9766 153.245 27.0469 153.5 27.1875 153.672C27.3281 153.839 27.5677 153.922 27.9062 153.922C28.0729 153.922 28.3021 153.891 28.5938 153.828V155C28.2135 155.104 27.8438 155.156 27.4844 155.156C26.8385 155.156 26.3516 154.961 26.0234 154.57C25.6953 154.18 25.5312 153.625 25.5312 152.906V147.664H23.9922V146.547H25.5312V144.5H26.9766ZM35.4688 155C35.3854 154.833 35.3177 154.536 35.2656 154.109C34.5938 154.807 33.7917 155.156 32.8594 155.156C32.026 155.156 31.3411 154.922 30.8047 154.453C30.2734 153.979 30.0078 153.38 30.0078 152.656C30.0078 151.776 30.3411 151.094 31.0078 150.609C31.6797 150.12 32.6224 149.875 33.8359 149.875H35.2422V149.211C35.2422 148.706 35.0911 148.305 34.7891 148.008C34.487 147.706 34.0417 147.555 33.4531 147.555C32.9375 147.555 32.5052 147.685 32.1562 147.945C31.8073 148.206 31.6328 148.521 31.6328 148.891H30.1797C30.1797 148.469 30.3281 148.062 30.625 147.672C30.9271 147.276 31.3333 146.964 31.8438 146.734C32.3594 146.505 32.9245 146.391 33.5391 146.391C34.513 146.391 35.276 146.635 35.8281 147.125C36.3802 147.609 36.6667 148.279 36.6875 149.133V153.023C36.6875 153.799 36.7865 154.417 36.9844 154.875V155H35.4688ZM33.0703 153.898C33.5234 153.898 33.9531 153.781 34.3594 153.547C34.7656 153.312 35.0599 153.008 35.2422 152.633V150.898H34.1094C32.3385 150.898 31.4531 151.417 31.4531 152.453C31.4531 152.906 31.6042 153.26 31.9062 153.516C32.2083 153.771 32.5964 153.898 33.0703 153.898ZM40.9141 144.5V146.547H42.4922V147.664H40.9141V152.906C40.9141 153.245 40.9844 153.5 41.125 153.672C41.2656 153.839 41.5052 153.922 41.8438 153.922C42.0104 153.922 42.2396 153.891 42.5312 153.828V155C42.151 155.104 41.7812 155.156 41.4219 155.156C40.776 155.156 40.2891 154.961 39.9609 154.57C39.6328 154.18 39.4688 153.625 39.4688 152.906V147.664H37.9297V146.547H39.4688V144.5H40.9141ZM47.6953 155.156C46.5495 155.156 45.6172 154.781 44.8984 154.031C44.1797 153.276 43.8203 152.268 43.8203 151.008V150.742C43.8203 149.904 43.9792 149.156 44.2969 148.5C44.6198 147.839 45.0677 147.323 45.6406 146.953C46.2188 146.578 46.8438 146.391 47.5156 146.391C48.6146 146.391 49.4688 146.753 50.0781 147.477C50.6875 148.201 50.9922 149.237 50.9922 150.586V151.188H45.2656C45.2865 152.021 45.5286 152.695 45.9922 153.211C46.4609 153.721 47.0547 153.977 47.7734 153.977C48.2839 153.977 48.7161 153.872 49.0703 153.664C49.4245 153.456 49.7344 153.18 50 152.836L50.8828 153.523C50.1745 154.612 49.112 155.156 47.6953 155.156ZM47.5156 147.578C46.9323 147.578 46.4427 147.792 46.0469 148.219C45.651 148.641 45.4062 149.234 45.3125 150H49.5469V149.891C49.5052 149.156 49.3073 148.589 48.9531 148.188C48.599 147.781 48.1198 147.578 47.5156 147.578Z" fill="black"/>
<path d="M295.648 298.398H292.977V303H291.469V291.625H295.234C296.516 291.625 297.5 291.917 298.188 292.5C298.88 293.083 299.227 293.932 299.227 295.047C299.227 295.755 299.034 296.372 298.648 296.898C298.268 297.424 297.737 297.818 297.055 298.078L299.727 302.906V303H298.117L295.648 298.398ZM292.977 297.172H295.281C296.026 297.172 296.617 296.979 297.055 296.594C297.497 296.208 297.719 295.693 297.719 295.047C297.719 294.344 297.508 293.805 297.086 293.43C296.669 293.055 296.065 292.865 295.273 292.859H292.977V297.172ZM304.617 303.156C303.471 303.156 302.539 302.781 301.82 302.031C301.102 301.276 300.742 300.268 300.742 299.008V298.742C300.742 297.904 300.901 297.156 301.219 296.5C301.542 295.839 301.99 295.323 302.562 294.953C303.141 294.578 303.766 294.391 304.438 294.391C305.536 294.391 306.391 294.753 307 295.477C307.609 296.201 307.914 297.237 307.914 298.586V299.188H302.188C302.208 300.021 302.451 300.695 302.914 301.211C303.383 301.721 303.977 301.977 304.695 301.977C305.206 301.977 305.638 301.872 305.992 301.664C306.346 301.456 306.656 301.18 306.922 300.836L307.805 301.523C307.096 302.612 306.034 303.156 304.617 303.156ZM304.438 295.578C303.854 295.578 303.365 295.792 302.969 296.219C302.573 296.641 302.328 297.234 302.234 298H306.469V297.891C306.427 297.156 306.229 296.589 305.875 296.188C305.521 295.781 305.042 295.578 304.438 295.578ZM314.516 300.758C314.516 300.367 314.367 300.065 314.07 299.852C313.779 299.633 313.266 299.445 312.531 299.289C311.802 299.133 311.221 298.945 310.789 298.727C310.362 298.508 310.044 298.247 309.836 297.945C309.633 297.643 309.531 297.284 309.531 296.867C309.531 296.174 309.823 295.589 310.406 295.109C310.995 294.63 311.745 294.391 312.656 294.391C313.615 294.391 314.391 294.638 314.984 295.133C315.583 295.628 315.883 296.26 315.883 297.031H314.43C314.43 296.635 314.26 296.294 313.922 296.008C313.589 295.721 313.167 295.578 312.656 295.578C312.13 295.578 311.719 295.693 311.422 295.922C311.125 296.151 310.977 296.451 310.977 296.82C310.977 297.169 311.115 297.432 311.391 297.609C311.667 297.786 312.164 297.956 312.883 298.117C313.607 298.279 314.193 298.471 314.641 298.695C315.089 298.919 315.419 299.19 315.633 299.508C315.852 299.82 315.961 300.203 315.961 300.656C315.961 301.411 315.659 302.018 315.055 302.477C314.451 302.93 313.667 303.156 312.703 303.156C312.026 303.156 311.427 303.036 310.906 302.797C310.385 302.557 309.977 302.224 309.68 301.797C309.388 301.365 309.242 300.898 309.242 300.398H310.688C310.714 300.883 310.906 301.268 311.266 301.555C311.63 301.836 312.109 301.977 312.703 301.977C313.25 301.977 313.688 301.867 314.016 301.648C314.349 301.424 314.516 301.128 314.516 300.758ZM323.062 303C322.979 302.833 322.911 302.536 322.859 302.109C322.188 302.807 321.385 303.156 320.453 303.156C319.62 303.156 318.935 302.922 318.398 302.453C317.867 301.979 317.602 301.38 317.602 300.656C317.602 299.776 317.935 299.094 318.602 298.609C319.273 298.12 320.216 297.875 321.43 297.875H322.836V297.211C322.836 296.706 322.685 296.305 322.383 296.008C322.081 295.706 321.635 295.555 321.047 295.555C320.531 295.555 320.099 295.685 319.75 295.945C319.401 296.206 319.227 296.521 319.227 296.891H317.773C317.773 296.469 317.922 296.062 318.219 295.672C318.521 295.276 318.927 294.964 319.438 294.734C319.953 294.505 320.518 294.391 321.133 294.391C322.107 294.391 322.87 294.635 323.422 295.125C323.974 295.609 324.26 296.279 324.281 297.133V301.023C324.281 301.799 324.38 302.417 324.578 302.875V303H323.062ZM320.664 301.898C321.117 301.898 321.547 301.781 321.953 301.547C322.359 301.312 322.654 301.008 322.836 300.633V298.898H321.703C319.932 298.898 319.047 299.417 319.047 300.453C319.047 300.906 319.198 301.26 319.5 301.516C319.802 301.771 320.19 301.898 320.664 301.898ZM327.906 294.547L327.945 295.484C328.565 294.755 329.401 294.391 330.453 294.391C331.635 294.391 332.44 294.844 332.867 295.75C333.148 295.344 333.513 295.016 333.961 294.766C334.414 294.516 334.948 294.391 335.562 294.391C337.417 294.391 338.359 295.372 338.391 297.336V303H336.945V297.422C336.945 296.818 336.807 296.367 336.531 296.07C336.255 295.768 335.792 295.617 335.141 295.617C334.604 295.617 334.159 295.779 333.805 296.102C333.451 296.419 333.245 296.849 333.188 297.391V303H331.734V297.461C331.734 296.232 331.133 295.617 329.93 295.617C328.982 295.617 328.333 296.021 327.984 296.828V303H326.539V294.547H327.906ZM347.719 298.867C347.719 300.154 347.424 301.19 346.836 301.977C346.247 302.763 345.451 303.156 344.445 303.156C343.419 303.156 342.612 302.831 342.023 302.18V306.25H340.578V294.547H341.898L341.969 295.484C342.557 294.755 343.375 294.391 344.422 294.391C345.438 294.391 346.24 294.773 346.828 295.539C347.422 296.305 347.719 297.37 347.719 298.734V298.867ZM346.273 298.703C346.273 297.75 346.07 296.997 345.664 296.445C345.258 295.893 344.701 295.617 343.992 295.617C343.117 295.617 342.461 296.005 342.023 296.781V300.82C342.456 301.591 343.117 301.977 344.008 301.977C344.701 301.977 345.25 301.703 345.656 301.156C346.068 300.604 346.273 299.786 346.273 298.703ZM351.133 303H349.688V291H351.133V303ZM356.961 303.156C355.815 303.156 354.883 302.781 354.164 302.031C353.445 301.276 353.086 300.268 353.086 299.008V298.742C353.086 297.904 353.245 297.156 353.562 296.5C353.885 295.839 354.333 295.323 354.906 294.953C355.484 294.578 356.109 294.391 356.781 294.391C357.88 294.391 358.734 294.753 359.344 295.477C359.953 296.201 360.258 297.237 360.258 298.586V299.188H354.531C354.552 300.021 354.794 300.695 355.258 301.211C355.727 301.721 356.32 301.977 357.039 301.977C357.549 301.977 357.982 301.872 358.336 301.664C358.69 301.456 359 301.18 359.266 300.836L360.148 301.523C359.44 302.612 358.378 303.156 356.961 303.156ZM356.781 295.578C356.198 295.578 355.708 295.792 355.312 296.219C354.917 296.641 354.672 297.234 354.578 298H358.812V297.891C358.771 297.156 358.573 296.589 358.219 296.188C357.865 295.781 357.385 295.578 356.781 295.578Z" fill="black"/>
<path d="M288.195 265.398H285.523V270H284.016V258.625H287.781C289.062 258.625 290.047 258.917 290.734 259.5C291.427 260.083 291.773 260.932 291.773 262.047C291.773 262.755 291.581 263.372 291.195 263.898C290.815 264.424 290.284 264.818 289.602 265.078L292.273 269.906V270H290.664L288.195 265.398ZM285.523 264.172H287.828C288.573 264.172 289.164 263.979 289.602 263.594C290.044 263.208 290.266 262.693 290.266 262.047C290.266 261.344 290.055 260.805 289.633 260.43C289.216 260.055 288.612 259.865 287.82 259.859H285.523V264.172ZM297.164 270.156C296.018 270.156 295.086 269.781 294.367 269.031C293.648 268.276 293.289 267.268 293.289 266.008V265.742C293.289 264.904 293.448 264.156 293.766 263.5C294.089 262.839 294.536 262.323 295.109 261.953C295.688 261.578 296.312 261.391 296.984 261.391C298.083 261.391 298.938 261.753 299.547 262.477C300.156 263.201 300.461 264.237 300.461 265.586V266.188H294.734C294.755 267.021 294.997 267.695 295.461 268.211C295.93 268.721 296.523 268.977 297.242 268.977C297.753 268.977 298.185 268.872 298.539 268.664C298.893 268.456 299.203 268.18 299.469 267.836L300.352 268.523C299.643 269.612 298.581 270.156 297.164 270.156ZM296.984 262.578C296.401 262.578 295.911 262.792 295.516 263.219C295.12 263.641 294.875 264.234 294.781 265H299.016V264.891C298.974 264.156 298.776 263.589 298.422 263.188C298.068 262.781 297.589 262.578 296.984 262.578ZM309.281 265.867C309.281 267.154 308.987 268.19 308.398 268.977C307.81 269.763 307.013 270.156 306.008 270.156C304.982 270.156 304.174 269.831 303.586 269.18V273.25H302.141V261.547H303.461L303.531 262.484C304.12 261.755 304.938 261.391 305.984 261.391C307 261.391 307.802 261.773 308.391 262.539C308.984 263.305 309.281 264.37 309.281 265.734V265.867ZM307.836 265.703C307.836 264.75 307.633 263.997 307.227 263.445C306.82 262.893 306.263 262.617 305.555 262.617C304.68 262.617 304.023 263.005 303.586 263.781V267.82C304.018 268.591 304.68 268.977 305.57 268.977C306.263 268.977 306.812 268.703 307.219 268.156C307.63 267.604 307.836 266.786 307.836 265.703ZM314.633 270.156C313.487 270.156 312.555 269.781 311.836 269.031C311.117 268.276 310.758 267.268 310.758 266.008V265.742C310.758 264.904 310.917 264.156 311.234 263.5C311.557 262.839 312.005 262.323 312.578 261.953C313.156 261.578 313.781 261.391 314.453 261.391C315.552 261.391 316.406 261.753 317.016 262.477C317.625 263.201 317.93 264.237 317.93 265.586V266.188H312.203C312.224 267.021 312.466 267.695 312.93 268.211C313.398 268.721 313.992 268.977 314.711 268.977C315.221 268.977 315.654 268.872 316.008 268.664C316.362 268.456 316.672 268.18 316.938 267.836L317.82 268.523C317.112 269.612 316.049 270.156 314.633 270.156ZM314.453 262.578C313.87 262.578 313.38 262.792 312.984 263.219C312.589 263.641 312.344 264.234 312.25 265H316.484V264.891C316.443 264.156 316.245 263.589 315.891 263.188C315.536 262.781 315.057 262.578 314.453 262.578ZM324.828 270C324.745 269.833 324.677 269.536 324.625 269.109C323.953 269.807 323.151 270.156 322.219 270.156C321.385 270.156 320.701 269.922 320.164 269.453C319.633 268.979 319.367 268.38 319.367 267.656C319.367 266.776 319.701 266.094 320.367 265.609C321.039 265.12 321.982 264.875 323.195 264.875H324.602V264.211C324.602 263.706 324.451 263.305 324.148 263.008C323.846 262.706 323.401 262.555 322.812 262.555C322.297 262.555 321.865 262.685 321.516 262.945C321.167 263.206 320.992 263.521 320.992 263.891H319.539C319.539 263.469 319.688 263.062 319.984 262.672C320.286 262.276 320.693 261.964 321.203 261.734C321.719 261.505 322.284 261.391 322.898 261.391C323.872 261.391 324.635 261.635 325.188 262.125C325.74 262.609 326.026 263.279 326.047 264.133V268.023C326.047 268.799 326.146 269.417 326.344 269.875V270H324.828ZM322.43 268.898C322.883 268.898 323.312 268.781 323.719 268.547C324.125 268.312 324.419 268.008 324.602 267.633V265.898H323.469C321.698 265.898 320.812 266.417 320.812 267.453C320.812 267.906 320.964 268.26 321.266 268.516C321.568 268.771 321.956 268.898 322.43 268.898ZM330.273 259.5V261.547H331.852V262.664H330.273V267.906C330.273 268.245 330.344 268.5 330.484 268.672C330.625 268.839 330.865 268.922 331.203 268.922C331.37 268.922 331.599 268.891 331.891 268.828V270C331.51 270.104 331.141 270.156 330.781 270.156C330.135 270.156 329.648 269.961 329.32 269.57C328.992 269.18 328.828 268.625 328.828 267.906V262.664H327.289V261.547H328.828V259.5H330.273ZM346.289 263.93C346.289 264.753 346.044 265.448 345.555 266.016C345.07 266.578 344.471 266.859 343.758 266.859C343.383 266.859 343.029 266.792 342.695 266.656C342.362 266.516 341.974 266.253 341.531 265.867C341.094 265.482 340.779 265.242 340.586 265.148C340.393 265.055 340.188 265.008 339.969 265.008C339.562 265.008 339.25 265.148 339.031 265.43C338.812 265.706 338.703 266.089 338.703 266.578L337.445 266.594C337.445 265.76 337.685 265.076 338.164 264.539C338.643 264.003 339.245 263.734 339.969 263.734C340.365 263.734 340.745 263.818 341.109 263.984C341.474 264.151 341.885 264.445 342.344 264.867C342.802 265.284 343.198 265.518 343.531 265.57L343.758 265.586C344.154 265.586 344.474 265.435 344.719 265.133C344.969 264.831 345.094 264.432 345.094 263.938L346.289 263.93ZM353.008 270H351.555V260.367L348.641 261.438V260.125L352.781 258.57H353.008V270ZM360.898 270.156C359.753 270.156 358.82 269.781 358.102 269.031C357.383 268.276 357.023 267.268 357.023 266.008V265.742C357.023 264.904 357.182 264.156 357.5 263.5C357.823 262.839 358.271 262.323 358.844 261.953C359.422 261.578 360.047 261.391 360.719 261.391C361.818 261.391 362.672 261.753 363.281 262.477C363.891 263.201 364.195 264.237 364.195 265.586V266.188H358.469C358.49 267.021 358.732 267.695 359.195 268.211C359.664 268.721 360.258 268.977 360.977 268.977C361.487 268.977 361.919 268.872 362.273 268.664C362.628 268.456 362.938 268.18 363.203 267.836L364.086 268.523C363.378 269.612 362.315 270.156 360.898 270.156ZM360.719 262.578C360.135 262.578 359.646 262.792 359.25 263.219C358.854 263.641 358.609 264.234 358.516 265H362.75V264.891C362.708 264.156 362.51 263.589 362.156 263.188C361.802 262.781 361.323 262.578 360.719 262.578ZM373.18 270H365.727V268.961L369.664 264.586C370.247 263.924 370.648 263.388 370.867 262.977C371.091 262.56 371.203 262.13 371.203 261.688C371.203 261.094 371.023 260.607 370.664 260.227C370.305 259.846 369.826 259.656 369.227 259.656C368.508 259.656 367.948 259.862 367.547 260.273C367.151 260.68 366.953 261.247 366.953 261.977H365.508C365.508 260.93 365.844 260.083 366.516 259.438C367.193 258.792 368.096 258.469 369.227 258.469C370.284 258.469 371.12 258.747 371.734 259.305C372.349 259.857 372.656 260.594 372.656 261.516C372.656 262.635 371.943 263.969 370.516 265.516L367.469 268.82H373.18V270ZM374.461 267.43L377.039 264.805L374.477 262.188L375.406 261.227L377.977 263.844L380.547 261.227L381.477 262.188L378.914 264.805L381.492 267.43L380.562 268.391L377.977 265.758L375.391 268.391L374.461 267.43Z" fill="#FF0000"/>
<path d="M296.833 205.296C295.386 204.88 294.331 204.37 293.669 203.767C293.013 203.157 292.685 202.407 292.685 201.517C292.685 200.509 293.086 199.677 293.889 199.021C294.697 198.358 295.746 198.027 297.035 198.027C297.914 198.027 298.696 198.197 299.382 198.537C300.073 198.877 300.606 199.346 300.981 199.943C301.362 200.541 301.553 201.194 301.553 201.903H299.856C299.856 201.13 299.61 200.523 299.118 200.084C298.626 199.639 297.932 199.416 297.035 199.416C296.203 199.416 295.553 199.601 295.084 199.97C294.621 200.333 294.39 200.84 294.39 201.49C294.39 202.012 294.609 202.454 295.049 202.817C295.494 203.175 296.247 203.503 297.308 203.802C298.374 204.101 299.206 204.432 299.804 204.795C300.407 205.152 300.853 205.571 301.14 206.052C301.433 206.532 301.579 207.098 301.579 207.748C301.579 208.785 301.175 209.617 300.366 210.244C299.558 210.865 298.477 211.176 297.123 211.176C296.244 211.176 295.424 211.009 294.662 210.675C293.9 210.335 293.312 209.872 292.896 209.286C292.485 208.7 292.28 208.035 292.28 207.291H293.977C293.977 208.064 294.261 208.677 294.829 209.128C295.403 209.573 296.168 209.796 297.123 209.796C298.014 209.796 298.696 209.614 299.171 209.251C299.646 208.888 299.883 208.393 299.883 207.766C299.883 207.139 299.663 206.655 299.224 206.315C298.784 205.97 297.987 205.63 296.833 205.296ZM305.701 199.188V201.49H307.477V202.747H305.701V208.645C305.701 209.025 305.78 209.312 305.938 209.506C306.097 209.693 306.366 209.787 306.747 209.787C306.935 209.787 307.192 209.752 307.521 209.682V211C307.093 211.117 306.677 211.176 306.272 211.176C305.546 211.176 304.998 210.956 304.629 210.517C304.26 210.077 304.075 209.453 304.075 208.645V202.747H302.344V201.49H304.075V199.188H305.701ZM315.255 211C315.161 210.812 315.085 210.479 315.026 209.998C314.271 210.783 313.368 211.176 312.319 211.176C311.382 211.176 310.611 210.912 310.008 210.385C309.41 209.852 309.111 209.178 309.111 208.363C309.111 207.373 309.486 206.605 310.236 206.061C310.992 205.51 312.053 205.234 313.418 205.234H315V204.487C315 203.919 314.83 203.468 314.49 203.134C314.15 202.794 313.649 202.624 312.987 202.624C312.407 202.624 311.921 202.771 311.528 203.063C311.136 203.356 310.939 203.711 310.939 204.127H309.305C309.305 203.652 309.472 203.195 309.806 202.756C310.146 202.311 310.603 201.959 311.177 201.701C311.757 201.443 312.393 201.314 313.084 201.314C314.18 201.314 315.038 201.59 315.659 202.141C316.28 202.686 316.603 203.438 316.626 204.399V208.776C316.626 209.649 316.737 210.344 316.96 210.859V211H315.255ZM312.557 209.761C313.066 209.761 313.55 209.629 314.007 209.365C314.464 209.102 314.795 208.759 315 208.337V206.386H313.726C311.733 206.386 310.737 206.969 310.737 208.135C310.737 208.645 310.907 209.043 311.247 209.33C311.587 209.617 312.023 209.761 312.557 209.761ZM321.381 199.188V201.49H323.156V202.747H321.381V208.645C321.381 209.025 321.46 209.312 321.618 209.506C321.776 209.693 322.046 209.787 322.427 209.787C322.614 209.787 322.872 209.752 323.2 209.682V211C322.772 211.117 322.356 211.176 321.952 211.176C321.226 211.176 320.678 210.956 320.309 210.517C319.939 210.077 319.755 209.453 319.755 208.645V202.747H318.023V201.49H319.755V199.188H321.381ZM329.01 211.176C327.721 211.176 326.672 210.754 325.863 209.91C325.055 209.061 324.65 207.927 324.65 206.509V206.21C324.65 205.267 324.829 204.426 325.187 203.688C325.55 202.943 326.054 202.363 326.698 201.947C327.349 201.525 328.052 201.314 328.808 201.314C330.044 201.314 331.005 201.722 331.69 202.536C332.376 203.351 332.719 204.517 332.719 206.034V206.711H326.276C326.3 207.648 326.572 208.407 327.094 208.987C327.621 209.562 328.289 209.849 329.098 209.849C329.672 209.849 330.158 209.731 330.557 209.497C330.955 209.263 331.304 208.952 331.603 208.565L332.596 209.339C331.799 210.563 330.604 211.176 329.01 211.176ZM328.808 202.65C328.151 202.65 327.601 202.891 327.155 203.371C326.71 203.846 326.435 204.514 326.329 205.375H331.093V205.252C331.046 204.426 330.823 203.787 330.425 203.336C330.026 202.879 329.487 202.65 328.808 202.65ZM334.556 213.549L333.633 212.916C334.184 212.148 334.471 211.357 334.494 210.543V209.075H336.085V210.35C336.085 210.941 335.938 211.533 335.646 212.125C335.358 212.717 334.995 213.191 334.556 213.549ZM347.555 205.823H344.549V211H342.853V198.203H347.089C348.53 198.203 349.638 198.531 350.411 199.188C351.19 199.844 351.58 200.799 351.58 202.053C351.58 202.85 351.363 203.544 350.93 204.136C350.502 204.728 349.904 205.17 349.137 205.463L352.143 210.895V211H350.332L347.555 205.823ZM344.549 204.443H347.142C347.979 204.443 348.645 204.227 349.137 203.793C349.635 203.359 349.884 202.779 349.884 202.053C349.884 201.262 349.646 200.655 349.172 200.233C348.703 199.812 348.023 199.598 347.133 199.592H344.549V204.443ZM357.645 211.176C356.355 211.176 355.307 210.754 354.498 209.91C353.689 209.061 353.285 207.927 353.285 206.509V206.21C353.285 205.267 353.464 204.426 353.821 203.688C354.185 202.943 354.688 202.363 355.333 201.947C355.983 201.525 356.687 201.314 357.442 201.314C358.679 201.314 359.64 201.722 360.325 202.536C361.011 203.351 361.354 204.517 361.354 206.034V206.711H354.911C354.935 207.648 355.207 208.407 355.729 208.987C356.256 209.562 356.924 209.849 357.732 209.849C358.307 209.849 358.793 209.731 359.191 209.497C359.59 209.263 359.938 208.952 360.237 208.565L361.23 209.339C360.434 210.563 359.238 211.176 357.645 211.176ZM357.442 202.65C356.786 202.65 356.235 202.891 355.79 203.371C355.345 203.846 355.069 204.514 354.964 205.375H359.728V205.252C359.681 204.426 359.458 203.787 359.06 203.336C358.661 202.879 358.122 202.65 357.442 202.65ZM371.663 208.759L373.491 201.49H375.117L372.349 211H371.03L368.719 203.793L366.469 211H365.15L362.391 201.49H364.008L365.88 208.609L368.095 201.49H369.404L371.663 208.759ZM382.649 211C382.556 210.812 382.479 210.479 382.421 209.998C381.665 210.783 380.763 211.176 379.714 211.176C378.776 211.176 378.006 210.912 377.402 210.385C376.805 209.852 376.506 209.178 376.506 208.363C376.506 207.373 376.881 206.605 377.631 206.061C378.387 205.51 379.447 205.234 380.812 205.234H382.395V204.487C382.395 203.919 382.225 203.468 381.885 203.134C381.545 202.794 381.044 202.624 380.382 202.624C379.802 202.624 379.315 202.771 378.923 203.063C378.53 203.356 378.334 203.711 378.334 204.127H376.699C376.699 203.652 376.866 203.195 377.2 202.756C377.54 202.311 377.997 201.959 378.571 201.701C379.151 201.443 379.787 201.314 380.479 201.314C381.574 201.314 382.433 201.59 383.054 202.141C383.675 202.686 383.997 203.438 384.021 204.399V208.776C384.021 209.649 384.132 210.344 384.354 210.859V211H382.649ZM379.951 209.761C380.461 209.761 380.944 209.629 381.401 209.365C381.858 209.102 382.189 208.759 382.395 208.337V206.386H381.12C379.128 206.386 378.132 206.969 378.132 208.135C378.132 208.645 378.302 209.043 378.642 209.33C378.981 209.617 379.418 209.761 379.951 209.761ZM391.166 202.949C390.92 202.908 390.653 202.888 390.366 202.888C389.3 202.888 388.576 203.342 388.195 204.25V211H386.569V201.49H388.151L388.178 202.589C388.711 201.739 389.467 201.314 390.445 201.314C390.762 201.314 391.002 201.355 391.166 201.438V202.949ZM392.098 206.166C392.098 204.707 392.443 203.535 393.135 202.65C393.826 201.76 394.731 201.314 395.851 201.314C396.964 201.314 397.846 201.695 398.496 202.457V197.5H400.122V211H398.628L398.549 209.98C397.898 210.777 396.993 211.176 395.833 211.176C394.731 211.176 393.832 210.725 393.135 209.822C392.443 208.92 392.098 207.742 392.098 206.289V206.166ZM393.724 206.351C393.724 207.429 393.946 208.272 394.392 208.882C394.837 209.491 395.452 209.796 396.237 209.796C397.269 209.796 398.021 209.333 398.496 208.407V204.039C398.01 203.143 397.263 202.694 396.255 202.694C395.458 202.694 394.837 203.002 394.392 203.617C393.946 204.232 393.724 205.144 393.724 206.351Z" fill="black"/>
<path d="M156.061 141.061C156.646 140.475 156.646 139.525 156.061 138.939L146.515 129.393C145.929 128.808 144.979 128.808 144.393 129.393C143.808 129.979 143.808 130.929 144.393 131.515L152.879 140L144.393 148.485C143.808 149.071 143.808 150.021 144.393 150.607C144.979 151.192 145.929 151.192 146.515 150.607L156.061 141.061ZM58 141.5H155V138.5H58V141.5Z" fill="black"/>
<path d="M591.1 299L591.1 300.5L592.6 300.5L592.6 299L591.1 299ZM366.439 297.939C365.854 298.525 365.854 299.475 366.439 300.061L375.985 309.606C376.571 310.192 377.521 310.192 378.107 309.606C378.692 309.021 378.692 308.071 378.107 307.485L369.621 299L378.107 290.515C378.692 289.929 378.692 288.979 378.107 288.393C377.521 287.807 376.571 287.807 375.985 288.393L366.439 297.939ZM589.601 139L589.6 299L592.6 299L592.601 139L589.601 139ZM591.1 297.5L367.5 297.5L367.5 300.5L591.1 300.5L591.1 297.5Z" fill="black"/>
<path d="M495 140L592 140" stroke="black" stroke-width="3"/>
<path d="M31.5 299L30 299L30 300.5L31.5 300.5L31.5 299ZM32.5607 165.439C31.9749 164.854 31.0251 164.854 30.4393 165.439L20.8934 174.985C20.3076 175.571 20.3076 176.521 20.8934 177.107C21.4792 177.692 22.4289 177.692 23.0147 177.107L31.5 168.621L39.9853 177.107C40.5711 177.692 41.5208 177.692 42.1066 177.107C42.6924 176.521 42.6924 175.571 42.1066 174.985L32.5607 165.439ZM285 297.5L31.5 297.5L31.5 300.5L285 300.5V297.5ZM33 299L33 166.5L30 166.5L30 299L33 299Z" fill="black"/>
</svg>
